<?xml version="1.0" encoding="utf-8" standalone="no"?>
<!DOCTYPE svg PUBLIC "-//W3C//DTD SVG 1.1//EN"
  "http://www.w3.org/Graphics/SVG/1.1/DTD/svg11.dtd">
<!-- Created with matplotlib (https://matplotlib.org/) -->
<svg height="504pt" version="1.1" viewBox="0 0 1008 504" width="1008pt" xmlns="http://www.w3.org/2000/svg" xmlns:xlink="http://www.w3.org/1999/xlink">
 <defs>
  <style type="text/css">
*{stroke-linecap:butt;stroke-linejoin:round;}
  </style>
 </defs>
 <g id="figure_1">
  <g id="patch_1">
   <path d="M 0 504 
L 1008 504 
L 1008 0 
L 0 0 
z
" style="fill:#ffffff;"/>
  </g>
  <g id="axes_1">
   <g id="patch_2">
    <path d="M 126 441 
L 907.2 441 
L 907.2 60.48 
L 126 60.48 
z
" style="fill:#ffffff;"/>
   </g>
   <g id="patch_3">
    <path clip-path="url(#p28892b9fac)" d="M 161.509091 441 
L 175.712727 441 
L 175.712727 440.432272 
L 161.509091 440.432272 
z
" style="fill:#1f77b4;opacity:0.7;"/>
   </g>
   <g id="patch_4">
    <path clip-path="url(#p28892b9fac)" d="M 175.712727 441 
L 189.916364 441 
L 189.916364 440.810757 
L 175.712727 440.810757 
z
" style="fill:#1f77b4;opacity:0.7;"/>
   </g>
   <g id="patch_5">
    <path clip-path="url(#p28892b9fac)" d="M 189.916364 441 
L 204.12 441 
L 204.12 438.918329 
L 189.916364 438.918329 
z
" style="fill:#1f77b4;opacity:0.7;"/>
   </g>
   <g id="patch_6">
    <path clip-path="url(#p28892b9fac)" d="M 204.12 441 
L 218.323636 441 
L 218.323636 439.107572 
L 204.12 439.107572 
z
" style="fill:#1f77b4;opacity:0.7;"/>
   </g>
   <g id="patch_7">
    <path clip-path="url(#p28892b9fac)" d="M 218.323636 441 
L 232.527273 441 
L 232.527273 437.972115 
L 218.323636 437.972115 
z
" style="fill:#1f77b4;opacity:0.7;"/>
   </g>
   <g id="patch_8">
    <path clip-path="url(#p28892b9fac)" d="M 232.527273 441 
L 246.730909 441 
L 246.730909 428.131488 
L 232.527273 428.131488 
z
" style="fill:#1f77b4;opacity:0.7;"/>
   </g>
   <g id="patch_9">
    <path clip-path="url(#p28892b9fac)" d="M 246.730909 441 
L 260.934545 441 
L 260.934545 431.159373 
L 246.730909 431.159373 
z
" style="fill:#1f77b4;opacity:0.7;"/>
   </g>
   <g id="patch_10">
    <path clip-path="url(#p28892b9fac)" d="M 260.934545 441 
L 275.138182 441 
L 275.138182 431.348616 
L 260.934545 431.348616 
z
" style="fill:#1f77b4;opacity:0.7;"/>
   </g>
   <g id="patch_11">
    <path clip-path="url(#p28892b9fac)" d="M 275.138182 441 
L 289.341818 441 
L 289.341818 418.669347 
L 275.138182 418.669347 
z
" style="fill:#1f77b4;opacity:0.7;"/>
   </g>
   <g id="patch_12">
    <path clip-path="url(#p28892b9fac)" d="M 289.341818 441 
L 303.545455 441 
L 303.545455 398.231123 
L 289.341818 398.231123 
z
" style="fill:#1f77b4;opacity:0.7;"/>
   </g>
   <g id="patch_13">
    <path clip-path="url(#p28892b9fac)" d="M 303.545455 441 
L 317.749091 441 
L 317.749091 389.904439 
L 303.545455 389.904439 
z
" style="fill:#1f77b4;opacity:0.7;"/>
   </g>
   <g id="patch_14">
    <path clip-path="url(#p28892b9fac)" d="M 317.749091 441 
L 331.952727 441 
L 331.952727 362.842715 
L 317.749091 362.842715 
z
" style="fill:#1f77b4;opacity:0.7;"/>
   </g>
   <g id="patch_15">
    <path clip-path="url(#p28892b9fac)" d="M 331.952727 441 
L 346.156364 441 
L 346.156364 349.406475 
L 331.952727 349.406475 
z
" style="fill:#1f77b4;opacity:0.7;"/>
   </g>
   <g id="patch_16">
    <path clip-path="url(#p28892b9fac)" d="M 346.156364 441 
L 360.36 441 
L 360.36 309.286997 
L 346.156364 309.286997 
z
" style="fill:#1f77b4;opacity:0.7;"/>
   </g>
   <g id="patch_17">
    <path clip-path="url(#p28892b9fac)" d="M 360.36 441 
L 374.563636 441 
L 374.563636 260.46235 
L 360.36 260.46235 
z
" style="fill:#1f77b4;opacity:0.7;"/>
   </g>
   <g id="patch_18">
    <path clip-path="url(#p28892b9fac)" d="M 374.563636 441 
L 388.767273 441 
L 388.767273 218.071958 
L 374.563636 218.071958 
z
" style="fill:#1f77b4;opacity:0.7;"/>
   </g>
   <g id="patch_19">
    <path clip-path="url(#p28892b9fac)" d="M 388.767273 441 
L 402.970909 441 
L 402.970909 192.902663 
L 388.767273 192.902663 
z
" style="fill:#1f77b4;opacity:0.7;"/>
   </g>
   <g id="patch_20">
    <path clip-path="url(#p28892b9fac)" d="M 402.970909 441 
L 417.174545 441 
L 417.174545 145.213473 
L 402.970909 145.213473 
z
" style="fill:#1f77b4;opacity:0.7;"/>
   </g>
   <g id="patch_21">
    <path clip-path="url(#p28892b9fac)" d="M 417.174545 441 
L 431.378182 441 
L 431.378182 141.428616 
L 417.174545 141.428616 
z
" style="fill:#1f77b4;opacity:0.7;"/>
   </g>
   <g id="patch_22">
    <path clip-path="url(#p28892b9fac)" d="M 431.378182 441 
L 445.581818 441 
L 445.581818 82.384856 
L 431.378182 82.384856 
z
" style="fill:#1f77b4;opacity:0.7;"/>
   </g>
   <g id="patch_23">
    <path clip-path="url(#p28892b9fac)" d="M 445.581818 441 
L 459.785455 441 
L 459.785455 99.227467 
L 445.581818 99.227467 
z
" style="fill:#1f77b4;opacity:0.7;"/>
   </g>
   <g id="patch_24">
    <path clip-path="url(#p28892b9fac)" d="M 459.785455 441 
L 473.989091 441 
L 473.989091 78.6 
L 459.785455 78.6 
z
" style="fill:#1f77b4;opacity:0.7;"/>
   </g>
   <g id="patch_25">
    <path clip-path="url(#p28892b9fac)" d="M 473.989091 441 
L 488.192727 441 
L 488.192727 118.151749 
L 473.989091 118.151749 
z
" style="fill:#1f77b4;opacity:0.7;"/>
   </g>
   <g id="patch_26">
    <path clip-path="url(#p28892b9fac)" d="M 488.192727 441 
L 502.396364 441 
L 502.396364 148.809086 
L 488.192727 148.809086 
z
" style="fill:#1f77b4;opacity:0.7;"/>
   </g>
   <g id="patch_27">
    <path clip-path="url(#p28892b9fac)" d="M 502.396364 441 
L 516.6 441 
L 516.6 161.299112 
L 502.396364 161.299112 
z
" style="fill:#1f77b4;opacity:0.7;"/>
   </g>
   <g id="patch_28">
    <path clip-path="url(#p28892b9fac)" d="M 516.6 441 
L 530.803636 441 
L 530.803636 203.689504 
L 516.6 203.689504 
z
" style="fill:#1f77b4;opacity:0.7;"/>
   </g>
   <g id="patch_29">
    <path clip-path="url(#p28892b9fac)" d="M 530.803636 441 
L 545.007273 441 
L 545.007273 233.779112 
L 530.803636 233.779112 
z
" style="fill:#1f77b4;opacity:0.7;"/>
   </g>
   <g id="patch_30">
    <path clip-path="url(#p28892b9fac)" d="M 545.007273 441 
L 559.210909 441 
L 559.210909 288.65953 
L 545.007273 288.65953 
z
" style="fill:#1f77b4;opacity:0.7;"/>
   </g>
   <g id="patch_31">
    <path clip-path="url(#p28892b9fac)" d="M 559.210909 441 
L 573.414545 441 
L 573.414545 332.185379 
L 559.210909 332.185379 
z
" style="fill:#1f77b4;opacity:0.7;"/>
   </g>
   <g id="patch_32">
    <path clip-path="url(#p28892b9fac)" d="M 573.414545 441 
L 587.618182 441 
L 587.618182 331.61765 
L 573.414545 331.61765 
z
" style="fill:#1f77b4;opacity:0.7;"/>
   </g>
   <g id="patch_33">
    <path clip-path="url(#p28892b9fac)" d="M 587.618182 441 
L 601.821818 441 
L 601.821818 365.302872 
L 587.618182 365.302872 
z
" style="fill:#1f77b4;opacity:0.7;"/>
   </g>
   <g id="patch_34">
    <path clip-path="url(#p28892b9fac)" d="M 601.821818 441 
L 616.025455 441 
L 616.025455 384.037911 
L 601.821818 384.037911 
z
" style="fill:#1f77b4;opacity:0.7;"/>
   </g>
   <g id="patch_35">
    <path clip-path="url(#p28892b9fac)" d="M 616.025455 441 
L 630.229091 441 
L 630.229091 397.852637 
L 616.025455 397.852637 
z
" style="fill:#1f77b4;opacity:0.7;"/>
   </g>
   <g id="patch_36">
    <path clip-path="url(#p28892b9fac)" d="M 630.229091 441 
L 644.432727 441 
L 644.432727 412.235091 
L 630.229091 412.235091 
z
" style="fill:#1f77b4;opacity:0.7;"/>
   </g>
   <g id="patch_37">
    <path clip-path="url(#p28892b9fac)" d="M 644.432727 441 
L 658.636364 441 
L 658.636364 424.91436 
L 644.432727 424.91436 
z
" style="fill:#1f77b4;opacity:0.7;"/>
   </g>
   <g id="patch_38">
    <path clip-path="url(#p28892b9fac)" d="M 658.636364 441 
L 672.84 441 
L 672.84 423.211175 
L 658.636364 423.211175 
z
" style="fill:#1f77b4;opacity:0.7;"/>
   </g>
   <g id="patch_39">
    <path clip-path="url(#p28892b9fac)" d="M 672.84 441 
L 687.043636 441 
L 687.043636 433.430287 
L 672.84 433.430287 
z
" style="fill:#1f77b4;opacity:0.7;"/>
   </g>
   <g id="patch_40">
    <path clip-path="url(#p28892b9fac)" d="M 687.043636 441 
L 701.247273 441 
L 701.247273 437.025901 
L 687.043636 437.025901 
z
" style="fill:#1f77b4;opacity:0.7;"/>
   </g>
   <g id="patch_41">
    <path clip-path="url(#p28892b9fac)" d="M 701.247273 441 
L 715.450909 441 
L 715.450909 438.539843 
L 701.247273 438.539843 
z
" style="fill:#1f77b4;opacity:0.7;"/>
   </g>
   <g id="patch_42">
    <path clip-path="url(#p28892b9fac)" d="M 715.450909 441 
L 729.654545 441 
L 729.654545 440.621514 
L 715.450909 440.621514 
z
" style="fill:#1f77b4;opacity:0.7;"/>
   </g>
   <g id="patch_43">
    <path clip-path="url(#p28892b9fac)" d="M 729.654545 441 
L 743.858182 441 
L 743.858182 440.053786 
L 729.654545 440.053786 
z
" style="fill:#1f77b4;opacity:0.7;"/>
   </g>
   <g id="patch_44">
    <path clip-path="url(#p28892b9fac)" d="M 743.858182 441 
L 758.061818 441 
L 758.061818 441 
L 743.858182 441 
z
" style="fill:#1f77b4;opacity:0.7;"/>
   </g>
   <g id="patch_45">
    <path clip-path="url(#p28892b9fac)" d="M 758.061818 441 
L 772.265455 441 
L 772.265455 441 
L 758.061818 441 
z
" style="fill:#1f77b4;opacity:0.7;"/>
   </g>
   <g id="patch_46">
    <path clip-path="url(#p28892b9fac)" d="M 772.265455 441 
L 786.469091 441 
L 786.469091 441 
L 772.265455 441 
z
" style="fill:#1f77b4;opacity:0.7;"/>
   </g>
   <g id="patch_47">
    <path clip-path="url(#p28892b9fac)" d="M 786.469091 441 
L 800.672727 441 
L 800.672727 441 
L 786.469091 441 
z
" style="fill:#1f77b4;opacity:0.7;"/>
   </g>
   <g id="patch_48">
    <path clip-path="url(#p28892b9fac)" d="M 800.672727 441 
L 814.876364 441 
L 814.876364 441 
L 800.672727 441 
z
" style="fill:#1f77b4;opacity:0.7;"/>
   </g>
   <g id="patch_49">
    <path clip-path="url(#p28892b9fac)" d="M 814.876364 441 
L 829.08 441 
L 829.08 441 
L 814.876364 441 
z
" style="fill:#1f77b4;opacity:0.7;"/>
   </g>
   <g id="patch_50">
    <path clip-path="url(#p28892b9fac)" d="M 829.08 441 
L 843.283636 441 
L 843.283636 441 
L 829.08 441 
z
" style="fill:#1f77b4;opacity:0.7;"/>
   </g>
   <g id="patch_51">
    <path clip-path="url(#p28892b9fac)" d="M 843.283636 441 
L 857.487273 441 
L 857.487273 441 
L 843.283636 441 
z
" style="fill:#1f77b4;opacity:0.7;"/>
   </g>
   <g id="patch_52">
    <path clip-path="url(#p28892b9fac)" d="M 857.487273 441 
L 871.690909 441 
L 871.690909 441 
L 857.487273 441 
z
" style="fill:#1f77b4;opacity:0.7;"/>
   </g>
   <g id="patch_53">
    <path clip-path="url(#p28892b9fac)" d="M 161.509091 441 
L 175.712727 441 
L 175.712727 441 
L 161.509091 441 
z
" style="fill:#ff7f0e;opacity:0.7;"/>
   </g>
   <g id="patch_54">
    <path clip-path="url(#p28892b9fac)" d="M 175.712727 441 
L 189.916364 441 
L 189.916364 441 
L 175.712727 441 
z
" style="fill:#ff7f0e;opacity:0.7;"/>
   </g>
   <g id="patch_55">
    <path clip-path="url(#p28892b9fac)" d="M 189.916364 441 
L 204.12 441 
L 204.12 441 
L 189.916364 441 
z
" style="fill:#ff7f0e;opacity:0.7;"/>
   </g>
   <g id="patch_56">
    <path clip-path="url(#p28892b9fac)" d="M 204.12 441 
L 218.323636 441 
L 218.323636 441 
L 204.12 441 
z
" style="fill:#ff7f0e;opacity:0.7;"/>
   </g>
   <g id="patch_57">
    <path clip-path="url(#p28892b9fac)" d="M 218.323636 441 
L 232.527273 441 
L 232.527273 441 
L 218.323636 441 
z
" style="fill:#ff7f0e;opacity:0.7;"/>
   </g>
   <g id="patch_58">
    <path clip-path="url(#p28892b9fac)" d="M 232.527273 441 
L 246.730909 441 
L 246.730909 441 
L 232.527273 441 
z
" style="fill:#ff7f0e;opacity:0.7;"/>
   </g>
   <g id="patch_59">
    <path clip-path="url(#p28892b9fac)" d="M 246.730909 441 
L 260.934545 441 
L 260.934545 440.810757 
L 246.730909 440.810757 
z
" style="fill:#ff7f0e;opacity:0.7;"/>
   </g>
   <g id="patch_60">
    <path clip-path="url(#p28892b9fac)" d="M 260.934545 441 
L 275.138182 441 
L 275.138182 440.432272 
L 260.934545 440.432272 
z
" style="fill:#ff7f0e;opacity:0.7;"/>
   </g>
   <g id="patch_61">
    <path clip-path="url(#p28892b9fac)" d="M 275.138182 441 
L 289.341818 441 
L 289.341818 440.243029 
L 275.138182 440.243029 
z
" style="fill:#ff7f0e;opacity:0.7;"/>
   </g>
   <g id="patch_62">
    <path clip-path="url(#p28892b9fac)" d="M 289.341818 441 
L 303.545455 441 
L 303.545455 440.053786 
L 289.341818 440.053786 
z
" style="fill:#ff7f0e;opacity:0.7;"/>
   </g>
   <g id="patch_63">
    <path clip-path="url(#p28892b9fac)" d="M 303.545455 441 
L 317.749091 441 
L 317.749091 438.350601 
L 303.545455 438.350601 
z
" style="fill:#ff7f0e;opacity:0.7;"/>
   </g>
   <g id="patch_64">
    <path clip-path="url(#p28892b9fac)" d="M 317.749091 441 
L 331.952727 441 
L 331.952727 437.593629 
L 317.749091 437.593629 
z
" style="fill:#ff7f0e;opacity:0.7;"/>
   </g>
   <g id="patch_65">
    <path clip-path="url(#p28892b9fac)" d="M 331.952727 441 
L 346.156364 441 
L 346.156364 435.322715 
L 331.952727 435.322715 
z
" style="fill:#ff7f0e;opacity:0.7;"/>
   </g>
   <g id="patch_66">
    <path clip-path="url(#p28892b9fac)" d="M 346.156364 441 
L 360.36 441 
L 360.36 433.61953 
L 346.156364 433.61953 
z
" style="fill:#ff7f0e;opacity:0.7;"/>
   </g>
   <g id="patch_67">
    <path clip-path="url(#p28892b9fac)" d="M 360.36 441 
L 374.563636 441 
L 374.563636 424.157389 
L 360.36 424.157389 
z
" style="fill:#ff7f0e;opacity:0.7;"/>
   </g>
   <g id="patch_68">
    <path clip-path="url(#p28892b9fac)" d="M 374.563636 441 
L 388.767273 441 
L 388.767273 413.181305 
L 374.563636 413.181305 
z
" style="fill:#ff7f0e;opacity:0.7;"/>
   </g>
   <g id="patch_69">
    <path clip-path="url(#p28892b9fac)" d="M 388.767273 441 
L 402.970909 441 
L 402.970909 401.448251 
L 388.767273 401.448251 
z
" style="fill:#ff7f0e;opacity:0.7;"/>
   </g>
   <g id="patch_70">
    <path clip-path="url(#p28892b9fac)" d="M 402.970909 441 
L 417.174545 441 
L 417.174545 389.904439 
L 402.970909 389.904439 
z
" style="fill:#ff7f0e;opacity:0.7;"/>
   </g>
   <g id="patch_71">
    <path clip-path="url(#p28892b9fac)" d="M 417.174545 441 
L 431.378182 441 
L 431.378182 371.926371 
L 417.174545 371.926371 
z
" style="fill:#ff7f0e;opacity:0.7;"/>
   </g>
   <g id="patch_72">
    <path clip-path="url(#p28892b9fac)" d="M 431.378182 441 
L 445.581818 441 
L 445.581818 341.079791 
L 431.378182 341.079791 
z
" style="fill:#ff7f0e;opacity:0.7;"/>
   </g>
   <g id="patch_73">
    <path clip-path="url(#p28892b9fac)" d="M 445.581818 441 
L 459.785455 441 
L 459.785455 307.962298 
L 445.581818 307.962298 
z
" style="fill:#ff7f0e;opacity:0.7;"/>
   </g>
   <g id="patch_74">
    <path clip-path="url(#p28892b9fac)" d="M 459.785455 441 
L 473.989091 441 
L 473.989091 279.95436 
L 459.785455 279.95436 
z
" style="fill:#ff7f0e;opacity:0.7;"/>
   </g>
   <g id="patch_75">
    <path clip-path="url(#p28892b9fac)" d="M 473.989091 441 
L 488.192727 441 
L 488.192727 251.567937 
L 473.989091 251.567937 
z
" style="fill:#ff7f0e;opacity:0.7;"/>
   </g>
   <g id="patch_76">
    <path clip-path="url(#p28892b9fac)" d="M 488.192727 441 
L 502.396364 441 
L 502.396364 197.444491 
L 488.192727 197.444491 
z
" style="fill:#ff7f0e;opacity:0.7;"/>
   </g>
   <g id="patch_77">
    <path clip-path="url(#p28892b9fac)" d="M 502.396364 441 
L 516.6 441 
L 516.6 180.034151 
L 502.396364 180.034151 
z
" style="fill:#ff7f0e;opacity:0.7;"/>
   </g>
   <g id="patch_78">
    <path clip-path="url(#p28892b9fac)" d="M 516.6 441 
L 530.803636 441 
L 530.803636 149.7553 
L 516.6 149.7553 
z
" style="fill:#ff7f0e;opacity:0.7;"/>
   </g>
   <g id="patch_79">
    <path clip-path="url(#p28892b9fac)" d="M 530.803636 441 
L 545.007273 441 
L 545.007273 127.046162 
L 530.803636 127.046162 
z
" style="fill:#ff7f0e;opacity:0.7;"/>
   </g>
   <g id="patch_80">
    <path clip-path="url(#p28892b9fac)" d="M 545.007273 441 
L 559.210909 441 
L 559.210909 97.713525 
L 545.007273 97.713525 
z
" style="fill:#ff7f0e;opacity:0.7;"/>
   </g>
   <g id="patch_81">
    <path clip-path="url(#p28892b9fac)" d="M 559.210909 441 
L 573.414545 441 
L 573.414545 118.340992 
L 559.210909 118.340992 
z
" style="fill:#ff7f0e;opacity:0.7;"/>
   </g>
   <g id="patch_82">
    <path clip-path="url(#p28892b9fac)" d="M 573.414545 441 
L 587.618182 441 
L 587.618182 101.876867 
L 573.414545 101.876867 
z
" style="fill:#ff7f0e;opacity:0.7;"/>
   </g>
   <g id="patch_83">
    <path clip-path="url(#p28892b9fac)" d="M 587.618182 441 
L 601.821818 441 
L 601.821818 131.020261 
L 587.618182 131.020261 
z
" style="fill:#ff7f0e;opacity:0.7;"/>
   </g>
   <g id="patch_84">
    <path clip-path="url(#p28892b9fac)" d="M 601.821818 441 
L 616.025455 441 
L 616.025455 156.000313 
L 601.821818 156.000313 
z
" style="fill:#ff7f0e;opacity:0.7;"/>
   </g>
   <g id="patch_85">
    <path clip-path="url(#p28892b9fac)" d="M 616.025455 441 
L 630.229091 441 
L 630.229091 193.470392 
L 616.025455 193.470392 
z
" style="fill:#ff7f0e;opacity:0.7;"/>
   </g>
   <g id="patch_86">
    <path clip-path="url(#p28892b9fac)" d="M 630.229091 441 
L 644.432727 441 
L 644.432727 218.639687 
L 630.229091 218.639687 
z
" style="fill:#ff7f0e;opacity:0.7;"/>
   </g>
   <g id="patch_87">
    <path clip-path="url(#p28892b9fac)" d="M 644.432727 441 
L 658.636364 441 
L 658.636364 259.326893 
L 644.432727 259.326893 
z
" style="fill:#ff7f0e;opacity:0.7;"/>
   </g>
   <g id="patch_88">
    <path clip-path="url(#p28892b9fac)" d="M 658.636364 441 
L 672.84 441 
L 672.84 290.741201 
L 658.636364 290.741201 
z
" style="fill:#ff7f0e;opacity:0.7;"/>
   </g>
   <g id="patch_89">
    <path clip-path="url(#p28892b9fac)" d="M 672.84 441 
L 687.043636 441 
L 687.043636 320.263081 
L 672.84 320.263081 
z
" style="fill:#ff7f0e;opacity:0.7;"/>
   </g>
   <g id="patch_90">
    <path clip-path="url(#p28892b9fac)" d="M 687.043636 441 
L 701.247273 441 
L 701.247273 345.05389 
L 687.043636 345.05389 
z
" style="fill:#ff7f0e;opacity:0.7;"/>
   </g>
   <g id="patch_91">
    <path clip-path="url(#p28892b9fac)" d="M 701.247273 441 
L 715.450909 441 
L 715.450909 372.872585 
L 701.247273 372.872585 
z
" style="fill:#ff7f0e;opacity:0.7;"/>
   </g>
   <g id="patch_92">
    <path clip-path="url(#p28892b9fac)" d="M 715.450909 441 
L 729.654545 441 
L 729.654545 397.852637 
L 715.450909 397.852637 
z
" style="fill:#ff7f0e;opacity:0.7;"/>
   </g>
   <g id="patch_93">
    <path clip-path="url(#p28892b9fac)" d="M 729.654545 441 
L 743.858182 441 
L 743.858182 410.531906 
L 729.654545 410.531906 
z
" style="fill:#ff7f0e;opacity:0.7;"/>
   </g>
   <g id="patch_94">
    <path clip-path="url(#p28892b9fac)" d="M 743.858182 441 
L 758.061818 441 
L 758.061818 423.211175 
L 743.858182 423.211175 
z
" style="fill:#ff7f0e;opacity:0.7;"/>
   </g>
   <g id="patch_95">
    <path clip-path="url(#p28892b9fac)" d="M 758.061818 441 
L 772.265455 441 
L 772.265455 428.509974 
L 758.061818 428.509974 
z
" style="fill:#ff7f0e;opacity:0.7;"/>
   </g>
   <g id="patch_96">
    <path clip-path="url(#p28892b9fac)" d="M 772.265455 441 
L 786.469091 441 
L 786.469091 432.673316 
L 772.265455 432.673316 
z
" style="fill:#ff7f0e;opacity:0.7;"/>
   </g>
   <g id="patch_97">
    <path clip-path="url(#p28892b9fac)" d="M 786.469091 441 
L 800.672727 441 
L 800.672727 435.511958 
L 786.469091 435.511958 
z
" style="fill:#ff7f0e;opacity:0.7;"/>
   </g>
   <g id="patch_98">
    <path clip-path="url(#p28892b9fac)" d="M 800.672727 441 
L 814.876364 441 
L 814.876364 437.782872 
L 800.672727 437.782872 
z
" style="fill:#ff7f0e;opacity:0.7;"/>
   </g>
   <g id="patch_99">
    <path clip-path="url(#p28892b9fac)" d="M 814.876364 441 
L 829.08 441 
L 829.08 438.729086 
L 814.876364 438.729086 
z
" style="fill:#ff7f0e;opacity:0.7;"/>
   </g>
   <g id="patch_100">
    <path clip-path="url(#p28892b9fac)" d="M 829.08 441 
L 843.283636 441 
L 843.283636 439.6753 
L 829.08 439.6753 
z
" style="fill:#ff7f0e;opacity:0.7;"/>
   </g>
   <g id="patch_101">
    <path clip-path="url(#p28892b9fac)" d="M 843.283636 441 
L 857.487273 441 
L 857.487273 440.810757 
L 843.283636 440.810757 
z
" style="fill:#ff7f0e;opacity:0.7;"/>
   </g>
   <g id="patch_102">
    <path clip-path="url(#p28892b9fac)" d="M 857.487273 441 
L 871.690909 441 
L 871.690909 440.432272 
L 857.487273 440.432272 
z
" style="fill:#ff7f0e;opacity:0.7;"/>
   </g>
   <g id="matplotlib.axis_1">
    <g id="xtick_1">
     <g id="line2d_1">
      <defs>
       <path d="M 0 0 
L 0 3.5 
" id="m30a074984b" style="stroke:#000000;stroke-width:0.8;"/>
      </defs>
      <g>
       <use style="stroke:#000000;stroke-width:0.8;" x="141.616276" xlink:href="#m30a074984b" y="441"/>
      </g>
     </g>
     <g id="text_1">
      <!-- −14 -->
      <defs>
       <path d="M 10.59375 35.5 
L 73.1875 35.5 
L 73.1875 27.203125 
L 10.59375 27.203125 
z
" id="DejaVuSans-8722"/>
       <path d="M 12.40625 8.296875 
L 28.515625 8.296875 
L 28.515625 63.921875 
L 10.984375 60.40625 
L 10.984375 69.390625 
L 28.421875 72.90625 
L 38.28125 72.90625 
L 38.28125 8.296875 
L 54.390625 8.296875 
L 54.390625 0 
L 12.40625 0 
z
" id="DejaVuSans-49"/>
       <path d="M 37.796875 64.3125 
L 12.890625 25.390625 
L 37.796875 25.390625 
z
M 35.203125 72.90625 
L 47.609375 72.90625 
L 47.609375 25.390625 
L 58.015625 25.390625 
L 58.015625 17.1875 
L 47.609375 17.1875 
L 47.609375 0 
L 37.796875 0 
L 37.796875 17.1875 
L 4.890625 17.1875 
L 4.890625 26.703125 
z
" id="DejaVuSans-52"/>
      </defs>
      <g transform="translate(131.063932 455.598437)scale(0.1 -0.1)">
       <use xlink:href="#DejaVuSans-8722"/>
       <use x="83.789062" xlink:href="#DejaVuSans-49"/>
       <use x="147.412109" xlink:href="#DejaVuSans-52"/>
      </g>
     </g>
    </g>
    <g id="xtick_2">
     <g id="line2d_2">
      <g>
       <use style="stroke:#000000;stroke-width:0.8;" x="300.431643" xlink:href="#m30a074984b" y="441"/>
      </g>
     </g>
     <g id="text_2">
      <!-- −12 -->
      <defs>
       <path d="M 19.1875 8.296875 
L 53.609375 8.296875 
L 53.609375 0 
L 7.328125 0 
L 7.328125 8.296875 
Q 12.9375 14.109375 22.625 23.890625 
Q 32.328125 33.6875 34.8125 36.53125 
Q 39.546875 41.84375 41.421875 45.53125 
Q 43.3125 49.21875 43.3125 52.78125 
Q 43.3125 58.59375 39.234375 62.25 
Q 35.15625 65.921875 28.609375 65.921875 
Q 23.96875 65.921875 18.8125 64.3125 
Q 13.671875 62.703125 7.8125 59.421875 
L 7.8125 69.390625 
Q 13.765625 71.78125 18.9375 73 
Q 24.125 74.21875 28.421875 74.21875 
Q 39.75 74.21875 46.484375 68.546875 
Q 53.21875 62.890625 53.21875 53.421875 
Q 53.21875 48.921875 51.53125 44.890625 
Q 49.859375 40.875 45.40625 35.40625 
Q 44.1875 33.984375 37.640625 27.21875 
Q 31.109375 20.453125 19.1875 8.296875 
z
" id="DejaVuSans-50"/>
      </defs>
      <g transform="translate(289.879299 455.598437)scale(0.1 -0.1)">
       <use xlink:href="#DejaVuSans-8722"/>
       <use x="83.789062" xlink:href="#DejaVuSans-49"/>
       <use x="147.412109" xlink:href="#DejaVuSans-50"/>
      </g>
     </g>
    </g>
    <g id="xtick_3">
     <g id="line2d_3">
      <g>
       <use style="stroke:#000000;stroke-width:0.8;" x="459.247009" xlink:href="#m30a074984b" y="441"/>
      </g>
     </g>
     <g id="text_3">
      <!-- −10 -->
      <defs>
       <path d="M 31.78125 66.40625 
Q 24.171875 66.40625 20.328125 58.90625 
Q 16.5 51.421875 16.5 36.375 
Q 16.5 21.390625 20.328125 13.890625 
Q 24.171875 6.390625 31.78125 6.390625 
Q 39.453125 6.390625 43.28125 13.890625 
Q 47.125 21.390625 47.125 36.375 
Q 47.125 51.421875 43.28125 58.90625 
Q 39.453125 66.40625 31.78125 66.40625 
z
M 31.78125 74.21875 
Q 44.046875 74.21875 50.515625 64.515625 
Q 56.984375 54.828125 56.984375 36.375 
Q 56.984375 17.96875 50.515625 8.265625 
Q 44.046875 -1.421875 31.78125 -1.421875 
Q 19.53125 -1.421875 13.0625 8.265625 
Q 6.59375 17.96875 6.59375 36.375 
Q 6.59375 54.828125 13.0625 64.515625 
Q 19.53125 74.21875 31.78125 74.21875 
z
" id="DejaVuSans-48"/>
      </defs>
      <g transform="translate(448.694665 455.598437)scale(0.1 -0.1)">
       <use xlink:href="#DejaVuSans-8722"/>
       <use x="83.789062" xlink:href="#DejaVuSans-49"/>
       <use x="147.412109" xlink:href="#DejaVuSans-48"/>
      </g>
     </g>
    </g>
    <g id="xtick_4">
     <g id="line2d_4">
      <g>
       <use style="stroke:#000000;stroke-width:0.8;" x="618.062376" xlink:href="#m30a074984b" y="441"/>
      </g>
     </g>
     <g id="text_4">
      <!-- −8 -->
      <defs>
       <path d="M 31.78125 34.625 
Q 24.75 34.625 20.71875 30.859375 
Q 16.703125 27.09375 16.703125 20.515625 
Q 16.703125 13.921875 20.71875 10.15625 
Q 24.75 6.390625 31.78125 6.390625 
Q 38.8125 6.390625 42.859375 10.171875 
Q 46.921875 13.96875 46.921875 20.515625 
Q 46.921875 27.09375 42.890625 30.859375 
Q 38.875 34.625 31.78125 34.625 
z
M 21.921875 38.8125 
Q 15.578125 40.375 12.03125 44.71875 
Q 8.5 49.078125 8.5 55.328125 
Q 8.5 64.0625 14.71875 69.140625 
Q 20.953125 74.21875 31.78125 74.21875 
Q 42.671875 74.21875 48.875 69.140625 
Q 55.078125 64.0625 55.078125 55.328125 
Q 55.078125 49.078125 51.53125 44.71875 
Q 48 40.375 41.703125 38.8125 
Q 48.828125 37.15625 52.796875 32.3125 
Q 56.78125 27.484375 56.78125 20.515625 
Q 56.78125 9.90625 50.3125 4.234375 
Q 43.84375 -1.421875 31.78125 -1.421875 
Q 19.734375 -1.421875 13.25 4.234375 
Q 6.78125 9.90625 6.78125 20.515625 
Q 6.78125 27.484375 10.78125 32.3125 
Q 14.796875 37.15625 21.921875 38.8125 
z
M 18.3125 54.390625 
Q 18.3125 48.734375 21.84375 45.5625 
Q 25.390625 42.390625 31.78125 42.390625 
Q 38.140625 42.390625 41.71875 45.5625 
Q 45.3125 48.734375 45.3125 54.390625 
Q 45.3125 60.0625 41.71875 63.234375 
Q 38.140625 66.40625 31.78125 66.40625 
Q 25.390625 66.40625 21.84375 63.234375 
Q 18.3125 60.0625 18.3125 54.390625 
z
" id="DejaVuSans-56"/>
      </defs>
      <g transform="translate(610.691282 455.598437)scale(0.1 -0.1)">
       <use xlink:href="#DejaVuSans-8722"/>
       <use x="83.789062" xlink:href="#DejaVuSans-56"/>
      </g>
     </g>
    </g>
    <g id="xtick_5">
     <g id="line2d_5">
      <g>
       <use style="stroke:#000000;stroke-width:0.8;" x="776.877742" xlink:href="#m30a074984b" y="441"/>
      </g>
     </g>
     <g id="text_5">
      <!-- −6 -->
      <defs>
       <path d="M 33.015625 40.375 
Q 26.375 40.375 22.484375 35.828125 
Q 18.609375 31.296875 18.609375 23.390625 
Q 18.609375 15.53125 22.484375 10.953125 
Q 26.375 6.390625 33.015625 6.390625 
Q 39.65625 6.390625 43.53125 10.953125 
Q 47.40625 15.53125 47.40625 23.390625 
Q 47.40625 31.296875 43.53125 35.828125 
Q 39.65625 40.375 33.015625 40.375 
z
M 52.59375 71.296875 
L 52.59375 62.3125 
Q 48.875 64.0625 45.09375 64.984375 
Q 41.3125 65.921875 37.59375 65.921875 
Q 27.828125 65.921875 22.671875 59.328125 
Q 17.53125 52.734375 16.796875 39.40625 
Q 19.671875 43.65625 24.015625 45.921875 
Q 28.375 48.1875 33.59375 48.1875 
Q 44.578125 48.1875 50.953125 41.515625 
Q 57.328125 34.859375 57.328125 23.390625 
Q 57.328125 12.15625 50.6875 5.359375 
Q 44.046875 -1.421875 33.015625 -1.421875 
Q 20.359375 -1.421875 13.671875 8.265625 
Q 6.984375 17.96875 6.984375 36.375 
Q 6.984375 53.65625 15.1875 63.9375 
Q 23.390625 74.21875 37.203125 74.21875 
Q 40.921875 74.21875 44.703125 73.484375 
Q 48.484375 72.75 52.59375 71.296875 
z
" id="DejaVuSans-54"/>
      </defs>
      <g transform="translate(769.506648 455.598437)scale(0.1 -0.1)">
       <use xlink:href="#DejaVuSans-8722"/>
       <use x="83.789062" xlink:href="#DejaVuSans-54"/>
      </g>
     </g>
    </g>
    <g id="text_6">
     <!-- Control Point [m] -->
     <defs>
      <path d="M 64.40625 67.28125 
L 64.40625 56.890625 
Q 59.421875 61.53125 53.78125 63.8125 
Q 48.140625 66.109375 41.796875 66.109375 
Q 29.296875 66.109375 22.65625 58.46875 
Q 16.015625 50.828125 16.015625 36.375 
Q 16.015625 21.96875 22.65625 14.328125 
Q 29.296875 6.6875 41.796875 6.6875 
Q 48.140625 6.6875 53.78125 8.984375 
Q 59.421875 11.28125 64.40625 15.921875 
L 64.40625 5.609375 
Q 59.234375 2.09375 53.4375 0.328125 
Q 47.65625 -1.421875 41.21875 -1.421875 
Q 24.65625 -1.421875 15.125 8.703125 
Q 5.609375 18.84375 5.609375 36.375 
Q 5.609375 53.953125 15.125 64.078125 
Q 24.65625 74.21875 41.21875 74.21875 
Q 47.75 74.21875 53.53125 72.484375 
Q 59.328125 70.75 64.40625 67.28125 
z
" id="DejaVuSans-67"/>
      <path d="M 30.609375 48.390625 
Q 23.390625 48.390625 19.1875 42.75 
Q 14.984375 37.109375 14.984375 27.296875 
Q 14.984375 17.484375 19.15625 11.84375 
Q 23.34375 6.203125 30.609375 6.203125 
Q 37.796875 6.203125 41.984375 11.859375 
Q 46.1875 17.53125 46.1875 27.296875 
Q 46.1875 37.015625 41.984375 42.703125 
Q 37.796875 48.390625 30.609375 48.390625 
z
M 30.609375 56 
Q 42.328125 56 49.015625 48.375 
Q 55.71875 40.765625 55.71875 27.296875 
Q 55.71875 13.875 49.015625 6.21875 
Q 42.328125 -1.421875 30.609375 -1.421875 
Q 18.84375 -1.421875 12.171875 6.21875 
Q 5.515625 13.875 5.515625 27.296875 
Q 5.515625 40.765625 12.171875 48.375 
Q 18.84375 56 30.609375 56 
z
" id="DejaVuSans-111"/>
      <path d="M 54.890625 33.015625 
L 54.890625 0 
L 45.90625 0 
L 45.90625 32.71875 
Q 45.90625 40.484375 42.875 44.328125 
Q 39.84375 48.1875 33.796875 48.1875 
Q 26.515625 48.1875 22.3125 43.546875 
Q 18.109375 38.921875 18.109375 30.90625 
L 18.109375 0 
L 9.078125 0 
L 9.078125 54.6875 
L 18.109375 54.6875 
L 18.109375 46.1875 
Q 21.34375 51.125 25.703125 53.5625 
Q 30.078125 56 35.796875 56 
Q 45.21875 56 50.046875 50.171875 
Q 54.890625 44.34375 54.890625 33.015625 
z
" id="DejaVuSans-110"/>
      <path d="M 18.3125 70.21875 
L 18.3125 54.6875 
L 36.8125 54.6875 
L 36.8125 47.703125 
L 18.3125 47.703125 
L 18.3125 18.015625 
Q 18.3125 11.328125 20.140625 9.421875 
Q 21.96875 7.515625 27.59375 7.515625 
L 36.8125 7.515625 
L 36.8125 0 
L 27.59375 0 
Q 17.1875 0 13.234375 3.875 
Q 9.28125 7.765625 9.28125 18.015625 
L 9.28125 47.703125 
L 2.6875 47.703125 
L 2.6875 54.6875 
L 9.28125 54.6875 
L 9.28125 70.21875 
z
" id="DejaVuSans-116"/>
      <path d="M 41.109375 46.296875 
Q 39.59375 47.171875 37.8125 47.578125 
Q 36.03125 48 33.890625 48 
Q 26.265625 48 22.1875 43.046875 
Q 18.109375 38.09375 18.109375 28.8125 
L 18.109375 0 
L 9.078125 0 
L 9.078125 54.6875 
L 18.109375 54.6875 
L 18.109375 46.1875 
Q 20.953125 51.171875 25.484375 53.578125 
Q 30.03125 56 36.53125 56 
Q 37.453125 56 38.578125 55.875 
Q 39.703125 55.765625 41.0625 55.515625 
z
" id="DejaVuSans-114"/>
      <path d="M 9.421875 75.984375 
L 18.40625 75.984375 
L 18.40625 0 
L 9.421875 0 
z
" id="DejaVuSans-108"/>
      <path id="DejaVuSans-32"/>
      <path d="M 19.671875 64.796875 
L 19.671875 37.40625 
L 32.078125 37.40625 
Q 38.96875 37.40625 42.71875 40.96875 
Q 46.484375 44.53125 46.484375 51.125 
Q 46.484375 57.671875 42.71875 61.234375 
Q 38.96875 64.796875 32.078125 64.796875 
z
M 9.8125 72.90625 
L 32.078125 72.90625 
Q 44.34375 72.90625 50.609375 67.359375 
Q 56.890625 61.8125 56.890625 51.125 
Q 56.890625 40.328125 50.609375 34.8125 
Q 44.34375 29.296875 32.078125 29.296875 
L 19.671875 29.296875 
L 19.671875 0 
L 9.8125 0 
z
" id="DejaVuSans-80"/>
      <path d="M 9.421875 54.6875 
L 18.40625 54.6875 
L 18.40625 0 
L 9.421875 0 
z
M 9.421875 75.984375 
L 18.40625 75.984375 
L 18.40625 64.59375 
L 9.421875 64.59375 
z
" id="DejaVuSans-105"/>
      <path d="M 8.59375 75.984375 
L 29.296875 75.984375 
L 29.296875 69 
L 17.578125 69 
L 17.578125 -6.203125 
L 29.296875 -6.203125 
L 29.296875 -13.1875 
L 8.59375 -13.1875 
z
" id="DejaVuSans-91"/>
      <path d="M 52 44.1875 
Q 55.375 50.25 60.0625 53.125 
Q 64.75 56 71.09375 56 
Q 79.640625 56 84.28125 50.015625 
Q 88.921875 44.046875 88.921875 33.015625 
L 88.921875 0 
L 79.890625 0 
L 79.890625 32.71875 
Q 79.890625 40.578125 77.09375 44.375 
Q 74.3125 48.1875 68.609375 48.1875 
Q 61.625 48.1875 57.5625 43.546875 
Q 53.515625 38.921875 53.515625 30.90625 
L 53.515625 0 
L 44.484375 0 
L 44.484375 32.71875 
Q 44.484375 40.625 41.703125 44.40625 
Q 38.921875 48.1875 33.109375 48.1875 
Q 26.21875 48.1875 22.15625 43.53125 
Q 18.109375 38.875 18.109375 30.90625 
L 18.109375 0 
L 9.078125 0 
L 9.078125 54.6875 
L 18.109375 54.6875 
L 18.109375 46.1875 
Q 21.1875 51.21875 25.484375 53.609375 
Q 29.78125 56 35.6875 56 
Q 41.65625 56 45.828125 52.96875 
Q 50 49.953125 52 44.1875 
z
" id="DejaVuSans-109"/>
      <path d="M 30.421875 75.984375 
L 30.421875 -13.1875 
L 9.71875 -13.1875 
L 9.71875 -6.203125 
L 21.390625 -6.203125 
L 21.390625 69 
L 9.71875 69 
L 9.71875 75.984375 
z
" id="DejaVuSans-93"/>
     </defs>
     <g transform="translate(474.167969 469.276563)scale(0.1 -0.1)">
      <use xlink:href="#DejaVuSans-67"/>
      <use x="69.824219" xlink:href="#DejaVuSans-111"/>
      <use x="131.005859" xlink:href="#DejaVuSans-110"/>
      <use x="194.384766" xlink:href="#DejaVuSans-116"/>
      <use x="233.59375" xlink:href="#DejaVuSans-114"/>
      <use x="272.457031" xlink:href="#DejaVuSans-111"/>
      <use x="333.638672" xlink:href="#DejaVuSans-108"/>
      <use x="361.421875" xlink:href="#DejaVuSans-32"/>
      <use x="393.208984" xlink:href="#DejaVuSans-80"/>
      <use x="449.886719" xlink:href="#DejaVuSans-111"/>
      <use x="511.068359" xlink:href="#DejaVuSans-105"/>
      <use x="538.851562" xlink:href="#DejaVuSans-110"/>
      <use x="602.230469" xlink:href="#DejaVuSans-116"/>
      <use x="641.439453" xlink:href="#DejaVuSans-32"/>
      <use x="673.226562" xlink:href="#DejaVuSans-91"/>
      <use x="712.240234" xlink:href="#DejaVuSans-109"/>
      <use x="809.652344" xlink:href="#DejaVuSans-93"/>
     </g>
    </g>
   </g>
   <g id="matplotlib.axis_2">
    <g id="ytick_1">
     <g id="line2d_6">
      <defs>
       <path d="M 0 0 
L -3.5 0 
" id="m7746dd5220" style="stroke:#000000;stroke-width:0.8;"/>
      </defs>
      <g>
       <use style="stroke:#000000;stroke-width:0.8;" x="126" xlink:href="#m7746dd5220" y="441"/>
      </g>
     </g>
     <g id="text_7">
      <!-- 0.00 -->
      <defs>
       <path d="M 10.6875 12.40625 
L 21 12.40625 
L 21 0 
L 10.6875 0 
z
" id="DejaVuSans-46"/>
      </defs>
      <g transform="translate(96.734375 444.799219)scale(0.1 -0.1)">
       <use xlink:href="#DejaVuSans-48"/>
       <use x="63.623047" xlink:href="#DejaVuSans-46"/>
       <use x="95.410156" xlink:href="#DejaVuSans-48"/>
       <use x="159.033203" xlink:href="#DejaVuSans-48"/>
      </g>
     </g>
    </g>
    <g id="ytick_2">
     <g id="line2d_7">
      <g>
       <use style="stroke:#000000;stroke-width:0.8;" x="126" xlink:href="#m7746dd5220" y="398.687719"/>
      </g>
     </g>
     <g id="text_8">
      <!-- 0.05 -->
      <defs>
       <path d="M 10.796875 72.90625 
L 49.515625 72.90625 
L 49.515625 64.59375 
L 19.828125 64.59375 
L 19.828125 46.734375 
Q 21.96875 47.46875 24.109375 47.828125 
Q 26.265625 48.1875 28.421875 48.1875 
Q 40.625 48.1875 47.75 41.5 
Q 54.890625 34.8125 54.890625 23.390625 
Q 54.890625 11.625 47.5625 5.09375 
Q 40.234375 -1.421875 26.90625 -1.421875 
Q 22.3125 -1.421875 17.546875 -0.640625 
Q 12.796875 0.140625 7.71875 1.703125 
L 7.71875 11.625 
Q 12.109375 9.234375 16.796875 8.0625 
Q 21.484375 6.890625 26.703125 6.890625 
Q 35.15625 6.890625 40.078125 11.328125 
Q 45.015625 15.765625 45.015625 23.390625 
Q 45.015625 31 40.078125 35.4375 
Q 35.15625 39.890625 26.703125 39.890625 
Q 22.75 39.890625 18.8125 39.015625 
Q 14.890625 38.140625 10.796875 36.28125 
z
" id="DejaVuSans-53"/>
      </defs>
      <g transform="translate(96.734375 402.486937)scale(0.1 -0.1)">
       <use xlink:href="#DejaVuSans-48"/>
       <use x="63.623047" xlink:href="#DejaVuSans-46"/>
       <use x="95.410156" xlink:href="#DejaVuSans-48"/>
       <use x="159.033203" xlink:href="#DejaVuSans-53"/>
      </g>
     </g>
    </g>
    <g id="ytick_3">
     <g id="line2d_8">
      <g>
       <use style="stroke:#000000;stroke-width:0.8;" x="126" xlink:href="#m7746dd5220" y="356.375437"/>
      </g>
     </g>
     <g id="text_9">
      <!-- 0.10 -->
      <g transform="translate(96.734375 360.174656)scale(0.1 -0.1)">
       <use xlink:href="#DejaVuSans-48"/>
       <use x="63.623047" xlink:href="#DejaVuSans-46"/>
       <use x="95.410156" xlink:href="#DejaVuSans-49"/>
       <use x="159.033203" xlink:href="#DejaVuSans-48"/>
      </g>
     </g>
    </g>
    <g id="ytick_4">
     <g id="line2d_9">
      <g>
       <use style="stroke:#000000;stroke-width:0.8;" x="126" xlink:href="#m7746dd5220" y="314.063156"/>
      </g>
     </g>
     <g id="text_10">
      <!-- 0.15 -->
      <g transform="translate(96.734375 317.862374)scale(0.1 -0.1)">
       <use xlink:href="#DejaVuSans-48"/>
       <use x="63.623047" xlink:href="#DejaVuSans-46"/>
       <use x="95.410156" xlink:href="#DejaVuSans-49"/>
       <use x="159.033203" xlink:href="#DejaVuSans-53"/>
      </g>
     </g>
    </g>
    <g id="ytick_5">
     <g id="line2d_10">
      <g>
       <use style="stroke:#000000;stroke-width:0.8;" x="126" xlink:href="#m7746dd5220" y="271.750874"/>
      </g>
     </g>
     <g id="text_11">
      <!-- 0.20 -->
      <g transform="translate(96.734375 275.550093)scale(0.1 -0.1)">
       <use xlink:href="#DejaVuSans-48"/>
       <use x="63.623047" xlink:href="#DejaVuSans-46"/>
       <use x="95.410156" xlink:href="#DejaVuSans-50"/>
       <use x="159.033203" xlink:href="#DejaVuSans-48"/>
      </g>
     </g>
    </g>
    <g id="ytick_6">
     <g id="line2d_11">
      <g>
       <use style="stroke:#000000;stroke-width:0.8;" x="126" xlink:href="#m7746dd5220" y="229.438593"/>
      </g>
     </g>
     <g id="text_12">
      <!-- 0.25 -->
      <g transform="translate(96.734375 233.237811)scale(0.1 -0.1)">
       <use xlink:href="#DejaVuSans-48"/>
       <use x="63.623047" xlink:href="#DejaVuSans-46"/>
       <use x="95.410156" xlink:href="#DejaVuSans-50"/>
       <use x="159.033203" xlink:href="#DejaVuSans-53"/>
      </g>
     </g>
    </g>
    <g id="ytick_7">
     <g id="line2d_12">
      <g>
       <use style="stroke:#000000;stroke-width:0.8;" x="126" xlink:href="#m7746dd5220" y="187.126311"/>
      </g>
     </g>
     <g id="text_13">
      <!-- 0.30 -->
      <defs>
       <path d="M 40.578125 39.3125 
Q 47.65625 37.796875 51.625 33 
Q 55.609375 28.21875 55.609375 21.1875 
Q 55.609375 10.40625 48.1875 4.484375 
Q 40.765625 -1.421875 27.09375 -1.421875 
Q 22.515625 -1.421875 17.65625 -0.515625 
Q 12.796875 0.390625 7.625 2.203125 
L 7.625 11.71875 
Q 11.71875 9.328125 16.59375 8.109375 
Q 21.484375 6.890625 26.8125 6.890625 
Q 36.078125 6.890625 40.9375 10.546875 
Q 45.796875 14.203125 45.796875 21.1875 
Q 45.796875 27.640625 41.28125 31.265625 
Q 36.765625 34.90625 28.71875 34.90625 
L 20.21875 34.90625 
L 20.21875 43.015625 
L 29.109375 43.015625 
Q 36.375 43.015625 40.234375 45.921875 
Q 44.09375 48.828125 44.09375 54.296875 
Q 44.09375 59.90625 40.109375 62.90625 
Q 36.140625 65.921875 28.71875 65.921875 
Q 24.65625 65.921875 20.015625 65.03125 
Q 15.375 64.15625 9.8125 62.3125 
L 9.8125 71.09375 
Q 15.4375 72.65625 20.34375 73.4375 
Q 25.25 74.21875 29.59375 74.21875 
Q 40.828125 74.21875 47.359375 69.109375 
Q 53.90625 64.015625 53.90625 55.328125 
Q 53.90625 49.265625 50.4375 45.09375 
Q 46.96875 40.921875 40.578125 39.3125 
z
" id="DejaVuSans-51"/>
      </defs>
      <g transform="translate(96.734375 190.92553)scale(0.1 -0.1)">
       <use xlink:href="#DejaVuSans-48"/>
       <use x="63.623047" xlink:href="#DejaVuSans-46"/>
       <use x="95.410156" xlink:href="#DejaVuSans-51"/>
       <use x="159.033203" xlink:href="#DejaVuSans-48"/>
      </g>
     </g>
    </g>
    <g id="ytick_8">
     <g id="line2d_13">
      <g>
       <use style="stroke:#000000;stroke-width:0.8;" x="126" xlink:href="#m7746dd5220" y="144.81403"/>
      </g>
     </g>
     <g id="text_14">
      <!-- 0.35 -->
      <g transform="translate(96.734375 148.613248)scale(0.1 -0.1)">
       <use xlink:href="#DejaVuSans-48"/>
       <use x="63.623047" xlink:href="#DejaVuSans-46"/>
       <use x="95.410156" xlink:href="#DejaVuSans-51"/>
       <use x="159.033203" xlink:href="#DejaVuSans-53"/>
      </g>
     </g>
    </g>
    <g id="ytick_9">
     <g id="line2d_14">
      <g>
       <use style="stroke:#000000;stroke-width:0.8;" x="126" xlink:href="#m7746dd5220" y="102.501748"/>
      </g>
     </g>
     <g id="text_15">
      <!-- 0.40 -->
      <g transform="translate(96.734375 106.300967)scale(0.1 -0.1)">
       <use xlink:href="#DejaVuSans-48"/>
       <use x="63.623047" xlink:href="#DejaVuSans-46"/>
       <use x="95.410156" xlink:href="#DejaVuSans-52"/>
       <use x="159.033203" xlink:href="#DejaVuSans-48"/>
      </g>
     </g>
    </g>
    <g id="text_16">
     <!-- Probability -->
     <defs>
      <path d="M 48.6875 27.296875 
Q 48.6875 37.203125 44.609375 42.84375 
Q 40.53125 48.484375 33.40625 48.484375 
Q 26.265625 48.484375 22.1875 42.84375 
Q 18.109375 37.203125 18.109375 27.296875 
Q 18.109375 17.390625 22.1875 11.75 
Q 26.265625 6.109375 33.40625 6.109375 
Q 40.53125 6.109375 44.609375 11.75 
Q 48.6875 17.390625 48.6875 27.296875 
z
M 18.109375 46.390625 
Q 20.953125 51.265625 25.265625 53.625 
Q 29.59375 56 35.59375 56 
Q 45.5625 56 51.78125 48.09375 
Q 58.015625 40.1875 58.015625 27.296875 
Q 58.015625 14.40625 51.78125 6.484375 
Q 45.5625 -1.421875 35.59375 -1.421875 
Q 29.59375 -1.421875 25.265625 0.953125 
Q 20.953125 3.328125 18.109375 8.203125 
L 18.109375 0 
L 9.078125 0 
L 9.078125 75.984375 
L 18.109375 75.984375 
z
" id="DejaVuSans-98"/>
      <path d="M 34.28125 27.484375 
Q 23.390625 27.484375 19.1875 25 
Q 14.984375 22.515625 14.984375 16.5 
Q 14.984375 11.71875 18.140625 8.90625 
Q 21.296875 6.109375 26.703125 6.109375 
Q 34.1875 6.109375 38.703125 11.40625 
Q 43.21875 16.703125 43.21875 25.484375 
L 43.21875 27.484375 
z
M 52.203125 31.203125 
L 52.203125 0 
L 43.21875 0 
L 43.21875 8.296875 
Q 40.140625 3.328125 35.546875 0.953125 
Q 30.953125 -1.421875 24.3125 -1.421875 
Q 15.921875 -1.421875 10.953125 3.296875 
Q 6 8.015625 6 15.921875 
Q 6 25.140625 12.171875 29.828125 
Q 18.359375 34.515625 30.609375 34.515625 
L 43.21875 34.515625 
L 43.21875 35.40625 
Q 43.21875 41.609375 39.140625 45 
Q 35.0625 48.390625 27.6875 48.390625 
Q 23 48.390625 18.546875 47.265625 
Q 14.109375 46.140625 10.015625 43.890625 
L 10.015625 52.203125 
Q 14.9375 54.109375 19.578125 55.046875 
Q 24.21875 56 28.609375 56 
Q 40.484375 56 46.34375 49.84375 
Q 52.203125 43.703125 52.203125 31.203125 
z
" id="DejaVuSans-97"/>
      <path d="M 32.171875 -5.078125 
Q 28.375 -14.84375 24.75 -17.8125 
Q 21.140625 -20.796875 15.09375 -20.796875 
L 7.90625 -20.796875 
L 7.90625 -13.28125 
L 13.1875 -13.28125 
Q 16.890625 -13.28125 18.9375 -11.515625 
Q 21 -9.765625 23.484375 -3.21875 
L 25.09375 0.875 
L 2.984375 54.6875 
L 12.5 54.6875 
L 29.59375 11.921875 
L 46.6875 54.6875 
L 56.203125 54.6875 
z
" id="DejaVuSans-121"/>
     </defs>
     <g transform="translate(90.654687 277.168906)rotate(-90)scale(0.1 -0.1)">
      <use xlink:href="#DejaVuSans-80"/>
      <use x="58.552734" xlink:href="#DejaVuSans-114"/>
      <use x="97.416016" xlink:href="#DejaVuSans-111"/>
      <use x="158.597656" xlink:href="#DejaVuSans-98"/>
      <use x="222.074219" xlink:href="#DejaVuSans-97"/>
      <use x="283.353516" xlink:href="#DejaVuSans-98"/>
      <use x="346.830078" xlink:href="#DejaVuSans-105"/>
      <use x="374.613281" xlink:href="#DejaVuSans-108"/>
      <use x="402.396484" xlink:href="#DejaVuSans-105"/>
      <use x="430.179688" xlink:href="#DejaVuSans-116"/>
      <use x="469.388672" xlink:href="#DejaVuSans-121"/>
     </g>
    </g>
   </g>
   <g id="LineCollection_1">
    <path clip-path="url(#p28892b9fac)" d="M 563.800743 441 
L 563.800743 60.48 
" style="fill:none;stroke:#a52a2a;stroke-dasharray:9.6,2.4,1.5,2.4;stroke-dashoffset:0;stroke-width:1.5;"/>
   </g>
   <g id="LineCollection_2">
    <path clip-path="url(#p28892b9fac)" d="M 459.180352 441 
L 459.180352 60.48 
" style="fill:none;stroke:#4169e1;stroke-dasharray:9.6,2.4,1.5,2.4;stroke-dashoffset:0;stroke-width:1.5;"/>
   </g>
   <g id="line2d_15">
    <path clip-path="url(#p28892b9fac)" d="M 126 440.999909 
L 243.768844 440.896052 
L 267.322613 440.673003 
L 283.025126 440.331297 
L 294.80201 439.8853 
L 306.578894 439.182078 
L 314.430151 438.511689 
L 322.281407 437.627063 
L 330.132663 436.472212 
L 337.98392 434.980806 
L 345.835176 433.075629 
L 349.760804 431.940726 
L 353.686432 430.668449 
L 357.61206 429.246119 
L 361.537688 427.660468 
L 365.463317 425.897686 
L 369.388945 423.943499 
L 373.314573 421.783249 
L 377.240201 419.401998 
L 381.165829 416.78465 
L 385.091457 413.916082 
L 389.017085 410.781297 
L 392.942714 407.365598 
L 396.868342 403.654767 
L 400.79397 399.635268 
L 404.719598 395.294462 
L 408.645226 390.620831 
L 412.570854 385.60421 
L 416.496482 380.236038 
L 420.422111 374.509594 
L 424.347739 368.420252 
L 428.273367 361.96572 
L 432.198995 355.146279 
L 436.124623 347.965011 
L 440.050251 340.428003 
L 443.975879 332.544543 
L 447.901508 324.327282 
L 451.827136 315.79237 
L 455.752764 306.959559 
L 463.60402 288.497602 
L 471.455276 269.172851 
L 483.232161 239.2139 
L 495.009045 209.162939 
L 502.860302 189.756326 
L 506.78593 180.404669 
L 510.711558 171.361627 
L 514.637186 162.682613 
L 518.562814 154.422196 
L 522.488442 146.633533 
L 526.41407 139.367806 
L 530.339698 132.673663 
L 534.265327 126.596679 
L 538.190955 121.178835 
L 542.116583 116.458045 
L 546.042211 112.467705 
L 549.967839 109.236304 
L 553.893467 106.787087 
L 557.819095 105.137773 
L 561.744724 104.300344 
L 565.670352 104.280897 
L 569.59598 105.079575 
L 573.521608 106.690561 
L 577.447236 109.102151 
L 581.372864 112.296892 
L 585.298492 116.251798 
L 589.224121 120.93862 
L 593.149749 126.324187 
L 597.075377 132.370791 
L 601.001005 139.036632 
L 604.926633 146.276295 
L 608.852261 154.041265 
L 612.777889 162.28047 
L 616.703518 170.940832 
L 620.629146 179.967836 
L 628.480402 198.899918 
L 636.331658 218.633102 
L 655.959799 268.705798 
L 663.811055 288.047746 
L 671.662312 306.533101 
L 675.58794 315.379505 
L 679.513568 323.929038 
L 683.439196 332.161777 
L 687.364824 340.061401 
L 691.290452 347.615096 
L 695.21608 354.813419 
L 699.141709 361.650134 
L 703.067337 368.122021 
L 706.992965 374.228672 
L 710.918593 379.972262 
L 714.844221 385.35731 
L 718.769849 390.390444 
L 722.695477 395.080145 
L 726.621106 399.436505 
L 730.546734 403.470983 
L 734.472362 407.196172 
L 738.39799 410.625568 
L 742.323618 413.773363 
L 746.249246 416.654235 
L 750.174874 419.283171 
L 754.100503 421.67529 
L 758.026131 423.845696 
L 761.951759 425.809334 
L 765.877387 427.580878 
L 769.803015 429.174624 
L 773.728643 430.604404 
L 777.654271 431.883516 
L 781.579899 433.024665 
L 789.431156 434.940695 
L 797.282412 436.440986 
L 805.133668 437.603017 
L 812.984925 438.493371 
L 820.836181 439.168271 
L 832.613065 439.876445 
L 844.38995 440.325752 
L 860.092462 440.670139 
L 883.646231 440.895069 
L 907.2 440.969419 
L 907.2 440.969419 
" style="fill:none;stroke:#a52a2a;stroke-linecap:square;stroke-width:2;"/>
   </g>
   <g id="line2d_16">
    <path clip-path="url(#p28892b9fac)" d="M 126 440.963354 
L 157.405025 440.810478 
L 177.033166 440.512662 
L 188.81005 440.166902 
L 200.586935 439.608013 
L 208.438191 439.06471 
L 216.289447 438.336546 
L 224.140704 437.371459 
L 231.99196 436.106642 
L 239.843216 434.467643 
L 243.768844 433.48123 
L 247.694472 432.367815 
L 251.620101 431.114659 
L 255.545729 429.708293 
L 259.471357 428.134564 
L 263.396985 426.378686 
L 267.322613 424.425315 
L 271.248241 422.258637 
L 275.173869 419.862479 
L 279.099497 417.220434 
L 283.025126 414.316008 
L 286.950754 411.13279 
L 290.876382 407.654632 
L 294.80201 403.865861 
L 298.727638 399.751496 
L 302.653266 395.297491 
L 306.578894 390.490989 
L 310.504523 385.320582 
L 314.430151 379.776592 
L 318.355779 373.851346 
L 322.281407 367.539461 
L 326.207035 360.838118 
L 330.132663 353.747337 
L 334.058291 346.270232 
L 337.98392 338.413256 
L 341.909548 330.186413 
L 345.835176 321.603451 
L 349.760804 312.682016 
L 353.686432 303.443767 
L 361.537688 284.123913 
L 369.388945 263.898925 
L 381.165829 232.577156 
L 392.942714 201.258964 
L 400.79397 181.128461 
L 404.719598 171.466731 
L 408.645226 162.154891 
L 412.570854 153.253083 
L 416.496482 144.82028 
L 420.422111 136.913632 
L 424.347739 129.587832 
L 428.273367 122.894485 
L 432.198995 116.881507 
L 436.124623 111.59255 
L 440.050251 107.066478 
L 443.975879 103.336894 
L 447.901508 100.431719 
L 451.827136 98.372848 
L 455.752764 97.175873 
L 459.678392 96.849888 
L 463.60402 97.397373 
L 467.529648 98.814165 
L 471.455276 101.089505 
L 475.380905 104.20618 
L 479.306533 108.140738 
L 483.232161 112.863779 
L 487.157789 118.340326 
L 491.083417 124.53025 
L 495.009045 131.388766 
L 498.934673 138.866968 
L 502.860302 146.912408 
L 506.78593 155.469709 
L 510.711558 164.481198 
L 514.637186 173.887545 
L 522.488442 193.643081 
L 530.339698 214.252785 
L 549.967839 266.504558 
L 557.819095 286.631071 
L 565.670352 305.816505 
L 569.59598 314.976642 
L 573.521608 323.814084 
L 577.447236 332.308199 
L 581.372864 340.442344 
L 585.298492 348.203735 
L 589.224121 355.58329 
L 593.149749 362.575424 
L 597.075377 369.177832 
L 601.001005 375.391239 
L 604.926633 381.219141 
L 608.852261 386.667528 
L 612.777889 391.744609 
L 616.703518 396.460528 
L 620.629146 400.827084 
L 624.554774 404.857462 
L 628.480402 408.565969 
L 632.40603 411.967784 
L 636.331658 415.078719 
L 640.257286 417.915009 
L 644.182915 420.493102 
L 648.108543 422.829486 
L 652.034171 424.940521 
L 655.959799 426.842301 
L 659.885427 428.550529 
L 663.811055 430.080415 
L 667.736683 431.446592 
L 671.662312 432.663043 
L 675.58794 433.743057 
L 683.439196 435.543212 
L 691.290452 436.938294 
L 699.141709 438.007268 
L 706.992965 438.817194 
L 714.844221 439.424021 
L 726.621106 440.051405 
L 738.39799 440.441936 
L 754.100503 440.734511 
L 777.654271 440.919277 
L 824.761809 440.994327 
L 907.2 440.999977 
L 907.2 440.999977 
" style="fill:none;stroke:#4169e1;stroke-linecap:square;stroke-width:2;"/>
   </g>
   <g id="patch_103">
    <path d="M 126 441 
L 126 60.48 
" style="fill:none;stroke:#000000;stroke-linecap:square;stroke-linejoin:miter;stroke-width:0.8;"/>
   </g>
   <g id="patch_104">
    <path d="M 907.2 441 
L 907.2 60.48 
" style="fill:none;stroke:#000000;stroke-linecap:square;stroke-linejoin:miter;stroke-width:0.8;"/>
   </g>
   <g id="patch_105">
    <path d="M 126 441 
L 907.2 441 
" style="fill:none;stroke:#000000;stroke-linecap:square;stroke-linejoin:miter;stroke-width:0.8;"/>
   </g>
   <g id="patch_106">
    <path d="M 126 60.48 
L 907.2 60.48 
" style="fill:none;stroke:#000000;stroke-linecap:square;stroke-linejoin:miter;stroke-width:0.8;"/>
   </g>
   <g id="legend_1">
    <g id="patch_107">
     <path d="M 762.43125 127.1925 
L 900.2 127.1925 
Q 902.2 127.1925 902.2 125.1925 
L 902.2 67.48 
Q 902.2 65.48 900.2 65.48 
L 762.43125 65.48 
Q 760.43125 65.48 760.43125 67.48 
L 760.43125 125.1925 
Q 760.43125 127.1925 762.43125 127.1925 
z
" style="fill:#ffffff;opacity:0.8;stroke:#cccccc;stroke-linejoin:miter;"/>
    </g>
    <g id="patch_108">
     <path d="M 764.43125 77.078438 
L 784.43125 77.078438 
L 784.43125 70.078438 
L 764.43125 70.078438 
z
" style="fill:#1f77b4;opacity:0.7;"/>
    </g>
    <g id="text_17">
     <!-- Posterior -->
     <defs>
      <path d="M 44.28125 53.078125 
L 44.28125 44.578125 
Q 40.484375 46.53125 36.375 47.5 
Q 32.28125 48.484375 27.875 48.484375 
Q 21.1875 48.484375 17.84375 46.4375 
Q 14.5 44.390625 14.5 40.28125 
Q 14.5 37.15625 16.890625 35.375 
Q 19.28125 33.59375 26.515625 31.984375 
L 29.59375 31.296875 
Q 39.15625 29.25 43.1875 25.515625 
Q 47.21875 21.78125 47.21875 15.09375 
Q 47.21875 7.46875 41.1875 3.015625 
Q 35.15625 -1.421875 24.609375 -1.421875 
Q 20.21875 -1.421875 15.453125 -0.5625 
Q 10.6875 0.296875 5.421875 2 
L 5.421875 11.28125 
Q 10.40625 8.6875 15.234375 7.390625 
Q 20.0625 6.109375 24.8125 6.109375 
Q 31.15625 6.109375 34.5625 8.28125 
Q 37.984375 10.453125 37.984375 14.40625 
Q 37.984375 18.0625 35.515625 20.015625 
Q 33.0625 21.96875 24.703125 23.78125 
L 21.578125 24.515625 
Q 13.234375 26.265625 9.515625 29.90625 
Q 5.8125 33.546875 5.8125 39.890625 
Q 5.8125 47.609375 11.28125 51.796875 
Q 16.75 56 26.8125 56 
Q 31.78125 56 36.171875 55.265625 
Q 40.578125 54.546875 44.28125 53.078125 
z
" id="DejaVuSans-115"/>
      <path d="M 56.203125 29.59375 
L 56.203125 25.203125 
L 14.890625 25.203125 
Q 15.484375 15.921875 20.484375 11.0625 
Q 25.484375 6.203125 34.421875 6.203125 
Q 39.59375 6.203125 44.453125 7.46875 
Q 49.3125 8.734375 54.109375 11.28125 
L 54.109375 2.78125 
Q 49.265625 0.734375 44.1875 -0.34375 
Q 39.109375 -1.421875 33.890625 -1.421875 
Q 20.796875 -1.421875 13.15625 6.1875 
Q 5.515625 13.8125 5.515625 26.8125 
Q 5.515625 40.234375 12.765625 48.109375 
Q 20.015625 56 32.328125 56 
Q 43.359375 56 49.78125 48.890625 
Q 56.203125 41.796875 56.203125 29.59375 
z
M 47.21875 32.234375 
Q 47.125 39.59375 43.09375 43.984375 
Q 39.0625 48.390625 32.421875 48.390625 
Q 24.90625 48.390625 20.390625 44.140625 
Q 15.875 39.890625 15.1875 32.171875 
z
" id="DejaVuSans-101"/>
     </defs>
     <g transform="translate(792.43125 77.078438)scale(0.1 -0.1)">
      <use xlink:href="#DejaVuSans-80"/>
      <use x="56.677734" xlink:href="#DejaVuSans-111"/>
      <use x="117.859375" xlink:href="#DejaVuSans-115"/>
      <use x="169.958984" xlink:href="#DejaVuSans-116"/>
      <use x="209.167969" xlink:href="#DejaVuSans-101"/>
      <use x="270.691406" xlink:href="#DejaVuSans-114"/>
      <use x="311.804688" xlink:href="#DejaVuSans-105"/>
      <use x="339.587891" xlink:href="#DejaVuSans-111"/>
      <use x="400.769531" xlink:href="#DejaVuSans-114"/>
     </g>
    </g>
    <g id="patch_109">
     <path d="M 764.43125 91.756563 
L 784.43125 91.756563 
L 784.43125 84.756563 
L 764.43125 84.756563 
z
" style="fill:#ff7f0e;opacity:0.7;"/>
    </g>
    <g id="text_18">
     <!-- Prior -->
     <g transform="translate(792.43125 91.756563)scale(0.1 -0.1)">
      <use xlink:href="#DejaVuSans-80"/>
      <use x="58.552734" xlink:href="#DejaVuSans-114"/>
      <use x="99.666016" xlink:href="#DejaVuSans-105"/>
      <use x="127.449219" xlink:href="#DejaVuSans-111"/>
      <use x="188.630859" xlink:href="#DejaVuSans-114"/>
     </g>
    </g>
    <g id="line2d_17">
     <path d="M 764.43125 102.934687 
L 784.43125 102.934687 
" style="fill:none;stroke:#a52a2a;stroke-dasharray:9.6,2.4,1.5,2.4;stroke-dashoffset:0;stroke-width:1.5;"/>
    </g>
    <g id="text_19">
     <!-- Prior score mean -->
     <defs>
      <path d="M 48.78125 52.59375 
L 48.78125 44.1875 
Q 44.96875 46.296875 41.140625 47.34375 
Q 37.3125 48.390625 33.40625 48.390625 
Q 24.65625 48.390625 19.8125 42.84375 
Q 14.984375 37.3125 14.984375 27.296875 
Q 14.984375 17.28125 19.8125 11.734375 
Q 24.65625 6.203125 33.40625 6.203125 
Q 37.3125 6.203125 41.140625 7.25 
Q 44.96875 8.296875 48.78125 10.40625 
L 48.78125 2.09375 
Q 45.015625 0.34375 40.984375 -0.53125 
Q 36.96875 -1.421875 32.421875 -1.421875 
Q 20.0625 -1.421875 12.78125 6.34375 
Q 5.515625 14.109375 5.515625 27.296875 
Q 5.515625 40.671875 12.859375 48.328125 
Q 20.21875 56 33.015625 56 
Q 37.15625 56 41.109375 55.140625 
Q 45.0625 54.296875 48.78125 52.59375 
z
" id="DejaVuSans-99"/>
     </defs>
     <g transform="translate(792.43125 106.434687)scale(0.1 -0.1)">
      <use xlink:href="#DejaVuSans-80"/>
      <use x="58.552734" xlink:href="#DejaVuSans-114"/>
      <use x="99.666016" xlink:href="#DejaVuSans-105"/>
      <use x="127.449219" xlink:href="#DejaVuSans-111"/>
      <use x="188.630859" xlink:href="#DejaVuSans-114"/>
      <use x="229.744141" xlink:href="#DejaVuSans-32"/>
      <use x="261.53125" xlink:href="#DejaVuSans-115"/>
      <use x="313.630859" xlink:href="#DejaVuSans-99"/>
      <use x="368.611328" xlink:href="#DejaVuSans-111"/>
      <use x="429.792969" xlink:href="#DejaVuSans-114"/>
      <use x="468.65625" xlink:href="#DejaVuSans-101"/>
      <use x="530.179688" xlink:href="#DejaVuSans-32"/>
      <use x="561.966797" xlink:href="#DejaVuSans-109"/>
      <use x="659.378906" xlink:href="#DejaVuSans-101"/>
      <use x="720.902344" xlink:href="#DejaVuSans-97"/>
      <use x="782.181641" xlink:href="#DejaVuSans-110"/>
     </g>
    </g>
    <g id="line2d_18">
     <path d="M 764.43125 117.612813 
L 784.43125 117.612813 
" style="fill:none;stroke:#4169e1;stroke-dasharray:9.6,2.4,1.5,2.4;stroke-dashoffset:0;stroke-width:1.5;"/>
    </g>
    <g id="text_20">
     <!-- Posterior score mean -->
     <g transform="translate(792.43125 121.112813)scale(0.1 -0.1)">
      <use xlink:href="#DejaVuSans-80"/>
      <use x="56.677734" xlink:href="#DejaVuSans-111"/>
      <use x="117.859375" xlink:href="#DejaVuSans-115"/>
      <use x="169.958984" xlink:href="#DejaVuSans-116"/>
      <use x="209.167969" xlink:href="#DejaVuSans-101"/>
      <use x="270.691406" xlink:href="#DejaVuSans-114"/>
      <use x="311.804688" xlink:href="#DejaVuSans-105"/>
      <use x="339.587891" xlink:href="#DejaVuSans-111"/>
      <use x="400.769531" xlink:href="#DejaVuSans-114"/>
      <use x="441.882812" xlink:href="#DejaVuSans-32"/>
      <use x="473.669922" xlink:href="#DejaVuSans-115"/>
      <use x="525.769531" xlink:href="#DejaVuSans-99"/>
      <use x="580.75" xlink:href="#DejaVuSans-111"/>
      <use x="641.931641" xlink:href="#DejaVuSans-114"/>
      <use x="680.794922" xlink:href="#DejaVuSans-101"/>
      <use x="742.318359" xlink:href="#DejaVuSans-32"/>
      <use x="774.105469" xlink:href="#DejaVuSans-109"/>
      <use x="871.517578" xlink:href="#DejaVuSans-101"/>
      <use x="933.041016" xlink:href="#DejaVuSans-97"/>
      <use x="994.320312" xlink:href="#DejaVuSans-110"/>
     </g>
    </g>
   </g>
  </g>
 </g>
 <defs>
  <clipPath id="p28892b9fac">
   <rect height="380.52" width="781.2" x="126" y="60.48"/>
  </clipPath>
 </defs>
</svg>
