<?xml version="1.0" encoding="utf-8" standalone="no"?>
<!DOCTYPE svg PUBLIC "-//W3C//DTD SVG 1.1//EN"
  "http://www.w3.org/Graphics/SVG/1.1/DTD/svg11.dtd">
<!-- Created with matplotlib (https://matplotlib.org/) -->
<svg height="504pt" version="1.1" viewBox="0 0 1008 504" width="1008pt" xmlns="http://www.w3.org/2000/svg" xmlns:xlink="http://www.w3.org/1999/xlink">
 <defs>
  <style type="text/css">
*{stroke-linecap:butt;stroke-linejoin:round;}
  </style>
 </defs>
 <g id="figure_1">
  <g id="patch_1">
   <path d="M 0 504 
L 1008 504 
L 1008 0 
L 0 0 
z
" style="fill:#ffffff;"/>
  </g>
  <g id="axes_1">
   <g id="patch_2">
    <path d="M 126 441 
L 907.2 441 
L 907.2 60.48 
L 126 60.48 
z
" style="fill:#ffffff;"/>
   </g>
   <g id="patch_3">
    <path clip-path="url(#p963908a3a6)" d="M 161.509091 441 
L 175.712727 441 
L 175.712727 441 
L 161.509091 441 
z
" style="fill:#1f77b4;opacity:0.7;"/>
   </g>
   <g id="patch_4">
    <path clip-path="url(#p963908a3a6)" d="M 175.712727 441 
L 189.916364 441 
L 189.916364 441 
L 175.712727 441 
z
" style="fill:#1f77b4;opacity:0.7;"/>
   </g>
   <g id="patch_5">
    <path clip-path="url(#p963908a3a6)" d="M 189.916364 441 
L 204.12 441 
L 204.12 441 
L 189.916364 441 
z
" style="fill:#1f77b4;opacity:0.7;"/>
   </g>
   <g id="patch_6">
    <path clip-path="url(#p963908a3a6)" d="M 204.12 441 
L 218.323636 441 
L 218.323636 441 
L 204.12 441 
z
" style="fill:#1f77b4;opacity:0.7;"/>
   </g>
   <g id="patch_7">
    <path clip-path="url(#p963908a3a6)" d="M 218.323636 441 
L 232.527273 441 
L 232.527273 441 
L 218.323636 441 
z
" style="fill:#1f77b4;opacity:0.7;"/>
   </g>
   <g id="patch_8">
    <path clip-path="url(#p963908a3a6)" d="M 232.527273 441 
L 246.730909 441 
L 246.730909 441 
L 232.527273 441 
z
" style="fill:#1f77b4;opacity:0.7;"/>
   </g>
   <g id="patch_9">
    <path clip-path="url(#p963908a3a6)" d="M 246.730909 441 
L 260.934545 441 
L 260.934545 441 
L 246.730909 441 
z
" style="fill:#1f77b4;opacity:0.7;"/>
   </g>
   <g id="patch_10">
    <path clip-path="url(#p963908a3a6)" d="M 260.934545 441 
L 275.138182 441 
L 275.138182 441 
L 260.934545 441 
z
" style="fill:#1f77b4;opacity:0.7;"/>
   </g>
   <g id="patch_11">
    <path clip-path="url(#p963908a3a6)" d="M 275.138182 441 
L 289.341818 441 
L 289.341818 441 
L 275.138182 441 
z
" style="fill:#1f77b4;opacity:0.7;"/>
   </g>
   <g id="patch_12">
    <path clip-path="url(#p963908a3a6)" d="M 289.341818 441 
L 303.545455 441 
L 303.545455 441 
L 289.341818 441 
z
" style="fill:#1f77b4;opacity:0.7;"/>
   </g>
   <g id="patch_13">
    <path clip-path="url(#p963908a3a6)" d="M 303.545455 441 
L 317.749091 441 
L 317.749091 441 
L 303.545455 441 
z
" style="fill:#1f77b4;opacity:0.7;"/>
   </g>
   <g id="patch_14">
    <path clip-path="url(#p963908a3a6)" d="M 317.749091 441 
L 331.952727 441 
L 331.952727 440.431678 
L 317.749091 440.431678 
z
" style="fill:#1f77b4;opacity:0.7;"/>
   </g>
   <g id="patch_15">
    <path clip-path="url(#p963908a3a6)" d="M 331.952727 441 
L 346.156364 441 
L 346.156364 440.621119 
L 331.952727 440.621119 
z
" style="fill:#1f77b4;opacity:0.7;"/>
   </g>
   <g id="patch_16">
    <path clip-path="url(#p963908a3a6)" d="M 346.156364 441 
L 360.36 441 
L 360.36 440.431678 
L 346.156364 440.431678 
z
" style="fill:#1f77b4;opacity:0.7;"/>
   </g>
   <g id="patch_17">
    <path clip-path="url(#p963908a3a6)" d="M 360.36 441 
L 374.563636 441 
L 374.563636 439.484475 
L 360.36 439.484475 
z
" style="fill:#1f77b4;opacity:0.7;"/>
   </g>
   <g id="patch_18">
    <path clip-path="url(#p963908a3a6)" d="M 374.563636 441 
L 388.767273 441 
L 388.767273 434.748458 
L 374.563636 434.748458 
z
" style="fill:#1f77b4;opacity:0.7;"/>
   </g>
   <g id="patch_19">
    <path clip-path="url(#p963908a3a6)" d="M 388.767273 441 
L 402.970909 441 
L 402.970909 436.453424 
L 388.767273 436.453424 
z
" style="fill:#1f77b4;opacity:0.7;"/>
   </g>
   <g id="patch_20">
    <path clip-path="url(#p963908a3a6)" d="M 402.970909 441 
L 417.174545 441 
L 417.174545 429.444119 
L 402.970909 429.444119 
z
" style="fill:#1f77b4;opacity:0.7;"/>
   </g>
   <g id="patch_21">
    <path clip-path="url(#p963908a3a6)" d="M 417.174545 441 
L 431.378182 441 
L 431.378182 421.29817 
L 417.174545 421.29817 
z
" style="fill:#1f77b4;opacity:0.7;"/>
   </g>
   <g id="patch_22">
    <path clip-path="url(#p963908a3a6)" d="M 431.378182 441 
L 445.581818 441 
L 445.581818 414.288866 
L 431.378182 414.288866 
z
" style="fill:#1f77b4;opacity:0.7;"/>
   </g>
   <g id="patch_23">
    <path clip-path="url(#p963908a3a6)" d="M 445.581818 441 
L 459.785455 441 
L 459.785455 399.891375 
L 445.581818 399.891375 
z
" style="fill:#1f77b4;opacity:0.7;"/>
   </g>
   <g id="patch_24">
    <path clip-path="url(#p963908a3a6)" d="M 459.785455 441 
L 473.989091 441 
L 473.989091 378.105698 
L 459.785455 378.105698 
z
" style="fill:#1f77b4;opacity:0.7;"/>
   </g>
   <g id="patch_25">
    <path clip-path="url(#p963908a3a6)" d="M 473.989091 441 
L 488.192727 441 
L 488.192727 349.500157 
L 473.989091 349.500157 
z
" style="fill:#1f77b4;opacity:0.7;"/>
   </g>
   <g id="patch_26">
    <path clip-path="url(#p963908a3a6)" d="M 488.192727 441 
L 502.396364 441 
L 502.396364 318.431887 
L 488.192727 318.431887 
z
" style="fill:#1f77b4;opacity:0.7;"/>
   </g>
   <g id="patch_27">
    <path clip-path="url(#p963908a3a6)" d="M 502.396364 441 
L 516.6 441 
L 516.6 295.130685 
L 502.396364 295.130685 
z
" style="fill:#1f77b4;opacity:0.7;"/>
   </g>
   <g id="patch_28">
    <path clip-path="url(#p963908a3a6)" d="M 516.6 441 
L 530.803636 441 
L 530.803636 236.404077 
L 516.6 236.404077 
z
" style="fill:#1f77b4;opacity:0.7;"/>
   </g>
   <g id="patch_29">
    <path clip-path="url(#p963908a3a6)" d="M 530.803636 441 
L 545.007273 441 
L 545.007273 192.643283 
L 530.803636 192.643283 
z
" style="fill:#1f77b4;opacity:0.7;"/>
   </g>
   <g id="patch_30">
    <path clip-path="url(#p963908a3a6)" d="M 545.007273 441 
L 559.210909 441 
L 559.210909 150.776895 
L 545.007273 150.776895 
z
" style="fill:#1f77b4;opacity:0.7;"/>
   </g>
   <g id="patch_31">
    <path clip-path="url(#p963908a3a6)" d="M 559.210909 441 
L 573.414545 441 
L 573.414545 115.35149 
L 559.210909 115.35149 
z
" style="fill:#1f77b4;opacity:0.7;"/>
   </g>
   <g id="patch_32">
    <path clip-path="url(#p963908a3a6)" d="M 573.414545 441 
L 587.618182 441 
L 587.618182 114.783168 
L 573.414545 114.783168 
z
" style="fill:#1f77b4;opacity:0.7;"/>
   </g>
   <g id="patch_33">
    <path clip-path="url(#p963908a3a6)" d="M 587.618182 441 
L 601.821818 441 
L 601.821818 78.6 
L 587.618182 78.6 
z
" style="fill:#1f77b4;opacity:0.7;"/>
   </g>
   <g id="patch_34">
    <path clip-path="url(#p963908a3a6)" d="M 601.821818 441 
L 616.025455 441 
L 616.025455 90.534762 
L 601.821818 90.534762 
z
" style="fill:#1f77b4;opacity:0.7;"/>
   </g>
   <g id="patch_35">
    <path clip-path="url(#p963908a3a6)" d="M 616.025455 441 
L 630.229091 441 
L 630.229091 100.196236 
L 616.025455 100.196236 
z
" style="fill:#1f77b4;opacity:0.7;"/>
   </g>
   <g id="patch_36">
    <path clip-path="url(#p963908a3a6)" d="M 630.229091 441 
L 644.432727 441 
L 644.432727 117.245896 
L 630.229091 117.245896 
z
" style="fill:#1f77b4;opacity:0.7;"/>
   </g>
   <g id="patch_37">
    <path clip-path="url(#p963908a3a6)" d="M 644.432727 441 
L 658.636364 441 
L 658.636364 153.050183 
L 644.432727 153.050183 
z
" style="fill:#1f77b4;opacity:0.7;"/>
   </g>
   <g id="patch_38">
    <path clip-path="url(#p963908a3a6)" d="M 658.636364 441 
L 672.84 441 
L 672.84 173.699216 
L 658.636364 173.699216 
z
" style="fill:#1f77b4;opacity:0.7;"/>
   </g>
   <g id="patch_39">
    <path clip-path="url(#p963908a3a6)" d="M 672.84 441 
L 687.043636 441 
L 687.043636 222.574909 
L 672.84 222.574909 
z
" style="fill:#1f77b4;opacity:0.7;"/>
   </g>
   <g id="patch_40">
    <path clip-path="url(#p963908a3a6)" d="M 687.043636 441 
L 701.247273 441 
L 701.247273 275.997177 
L 687.043636 275.997177 
z
" style="fill:#1f77b4;opacity:0.7;"/>
   </g>
   <g id="patch_41">
    <path clip-path="url(#p963908a3a6)" d="M 701.247273 441 
L 715.450909 441 
L 715.450909 308.959854 
L 701.247273 308.959854 
z
" style="fill:#1f77b4;opacity:0.7;"/>
   </g>
   <g id="patch_42">
    <path clip-path="url(#p963908a3a6)" d="M 715.450909 441 
L 729.654545 441 
L 729.654545 332.829378 
L 715.450909 332.829378 
z
" style="fill:#1f77b4;opacity:0.7;"/>
   </g>
   <g id="patch_43">
    <path clip-path="url(#p963908a3a6)" d="M 729.654545 441 
L 743.858182 441 
L 743.858182 356.888343 
L 729.654545 356.888343 
z
" style="fill:#1f77b4;opacity:0.7;"/>
   </g>
   <g id="patch_44">
    <path clip-path="url(#p963908a3a6)" d="M 743.858182 441 
L 758.061818 441 
L 758.061818 373.938003 
L 743.858182 373.938003 
z
" style="fill:#1f77b4;opacity:0.7;"/>
   </g>
   <g id="patch_45">
    <path clip-path="url(#p963908a3a6)" d="M 758.061818 441 
L 772.265455 441 
L 772.265455 404.05907 
L 758.061818 404.05907 
z
" style="fill:#1f77b4;opacity:0.7;"/>
   </g>
   <g id="patch_46">
    <path clip-path="url(#p963908a3a6)" d="M 772.265455 441 
L 786.469091 441 
L 786.469091 415.993832 
L 772.265455 415.993832 
z
" style="fill:#1f77b4;opacity:0.7;"/>
   </g>
   <g id="patch_47">
    <path clip-path="url(#p963908a3a6)" d="M 786.469091 441 
L 800.672727 441 
L 800.672727 428.875797 
L 786.469091 428.875797 
z
" style="fill:#1f77b4;opacity:0.7;"/>
   </g>
   <g id="patch_48">
    <path clip-path="url(#p963908a3a6)" d="M 800.672727 441 
L 814.876364 441 
L 814.876364 430.201882 
L 800.672727 430.201882 
z
" style="fill:#1f77b4;opacity:0.7;"/>
   </g>
   <g id="patch_49">
    <path clip-path="url(#p963908a3a6)" d="M 814.876364 441 
L 829.08 441 
L 829.08 435.695661 
L 814.876364 435.695661 
z
" style="fill:#1f77b4;opacity:0.7;"/>
   </g>
   <g id="patch_50">
    <path clip-path="url(#p963908a3a6)" d="M 829.08 441 
L 843.283636 441 
L 843.283636 436.263983 
L 829.08 436.263983 
z
" style="fill:#1f77b4;opacity:0.7;"/>
   </g>
   <g id="patch_51">
    <path clip-path="url(#p963908a3a6)" d="M 843.283636 441 
L 857.487273 441 
L 857.487273 440.431678 
L 843.283636 440.431678 
z
" style="fill:#1f77b4;opacity:0.7;"/>
   </g>
   <g id="patch_52">
    <path clip-path="url(#p963908a3a6)" d="M 857.487273 441 
L 871.690909 441 
L 871.690909 438.726712 
L 857.487273 438.726712 
z
" style="fill:#1f77b4;opacity:0.7;"/>
   </g>
   <g id="patch_53">
    <path clip-path="url(#p963908a3a6)" d="M 161.509091 441 
L 175.712727 441 
L 175.712727 440.621119 
L 161.509091 440.621119 
z
" style="fill:#ff7f0e;opacity:0.7;"/>
   </g>
   <g id="patch_54">
    <path clip-path="url(#p963908a3a6)" d="M 175.712727 441 
L 189.916364 441 
L 189.916364 440.242237 
L 175.712727 440.242237 
z
" style="fill:#ff7f0e;opacity:0.7;"/>
   </g>
   <g id="patch_55">
    <path clip-path="url(#p963908a3a6)" d="M 189.916364 441 
L 204.12 441 
L 204.12 440.052797 
L 189.916364 440.052797 
z
" style="fill:#ff7f0e;opacity:0.7;"/>
   </g>
   <g id="patch_56">
    <path clip-path="url(#p963908a3a6)" d="M 204.12 441 
L 218.323636 441 
L 218.323636 439.673915 
L 204.12 439.673915 
z
" style="fill:#ff7f0e;opacity:0.7;"/>
   </g>
   <g id="patch_57">
    <path clip-path="url(#p963908a3a6)" d="M 218.323636 441 
L 232.527273 441 
L 232.527273 437.779509 
L 218.323636 437.779509 
z
" style="fill:#ff7f0e;opacity:0.7;"/>
   </g>
   <g id="patch_58">
    <path clip-path="url(#p963908a3a6)" d="M 232.527273 441 
L 246.730909 441 
L 246.730909 435.885102 
L 232.527273 435.885102 
z
" style="fill:#ff7f0e;opacity:0.7;"/>
   </g>
   <g id="patch_59">
    <path clip-path="url(#p963908a3a6)" d="M 246.730909 441 
L 260.934545 441 
L 260.934545 435.885102 
L 246.730909 435.885102 
z
" style="fill:#ff7f0e;opacity:0.7;"/>
   </g>
   <g id="patch_60">
    <path clip-path="url(#p963908a3a6)" d="M 260.934545 441 
L 275.138182 441 
L 275.138182 427.170831 
L 260.934545 427.170831 
z
" style="fill:#ff7f0e;opacity:0.7;"/>
   </g>
   <g id="patch_61">
    <path clip-path="url(#p963908a3a6)" d="M 275.138182 441 
L 289.341818 441 
L 289.341818 416.941035 
L 275.138182 416.941035 
z
" style="fill:#ff7f0e;opacity:0.7;"/>
   </g>
   <g id="patch_62">
    <path clip-path="url(#p963908a3a6)" d="M 289.341818 441 
L 303.545455 441 
L 303.545455 404.816832 
L 289.341818 404.816832 
z
" style="fill:#ff7f0e;opacity:0.7;"/>
   </g>
   <g id="patch_63">
    <path clip-path="url(#p963908a3a6)" d="M 303.545455 441 
L 317.749091 441 
L 317.749091 392.313748 
L 303.545455 392.313748 
z
" style="fill:#ff7f0e;opacity:0.7;"/>
   </g>
   <g id="patch_64">
    <path clip-path="url(#p963908a3a6)" d="M 317.749091 441 
L 331.952727 441 
L 331.952727 370.33863 
L 317.749091 370.33863 
z
" style="fill:#ff7f0e;opacity:0.7;"/>
   </g>
   <g id="patch_65">
    <path clip-path="url(#p963908a3a6)" d="M 331.952727 441 
L 346.156364 441 
L 346.156364 343.248615 
L 331.952727 343.248615 
z
" style="fill:#ff7f0e;opacity:0.7;"/>
   </g>
   <g id="patch_66">
    <path clip-path="url(#p963908a3a6)" d="M 346.156364 441 
L 360.36 441 
L 360.36 304.602718 
L 346.156364 304.602718 
z
" style="fill:#ff7f0e;opacity:0.7;"/>
   </g>
   <g id="patch_67">
    <path clip-path="url(#p963908a3a6)" d="M 360.36 441 
L 374.563636 441 
L 374.563636 279.975431 
L 360.36 279.975431 
z
" style="fill:#ff7f0e;opacity:0.7;"/>
   </g>
   <g id="patch_68">
    <path clip-path="url(#p963908a3a6)" d="M 374.563636 441 
L 388.767273 441 
L 388.767273 238.677365 
L 374.563636 238.677365 
z
" style="fill:#ff7f0e;opacity:0.7;"/>
   </g>
   <g id="patch_69">
    <path clip-path="url(#p963908a3a6)" d="M 388.767273 441 
L 402.970909 441 
L 402.970909 187.907266 
L 388.767273 187.907266 
z
" style="fill:#ff7f0e;opacity:0.7;"/>
   </g>
   <g id="patch_70">
    <path clip-path="url(#p963908a3a6)" d="M 402.970909 441 
L 417.174545 441 
L 417.174545 167.637114 
L 402.970909 167.637114 
z
" style="fill:#ff7f0e;opacity:0.7;"/>
   </g>
   <g id="patch_71">
    <path clip-path="url(#p963908a3a6)" d="M 417.174545 441 
L 431.378182 441 
L 431.378182 129.370099 
L 417.174545 129.370099 
z
" style="fill:#ff7f0e;opacity:0.7;"/>
   </g>
   <g id="patch_72">
    <path clip-path="url(#p963908a3a6)" d="M 431.378182 441 
L 445.581818 441 
L 445.581818 109.289388 
L 431.378182 109.289388 
z
" style="fill:#ff7f0e;opacity:0.7;"/>
   </g>
   <g id="patch_73">
    <path clip-path="url(#p963908a3a6)" d="M 445.581818 441 
L 459.785455 441 
L 459.785455 93.944694 
L 445.581818 93.944694 
z
" style="fill:#ff7f0e;opacity:0.7;"/>
   </g>
   <g id="patch_74">
    <path clip-path="url(#p963908a3a6)" d="M 459.785455 441 
L 473.989091 441 
L 473.989091 98.870152 
L 459.785455 98.870152 
z
" style="fill:#ff7f0e;opacity:0.7;"/>
   </g>
   <g id="patch_75">
    <path clip-path="url(#p963908a3a6)" d="M 473.989091 441 
L 488.192727 441 
L 488.192727 89.776999 
L 473.989091 89.776999 
z
" style="fill:#ff7f0e;opacity:0.7;"/>
   </g>
   <g id="patch_76">
    <path clip-path="url(#p963908a3a6)" d="M 488.192727 441 
L 502.396364 441 
L 502.396364 118.761422 
L 488.192727 118.761422 
z
" style="fill:#ff7f0e;opacity:0.7;"/>
   </g>
   <g id="patch_77">
    <path clip-path="url(#p963908a3a6)" d="M 502.396364 441 
L 516.6 441 
L 516.6 155.323471 
L 502.396364 155.323471 
z
" style="fill:#ff7f0e;opacity:0.7;"/>
   </g>
   <g id="patch_78">
    <path clip-path="url(#p963908a3a6)" d="M 516.6 441 
L 530.803636 441 
L 530.803636 194.916571 
L 516.6 194.916571 
z
" style="fill:#ff7f0e;opacity:0.7;"/>
   </g>
   <g id="patch_79">
    <path clip-path="url(#p963908a3a6)" d="M 530.803636 441 
L 545.007273 441 
L 545.007273 222.196027 
L 530.803636 222.196027 
z
" style="fill:#ff7f0e;opacity:0.7;"/>
   </g>
   <g id="patch_80">
    <path clip-path="url(#p963908a3a6)" d="M 545.007273 441 
L 559.210909 441 
L 559.210909 267.093466 
L 545.007273 267.093466 
z
" style="fill:#ff7f0e;opacity:0.7;"/>
   </g>
   <g id="patch_81">
    <path clip-path="url(#p963908a3a6)" d="M 559.210909 441 
L 573.414545 441 
L 573.414545 308.202091 
L 559.210909 308.202091 
z
" style="fill:#ff7f0e;opacity:0.7;"/>
   </g>
   <g id="patch_82">
    <path clip-path="url(#p963908a3a6)" d="M 573.414545 441 
L 587.618182 441 
L 587.618182 326.198955 
L 573.414545 326.198955 
z
" style="fill:#ff7f0e;opacity:0.7;"/>
   </g>
   <g id="patch_83">
    <path clip-path="url(#p963908a3a6)" d="M 587.618182 441 
L 601.821818 441 
L 601.821818 361.62436 
L 587.618182 361.62436 
z
" style="fill:#ff7f0e;opacity:0.7;"/>
   </g>
   <g id="patch_84">
    <path clip-path="url(#p963908a3a6)" d="M 601.821818 441 
L 616.025455 441 
L 616.025455 389.661579 
L 601.821818 389.661579 
z
" style="fill:#ff7f0e;opacity:0.7;"/>
   </g>
   <g id="patch_85">
    <path clip-path="url(#p963908a3a6)" d="M 616.025455 441 
L 630.229091 441 
L 630.229091 404.05907 
L 616.025455 404.05907 
z
" style="fill:#ff7f0e;opacity:0.7;"/>
   </g>
   <g id="patch_86">
    <path clip-path="url(#p963908a3a6)" d="M 630.229091 441 
L 644.432727 441 
L 644.432727 420.540408 
L 630.229091 420.540408 
z
" style="fill:#ff7f0e;opacity:0.7;"/>
   </g>
   <g id="patch_87">
    <path clip-path="url(#p963908a3a6)" d="M 644.432727 441 
L 658.636364 441 
L 658.636364 426.98139 
L 644.432727 426.98139 
z
" style="fill:#ff7f0e;opacity:0.7;"/>
   </g>
   <g id="patch_88">
    <path clip-path="url(#p963908a3a6)" d="M 658.636364 441 
L 672.84 441 
L 672.84 432.664611 
L 658.636364 432.664611 
z
" style="fill:#ff7f0e;opacity:0.7;"/>
   </g>
   <g id="patch_89">
    <path clip-path="url(#p963908a3a6)" d="M 672.84 441 
L 687.043636 441 
L 687.043636 435.695661 
L 672.84 435.695661 
z
" style="fill:#ff7f0e;opacity:0.7;"/>
   </g>
   <g id="patch_90">
    <path clip-path="url(#p963908a3a6)" d="M 687.043636 441 
L 701.247273 441 
L 701.247273 437.400627 
L 687.043636 437.400627 
z
" style="fill:#ff7f0e;opacity:0.7;"/>
   </g>
   <g id="patch_91">
    <path clip-path="url(#p963908a3a6)" d="M 701.247273 441 
L 715.450909 441 
L 715.450909 438.916153 
L 701.247273 438.916153 
z
" style="fill:#ff7f0e;opacity:0.7;"/>
   </g>
   <g id="patch_92">
    <path clip-path="url(#p963908a3a6)" d="M 715.450909 441 
L 729.654545 441 
L 729.654545 439.673915 
L 715.450909 439.673915 
z
" style="fill:#ff7f0e;opacity:0.7;"/>
   </g>
   <g id="patch_93">
    <path clip-path="url(#p963908a3a6)" d="M 729.654545 441 
L 743.858182 441 
L 743.858182 440.621119 
L 729.654545 440.621119 
z
" style="fill:#ff7f0e;opacity:0.7;"/>
   </g>
   <g id="patch_94">
    <path clip-path="url(#p963908a3a6)" d="M 743.858182 441 
L 758.061818 441 
L 758.061818 440.431678 
L 743.858182 440.431678 
z
" style="fill:#ff7f0e;opacity:0.7;"/>
   </g>
   <g id="patch_95">
    <path clip-path="url(#p963908a3a6)" d="M 758.061818 441 
L 772.265455 441 
L 772.265455 441 
L 758.061818 441 
z
" style="fill:#ff7f0e;opacity:0.7;"/>
   </g>
   <g id="patch_96">
    <path clip-path="url(#p963908a3a6)" d="M 772.265455 441 
L 786.469091 441 
L 786.469091 441 
L 772.265455 441 
z
" style="fill:#ff7f0e;opacity:0.7;"/>
   </g>
   <g id="patch_97">
    <path clip-path="url(#p963908a3a6)" d="M 786.469091 441 
L 800.672727 441 
L 800.672727 441 
L 786.469091 441 
z
" style="fill:#ff7f0e;opacity:0.7;"/>
   </g>
   <g id="patch_98">
    <path clip-path="url(#p963908a3a6)" d="M 800.672727 441 
L 814.876364 441 
L 814.876364 441 
L 800.672727 441 
z
" style="fill:#ff7f0e;opacity:0.7;"/>
   </g>
   <g id="patch_99">
    <path clip-path="url(#p963908a3a6)" d="M 814.876364 441 
L 829.08 441 
L 829.08 441 
L 814.876364 441 
z
" style="fill:#ff7f0e;opacity:0.7;"/>
   </g>
   <g id="patch_100">
    <path clip-path="url(#p963908a3a6)" d="M 829.08 441 
L 843.283636 441 
L 843.283636 441 
L 829.08 441 
z
" style="fill:#ff7f0e;opacity:0.7;"/>
   </g>
   <g id="patch_101">
    <path clip-path="url(#p963908a3a6)" d="M 843.283636 441 
L 857.487273 441 
L 857.487273 441 
L 843.283636 441 
z
" style="fill:#ff7f0e;opacity:0.7;"/>
   </g>
   <g id="patch_102">
    <path clip-path="url(#p963908a3a6)" d="M 857.487273 441 
L 871.690909 441 
L 871.690909 441 
L 857.487273 441 
z
" style="fill:#ff7f0e;opacity:0.7;"/>
   </g>
   <g id="matplotlib.axis_1">
    <g id="xtick_1">
     <g id="line2d_1">
      <defs>
       <path d="M 0 0 
L 0 3.5 
" id="m1b639d9e38" style="stroke:#000000;stroke-width:0.8;"/>
      </defs>
      <g>
       <use style="stroke:#000000;stroke-width:0.8;" x="226.784616" xlink:href="#m1b639d9e38" y="441"/>
      </g>
     </g>
     <g id="text_1">
      <!-- −40 -->
      <defs>
       <path d="M 10.59375 35.5 
L 73.1875 35.5 
L 73.1875 27.203125 
L 10.59375 27.203125 
z
" id="DejaVuSans-8722"/>
       <path d="M 37.796875 64.3125 
L 12.890625 25.390625 
L 37.796875 25.390625 
z
M 35.203125 72.90625 
L 47.609375 72.90625 
L 47.609375 25.390625 
L 58.015625 25.390625 
L 58.015625 17.1875 
L 47.609375 17.1875 
L 47.609375 0 
L 37.796875 0 
L 37.796875 17.1875 
L 4.890625 17.1875 
L 4.890625 26.703125 
z
" id="DejaVuSans-52"/>
       <path d="M 31.78125 66.40625 
Q 24.171875 66.40625 20.328125 58.90625 
Q 16.5 51.421875 16.5 36.375 
Q 16.5 21.390625 20.328125 13.890625 
Q 24.171875 6.390625 31.78125 6.390625 
Q 39.453125 6.390625 43.28125 13.890625 
Q 47.125 21.390625 47.125 36.375 
Q 47.125 51.421875 43.28125 58.90625 
Q 39.453125 66.40625 31.78125 66.40625 
z
M 31.78125 74.21875 
Q 44.046875 74.21875 50.515625 64.515625 
Q 56.984375 54.828125 56.984375 36.375 
Q 56.984375 17.96875 50.515625 8.265625 
Q 44.046875 -1.421875 31.78125 -1.421875 
Q 19.53125 -1.421875 13.0625 8.265625 
Q 6.59375 17.96875 6.59375 36.375 
Q 6.59375 54.828125 13.0625 64.515625 
Q 19.53125 74.21875 31.78125 74.21875 
z
" id="DejaVuSans-48"/>
      </defs>
      <g transform="translate(216.232273 455.598437)scale(0.1 -0.1)">
       <use xlink:href="#DejaVuSans-8722"/>
       <use x="83.789062" xlink:href="#DejaVuSans-52"/>
       <use x="147.412109" xlink:href="#DejaVuSans-48"/>
      </g>
     </g>
    </g>
    <g id="xtick_2">
     <g id="line2d_2">
      <g>
       <use style="stroke:#000000;stroke-width:0.8;" x="378.428917" xlink:href="#m1b639d9e38" y="441"/>
      </g>
     </g>
     <g id="text_2">
      <!-- −38 -->
      <defs>
       <path d="M 40.578125 39.3125 
Q 47.65625 37.796875 51.625 33 
Q 55.609375 28.21875 55.609375 21.1875 
Q 55.609375 10.40625 48.1875 4.484375 
Q 40.765625 -1.421875 27.09375 -1.421875 
Q 22.515625 -1.421875 17.65625 -0.515625 
Q 12.796875 0.390625 7.625 2.203125 
L 7.625 11.71875 
Q 11.71875 9.328125 16.59375 8.109375 
Q 21.484375 6.890625 26.8125 6.890625 
Q 36.078125 6.890625 40.9375 10.546875 
Q 45.796875 14.203125 45.796875 21.1875 
Q 45.796875 27.640625 41.28125 31.265625 
Q 36.765625 34.90625 28.71875 34.90625 
L 20.21875 34.90625 
L 20.21875 43.015625 
L 29.109375 43.015625 
Q 36.375 43.015625 40.234375 45.921875 
Q 44.09375 48.828125 44.09375 54.296875 
Q 44.09375 59.90625 40.109375 62.90625 
Q 36.140625 65.921875 28.71875 65.921875 
Q 24.65625 65.921875 20.015625 65.03125 
Q 15.375 64.15625 9.8125 62.3125 
L 9.8125 71.09375 
Q 15.4375 72.65625 20.34375 73.4375 
Q 25.25 74.21875 29.59375 74.21875 
Q 40.828125 74.21875 47.359375 69.109375 
Q 53.90625 64.015625 53.90625 55.328125 
Q 53.90625 49.265625 50.4375 45.09375 
Q 46.96875 40.921875 40.578125 39.3125 
z
" id="DejaVuSans-51"/>
       <path d="M 31.78125 34.625 
Q 24.75 34.625 20.71875 30.859375 
Q 16.703125 27.09375 16.703125 20.515625 
Q 16.703125 13.921875 20.71875 10.15625 
Q 24.75 6.390625 31.78125 6.390625 
Q 38.8125 6.390625 42.859375 10.171875 
Q 46.921875 13.96875 46.921875 20.515625 
Q 46.921875 27.09375 42.890625 30.859375 
Q 38.875 34.625 31.78125 34.625 
z
M 21.921875 38.8125 
Q 15.578125 40.375 12.03125 44.71875 
Q 8.5 49.078125 8.5 55.328125 
Q 8.5 64.0625 14.71875 69.140625 
Q 20.953125 74.21875 31.78125 74.21875 
Q 42.671875 74.21875 48.875 69.140625 
Q 55.078125 64.0625 55.078125 55.328125 
Q 55.078125 49.078125 51.53125 44.71875 
Q 48 40.375 41.703125 38.8125 
Q 48.828125 37.15625 52.796875 32.3125 
Q 56.78125 27.484375 56.78125 20.515625 
Q 56.78125 9.90625 50.3125 4.234375 
Q 43.84375 -1.421875 31.78125 -1.421875 
Q 19.734375 -1.421875 13.25 4.234375 
Q 6.78125 9.90625 6.78125 20.515625 
Q 6.78125 27.484375 10.78125 32.3125 
Q 14.796875 37.15625 21.921875 38.8125 
z
M 18.3125 54.390625 
Q 18.3125 48.734375 21.84375 45.5625 
Q 25.390625 42.390625 31.78125 42.390625 
Q 38.140625 42.390625 41.71875 45.5625 
Q 45.3125 48.734375 45.3125 54.390625 
Q 45.3125 60.0625 41.71875 63.234375 
Q 38.140625 66.40625 31.78125 66.40625 
Q 25.390625 66.40625 21.84375 63.234375 
Q 18.3125 60.0625 18.3125 54.390625 
z
" id="DejaVuSans-56"/>
      </defs>
      <g transform="translate(367.876573 455.598437)scale(0.1 -0.1)">
       <use xlink:href="#DejaVuSans-8722"/>
       <use x="83.789062" xlink:href="#DejaVuSans-51"/>
       <use x="147.412109" xlink:href="#DejaVuSans-56"/>
      </g>
     </g>
    </g>
    <g id="xtick_3">
     <g id="line2d_3">
      <g>
       <use style="stroke:#000000;stroke-width:0.8;" x="530.073218" xlink:href="#m1b639d9e38" y="441"/>
      </g>
     </g>
     <g id="text_3">
      <!-- −36 -->
      <defs>
       <path d="M 33.015625 40.375 
Q 26.375 40.375 22.484375 35.828125 
Q 18.609375 31.296875 18.609375 23.390625 
Q 18.609375 15.53125 22.484375 10.953125 
Q 26.375 6.390625 33.015625 6.390625 
Q 39.65625 6.390625 43.53125 10.953125 
Q 47.40625 15.53125 47.40625 23.390625 
Q 47.40625 31.296875 43.53125 35.828125 
Q 39.65625 40.375 33.015625 40.375 
z
M 52.59375 71.296875 
L 52.59375 62.3125 
Q 48.875 64.0625 45.09375 64.984375 
Q 41.3125 65.921875 37.59375 65.921875 
Q 27.828125 65.921875 22.671875 59.328125 
Q 17.53125 52.734375 16.796875 39.40625 
Q 19.671875 43.65625 24.015625 45.921875 
Q 28.375 48.1875 33.59375 48.1875 
Q 44.578125 48.1875 50.953125 41.515625 
Q 57.328125 34.859375 57.328125 23.390625 
Q 57.328125 12.15625 50.6875 5.359375 
Q 44.046875 -1.421875 33.015625 -1.421875 
Q 20.359375 -1.421875 13.671875 8.265625 
Q 6.984375 17.96875 6.984375 36.375 
Q 6.984375 53.65625 15.1875 63.9375 
Q 23.390625 74.21875 37.203125 74.21875 
Q 40.921875 74.21875 44.703125 73.484375 
Q 48.484375 72.75 52.59375 71.296875 
z
" id="DejaVuSans-54"/>
      </defs>
      <g transform="translate(519.520874 455.598437)scale(0.1 -0.1)">
       <use xlink:href="#DejaVuSans-8722"/>
       <use x="83.789062" xlink:href="#DejaVuSans-51"/>
       <use x="147.412109" xlink:href="#DejaVuSans-54"/>
      </g>
     </g>
    </g>
    <g id="xtick_4">
     <g id="line2d_4">
      <g>
       <use style="stroke:#000000;stroke-width:0.8;" x="681.717518" xlink:href="#m1b639d9e38" y="441"/>
      </g>
     </g>
     <g id="text_4">
      <!-- −34 -->
      <g transform="translate(671.165174 455.598437)scale(0.1 -0.1)">
       <use xlink:href="#DejaVuSans-8722"/>
       <use x="83.789062" xlink:href="#DejaVuSans-51"/>
       <use x="147.412109" xlink:href="#DejaVuSans-52"/>
      </g>
     </g>
    </g>
    <g id="xtick_5">
     <g id="line2d_5">
      <g>
       <use style="stroke:#000000;stroke-width:0.8;" x="833.361819" xlink:href="#m1b639d9e38" y="441"/>
      </g>
     </g>
     <g id="text_5">
      <!-- −32 -->
      <defs>
       <path d="M 19.1875 8.296875 
L 53.609375 8.296875 
L 53.609375 0 
L 7.328125 0 
L 7.328125 8.296875 
Q 12.9375 14.109375 22.625 23.890625 
Q 32.328125 33.6875 34.8125 36.53125 
Q 39.546875 41.84375 41.421875 45.53125 
Q 43.3125 49.21875 43.3125 52.78125 
Q 43.3125 58.59375 39.234375 62.25 
Q 35.15625 65.921875 28.609375 65.921875 
Q 23.96875 65.921875 18.8125 64.3125 
Q 13.671875 62.703125 7.8125 59.421875 
L 7.8125 69.390625 
Q 13.765625 71.78125 18.9375 73 
Q 24.125 74.21875 28.421875 74.21875 
Q 39.75 74.21875 46.484375 68.546875 
Q 53.21875 62.890625 53.21875 53.421875 
Q 53.21875 48.921875 51.53125 44.890625 
Q 49.859375 40.875 45.40625 35.40625 
Q 44.1875 33.984375 37.640625 27.21875 
Q 31.109375 20.453125 19.1875 8.296875 
z
" id="DejaVuSans-50"/>
      </defs>
      <g transform="translate(822.809475 455.598437)scale(0.1 -0.1)">
       <use xlink:href="#DejaVuSans-8722"/>
       <use x="83.789062" xlink:href="#DejaVuSans-51"/>
       <use x="147.412109" xlink:href="#DejaVuSans-50"/>
      </g>
     </g>
    </g>
    <g id="text_6">
     <!-- Control Point [m] -->
     <defs>
      <path d="M 64.40625 67.28125 
L 64.40625 56.890625 
Q 59.421875 61.53125 53.78125 63.8125 
Q 48.140625 66.109375 41.796875 66.109375 
Q 29.296875 66.109375 22.65625 58.46875 
Q 16.015625 50.828125 16.015625 36.375 
Q 16.015625 21.96875 22.65625 14.328125 
Q 29.296875 6.6875 41.796875 6.6875 
Q 48.140625 6.6875 53.78125 8.984375 
Q 59.421875 11.28125 64.40625 15.921875 
L 64.40625 5.609375 
Q 59.234375 2.09375 53.4375 0.328125 
Q 47.65625 -1.421875 41.21875 -1.421875 
Q 24.65625 -1.421875 15.125 8.703125 
Q 5.609375 18.84375 5.609375 36.375 
Q 5.609375 53.953125 15.125 64.078125 
Q 24.65625 74.21875 41.21875 74.21875 
Q 47.75 74.21875 53.53125 72.484375 
Q 59.328125 70.75 64.40625 67.28125 
z
" id="DejaVuSans-67"/>
      <path d="M 30.609375 48.390625 
Q 23.390625 48.390625 19.1875 42.75 
Q 14.984375 37.109375 14.984375 27.296875 
Q 14.984375 17.484375 19.15625 11.84375 
Q 23.34375 6.203125 30.609375 6.203125 
Q 37.796875 6.203125 41.984375 11.859375 
Q 46.1875 17.53125 46.1875 27.296875 
Q 46.1875 37.015625 41.984375 42.703125 
Q 37.796875 48.390625 30.609375 48.390625 
z
M 30.609375 56 
Q 42.328125 56 49.015625 48.375 
Q 55.71875 40.765625 55.71875 27.296875 
Q 55.71875 13.875 49.015625 6.21875 
Q 42.328125 -1.421875 30.609375 -1.421875 
Q 18.84375 -1.421875 12.171875 6.21875 
Q 5.515625 13.875 5.515625 27.296875 
Q 5.515625 40.765625 12.171875 48.375 
Q 18.84375 56 30.609375 56 
z
" id="DejaVuSans-111"/>
      <path d="M 54.890625 33.015625 
L 54.890625 0 
L 45.90625 0 
L 45.90625 32.71875 
Q 45.90625 40.484375 42.875 44.328125 
Q 39.84375 48.1875 33.796875 48.1875 
Q 26.515625 48.1875 22.3125 43.546875 
Q 18.109375 38.921875 18.109375 30.90625 
L 18.109375 0 
L 9.078125 0 
L 9.078125 54.6875 
L 18.109375 54.6875 
L 18.109375 46.1875 
Q 21.34375 51.125 25.703125 53.5625 
Q 30.078125 56 35.796875 56 
Q 45.21875 56 50.046875 50.171875 
Q 54.890625 44.34375 54.890625 33.015625 
z
" id="DejaVuSans-110"/>
      <path d="M 18.3125 70.21875 
L 18.3125 54.6875 
L 36.8125 54.6875 
L 36.8125 47.703125 
L 18.3125 47.703125 
L 18.3125 18.015625 
Q 18.3125 11.328125 20.140625 9.421875 
Q 21.96875 7.515625 27.59375 7.515625 
L 36.8125 7.515625 
L 36.8125 0 
L 27.59375 0 
Q 17.1875 0 13.234375 3.875 
Q 9.28125 7.765625 9.28125 18.015625 
L 9.28125 47.703125 
L 2.6875 47.703125 
L 2.6875 54.6875 
L 9.28125 54.6875 
L 9.28125 70.21875 
z
" id="DejaVuSans-116"/>
      <path d="M 41.109375 46.296875 
Q 39.59375 47.171875 37.8125 47.578125 
Q 36.03125 48 33.890625 48 
Q 26.265625 48 22.1875 43.046875 
Q 18.109375 38.09375 18.109375 28.8125 
L 18.109375 0 
L 9.078125 0 
L 9.078125 54.6875 
L 18.109375 54.6875 
L 18.109375 46.1875 
Q 20.953125 51.171875 25.484375 53.578125 
Q 30.03125 56 36.53125 56 
Q 37.453125 56 38.578125 55.875 
Q 39.703125 55.765625 41.0625 55.515625 
z
" id="DejaVuSans-114"/>
      <path d="M 9.421875 75.984375 
L 18.40625 75.984375 
L 18.40625 0 
L 9.421875 0 
z
" id="DejaVuSans-108"/>
      <path id="DejaVuSans-32"/>
      <path d="M 19.671875 64.796875 
L 19.671875 37.40625 
L 32.078125 37.40625 
Q 38.96875 37.40625 42.71875 40.96875 
Q 46.484375 44.53125 46.484375 51.125 
Q 46.484375 57.671875 42.71875 61.234375 
Q 38.96875 64.796875 32.078125 64.796875 
z
M 9.8125 72.90625 
L 32.078125 72.90625 
Q 44.34375 72.90625 50.609375 67.359375 
Q 56.890625 61.8125 56.890625 51.125 
Q 56.890625 40.328125 50.609375 34.8125 
Q 44.34375 29.296875 32.078125 29.296875 
L 19.671875 29.296875 
L 19.671875 0 
L 9.8125 0 
z
" id="DejaVuSans-80"/>
      <path d="M 9.421875 54.6875 
L 18.40625 54.6875 
L 18.40625 0 
L 9.421875 0 
z
M 9.421875 75.984375 
L 18.40625 75.984375 
L 18.40625 64.59375 
L 9.421875 64.59375 
z
" id="DejaVuSans-105"/>
      <path d="M 8.59375 75.984375 
L 29.296875 75.984375 
L 29.296875 69 
L 17.578125 69 
L 17.578125 -6.203125 
L 29.296875 -6.203125 
L 29.296875 -13.1875 
L 8.59375 -13.1875 
z
" id="DejaVuSans-91"/>
      <path d="M 52 44.1875 
Q 55.375 50.25 60.0625 53.125 
Q 64.75 56 71.09375 56 
Q 79.640625 56 84.28125 50.015625 
Q 88.921875 44.046875 88.921875 33.015625 
L 88.921875 0 
L 79.890625 0 
L 79.890625 32.71875 
Q 79.890625 40.578125 77.09375 44.375 
Q 74.3125 48.1875 68.609375 48.1875 
Q 61.625 48.1875 57.5625 43.546875 
Q 53.515625 38.921875 53.515625 30.90625 
L 53.515625 0 
L 44.484375 0 
L 44.484375 32.71875 
Q 44.484375 40.625 41.703125 44.40625 
Q 38.921875 48.1875 33.109375 48.1875 
Q 26.21875 48.1875 22.15625 43.53125 
Q 18.109375 38.875 18.109375 30.90625 
L 18.109375 0 
L 9.078125 0 
L 9.078125 54.6875 
L 18.109375 54.6875 
L 18.109375 46.1875 
Q 21.1875 51.21875 25.484375 53.609375 
Q 29.78125 56 35.6875 56 
Q 41.65625 56 45.828125 52.96875 
Q 50 49.953125 52 44.1875 
z
" id="DejaVuSans-109"/>
      <path d="M 30.421875 75.984375 
L 30.421875 -13.1875 
L 9.71875 -13.1875 
L 9.71875 -6.203125 
L 21.390625 -6.203125 
L 21.390625 69 
L 9.71875 69 
L 9.71875 75.984375 
z
" id="DejaVuSans-93"/>
     </defs>
     <g transform="translate(474.167969 469.276563)scale(0.1 -0.1)">
      <use xlink:href="#DejaVuSans-67"/>
      <use x="69.824219" xlink:href="#DejaVuSans-111"/>
      <use x="131.005859" xlink:href="#DejaVuSans-110"/>
      <use x="194.384766" xlink:href="#DejaVuSans-116"/>
      <use x="233.59375" xlink:href="#DejaVuSans-114"/>
      <use x="272.457031" xlink:href="#DejaVuSans-111"/>
      <use x="333.638672" xlink:href="#DejaVuSans-108"/>
      <use x="361.421875" xlink:href="#DejaVuSans-32"/>
      <use x="393.208984" xlink:href="#DejaVuSans-80"/>
      <use x="449.886719" xlink:href="#DejaVuSans-111"/>
      <use x="511.068359" xlink:href="#DejaVuSans-105"/>
      <use x="538.851562" xlink:href="#DejaVuSans-110"/>
      <use x="602.230469" xlink:href="#DejaVuSans-116"/>
      <use x="641.439453" xlink:href="#DejaVuSans-32"/>
      <use x="673.226562" xlink:href="#DejaVuSans-91"/>
      <use x="712.240234" xlink:href="#DejaVuSans-109"/>
      <use x="809.652344" xlink:href="#DejaVuSans-93"/>
     </g>
    </g>
   </g>
   <g id="matplotlib.axis_2">
    <g id="ytick_1">
     <g id="line2d_6">
      <defs>
       <path d="M 0 0 
L -3.5 0 
" id="m17ce40ca85" style="stroke:#000000;stroke-width:0.8;"/>
      </defs>
      <g>
       <use style="stroke:#000000;stroke-width:0.8;" x="126" xlink:href="#m17ce40ca85" y="441"/>
      </g>
     </g>
     <g id="text_7">
      <!-- 0.00 -->
      <defs>
       <path d="M 10.6875 12.40625 
L 21 12.40625 
L 21 0 
L 10.6875 0 
z
" id="DejaVuSans-46"/>
      </defs>
      <g transform="translate(96.734375 444.799219)scale(0.1 -0.1)">
       <use xlink:href="#DejaVuSans-48"/>
       <use x="63.623047" xlink:href="#DejaVuSans-46"/>
       <use x="95.410156" xlink:href="#DejaVuSans-48"/>
       <use x="159.033203" xlink:href="#DejaVuSans-48"/>
      </g>
     </g>
    </g>
    <g id="ytick_2">
     <g id="line2d_7">
      <g>
       <use style="stroke:#000000;stroke-width:0.8;" x="126" xlink:href="#m17ce40ca85" y="396.640496"/>
      </g>
     </g>
     <g id="text_8">
      <!-- 0.05 -->
      <defs>
       <path d="M 10.796875 72.90625 
L 49.515625 72.90625 
L 49.515625 64.59375 
L 19.828125 64.59375 
L 19.828125 46.734375 
Q 21.96875 47.46875 24.109375 47.828125 
Q 26.265625 48.1875 28.421875 48.1875 
Q 40.625 48.1875 47.75 41.5 
Q 54.890625 34.8125 54.890625 23.390625 
Q 54.890625 11.625 47.5625 5.09375 
Q 40.234375 -1.421875 26.90625 -1.421875 
Q 22.3125 -1.421875 17.546875 -0.640625 
Q 12.796875 0.140625 7.71875 1.703125 
L 7.71875 11.625 
Q 12.109375 9.234375 16.796875 8.0625 
Q 21.484375 6.890625 26.703125 6.890625 
Q 35.15625 6.890625 40.078125 11.328125 
Q 45.015625 15.765625 45.015625 23.390625 
Q 45.015625 31 40.078125 35.4375 
Q 35.15625 39.890625 26.703125 39.890625 
Q 22.75 39.890625 18.8125 39.015625 
Q 14.890625 38.140625 10.796875 36.28125 
z
" id="DejaVuSans-53"/>
      </defs>
      <g transform="translate(96.734375 400.439715)scale(0.1 -0.1)">
       <use xlink:href="#DejaVuSans-48"/>
       <use x="63.623047" xlink:href="#DejaVuSans-46"/>
       <use x="95.410156" xlink:href="#DejaVuSans-48"/>
       <use x="159.033203" xlink:href="#DejaVuSans-53"/>
      </g>
     </g>
    </g>
    <g id="ytick_3">
     <g id="line2d_8">
      <g>
       <use style="stroke:#000000;stroke-width:0.8;" x="126" xlink:href="#m17ce40ca85" y="352.280992"/>
      </g>
     </g>
     <g id="text_9">
      <!-- 0.10 -->
      <defs>
       <path d="M 12.40625 8.296875 
L 28.515625 8.296875 
L 28.515625 63.921875 
L 10.984375 60.40625 
L 10.984375 69.390625 
L 28.421875 72.90625 
L 38.28125 72.90625 
L 38.28125 8.296875 
L 54.390625 8.296875 
L 54.390625 0 
L 12.40625 0 
z
" id="DejaVuSans-49"/>
      </defs>
      <g transform="translate(96.734375 356.080211)scale(0.1 -0.1)">
       <use xlink:href="#DejaVuSans-48"/>
       <use x="63.623047" xlink:href="#DejaVuSans-46"/>
       <use x="95.410156" xlink:href="#DejaVuSans-49"/>
       <use x="159.033203" xlink:href="#DejaVuSans-48"/>
      </g>
     </g>
    </g>
    <g id="ytick_4">
     <g id="line2d_9">
      <g>
       <use style="stroke:#000000;stroke-width:0.8;" x="126" xlink:href="#m17ce40ca85" y="307.921488"/>
      </g>
     </g>
     <g id="text_10">
      <!-- 0.15 -->
      <g transform="translate(96.734375 311.720707)scale(0.1 -0.1)">
       <use xlink:href="#DejaVuSans-48"/>
       <use x="63.623047" xlink:href="#DejaVuSans-46"/>
       <use x="95.410156" xlink:href="#DejaVuSans-49"/>
       <use x="159.033203" xlink:href="#DejaVuSans-53"/>
      </g>
     </g>
    </g>
    <g id="ytick_5">
     <g id="line2d_10">
      <g>
       <use style="stroke:#000000;stroke-width:0.8;" x="126" xlink:href="#m17ce40ca85" y="263.561984"/>
      </g>
     </g>
     <g id="text_11">
      <!-- 0.20 -->
      <g transform="translate(96.734375 267.361203)scale(0.1 -0.1)">
       <use xlink:href="#DejaVuSans-48"/>
       <use x="63.623047" xlink:href="#DejaVuSans-46"/>
       <use x="95.410156" xlink:href="#DejaVuSans-50"/>
       <use x="159.033203" xlink:href="#DejaVuSans-48"/>
      </g>
     </g>
    </g>
    <g id="ytick_6">
     <g id="line2d_11">
      <g>
       <use style="stroke:#000000;stroke-width:0.8;" x="126" xlink:href="#m17ce40ca85" y="219.202481"/>
      </g>
     </g>
     <g id="text_12">
      <!-- 0.25 -->
      <g transform="translate(96.734375 223.001699)scale(0.1 -0.1)">
       <use xlink:href="#DejaVuSans-48"/>
       <use x="63.623047" xlink:href="#DejaVuSans-46"/>
       <use x="95.410156" xlink:href="#DejaVuSans-50"/>
       <use x="159.033203" xlink:href="#DejaVuSans-53"/>
      </g>
     </g>
    </g>
    <g id="ytick_7">
     <g id="line2d_12">
      <g>
       <use style="stroke:#000000;stroke-width:0.8;" x="126" xlink:href="#m17ce40ca85" y="174.842977"/>
      </g>
     </g>
     <g id="text_13">
      <!-- 0.30 -->
      <g transform="translate(96.734375 178.642195)scale(0.1 -0.1)">
       <use xlink:href="#DejaVuSans-48"/>
       <use x="63.623047" xlink:href="#DejaVuSans-46"/>
       <use x="95.410156" xlink:href="#DejaVuSans-51"/>
       <use x="159.033203" xlink:href="#DejaVuSans-48"/>
      </g>
     </g>
    </g>
    <g id="ytick_8">
     <g id="line2d_13">
      <g>
       <use style="stroke:#000000;stroke-width:0.8;" x="126" xlink:href="#m17ce40ca85" y="130.483473"/>
      </g>
     </g>
     <g id="text_14">
      <!-- 0.35 -->
      <g transform="translate(96.734375 134.282692)scale(0.1 -0.1)">
       <use xlink:href="#DejaVuSans-48"/>
       <use x="63.623047" xlink:href="#DejaVuSans-46"/>
       <use x="95.410156" xlink:href="#DejaVuSans-51"/>
       <use x="159.033203" xlink:href="#DejaVuSans-53"/>
      </g>
     </g>
    </g>
    <g id="ytick_9">
     <g id="line2d_14">
      <g>
       <use style="stroke:#000000;stroke-width:0.8;" x="126" xlink:href="#m17ce40ca85" y="86.123969"/>
      </g>
     </g>
     <g id="text_15">
      <!-- 0.40 -->
      <g transform="translate(96.734375 89.923188)scale(0.1 -0.1)">
       <use xlink:href="#DejaVuSans-48"/>
       <use x="63.623047" xlink:href="#DejaVuSans-46"/>
       <use x="95.410156" xlink:href="#DejaVuSans-52"/>
       <use x="159.033203" xlink:href="#DejaVuSans-48"/>
      </g>
     </g>
    </g>
    <g id="text_16">
     <!-- Probability -->
     <defs>
      <path d="M 48.6875 27.296875 
Q 48.6875 37.203125 44.609375 42.84375 
Q 40.53125 48.484375 33.40625 48.484375 
Q 26.265625 48.484375 22.1875 42.84375 
Q 18.109375 37.203125 18.109375 27.296875 
Q 18.109375 17.390625 22.1875 11.75 
Q 26.265625 6.109375 33.40625 6.109375 
Q 40.53125 6.109375 44.609375 11.75 
Q 48.6875 17.390625 48.6875 27.296875 
z
M 18.109375 46.390625 
Q 20.953125 51.265625 25.265625 53.625 
Q 29.59375 56 35.59375 56 
Q 45.5625 56 51.78125 48.09375 
Q 58.015625 40.1875 58.015625 27.296875 
Q 58.015625 14.40625 51.78125 6.484375 
Q 45.5625 -1.421875 35.59375 -1.421875 
Q 29.59375 -1.421875 25.265625 0.953125 
Q 20.953125 3.328125 18.109375 8.203125 
L 18.109375 0 
L 9.078125 0 
L 9.078125 75.984375 
L 18.109375 75.984375 
z
" id="DejaVuSans-98"/>
      <path d="M 34.28125 27.484375 
Q 23.390625 27.484375 19.1875 25 
Q 14.984375 22.515625 14.984375 16.5 
Q 14.984375 11.71875 18.140625 8.90625 
Q 21.296875 6.109375 26.703125 6.109375 
Q 34.1875 6.109375 38.703125 11.40625 
Q 43.21875 16.703125 43.21875 25.484375 
L 43.21875 27.484375 
z
M 52.203125 31.203125 
L 52.203125 0 
L 43.21875 0 
L 43.21875 8.296875 
Q 40.140625 3.328125 35.546875 0.953125 
Q 30.953125 -1.421875 24.3125 -1.421875 
Q 15.921875 -1.421875 10.953125 3.296875 
Q 6 8.015625 6 15.921875 
Q 6 25.140625 12.171875 29.828125 
Q 18.359375 34.515625 30.609375 34.515625 
L 43.21875 34.515625 
L 43.21875 35.40625 
Q 43.21875 41.609375 39.140625 45 
Q 35.0625 48.390625 27.6875 48.390625 
Q 23 48.390625 18.546875 47.265625 
Q 14.109375 46.140625 10.015625 43.890625 
L 10.015625 52.203125 
Q 14.9375 54.109375 19.578125 55.046875 
Q 24.21875 56 28.609375 56 
Q 40.484375 56 46.34375 49.84375 
Q 52.203125 43.703125 52.203125 31.203125 
z
" id="DejaVuSans-97"/>
      <path d="M 32.171875 -5.078125 
Q 28.375 -14.84375 24.75 -17.8125 
Q 21.140625 -20.796875 15.09375 -20.796875 
L 7.90625 -20.796875 
L 7.90625 -13.28125 
L 13.1875 -13.28125 
Q 16.890625 -13.28125 18.9375 -11.515625 
Q 21 -9.765625 23.484375 -3.21875 
L 25.09375 0.875 
L 2.984375 54.6875 
L 12.5 54.6875 
L 29.59375 11.921875 
L 46.6875 54.6875 
L 56.203125 54.6875 
z
" id="DejaVuSans-121"/>
     </defs>
     <g transform="translate(90.654687 277.168906)rotate(-90)scale(0.1 -0.1)">
      <use xlink:href="#DejaVuSans-80"/>
      <use x="58.552734" xlink:href="#DejaVuSans-114"/>
      <use x="97.416016" xlink:href="#DejaVuSans-111"/>
      <use x="158.597656" xlink:href="#DejaVuSans-98"/>
      <use x="222.074219" xlink:href="#DejaVuSans-97"/>
      <use x="283.353516" xlink:href="#DejaVuSans-98"/>
      <use x="346.830078" xlink:href="#DejaVuSans-105"/>
      <use x="374.613281" xlink:href="#DejaVuSans-108"/>
      <use x="402.396484" xlink:href="#DejaVuSans-105"/>
      <use x="430.179688" xlink:href="#DejaVuSans-116"/>
      <use x="469.388672" xlink:href="#DejaVuSans-121"/>
     </g>
    </g>
   </g>
   <g id="LineCollection_1">
    <path clip-path="url(#p963908a3a6)" d="M 461.307151 441 
L 461.307151 60.48 
" style="fill:none;stroke:#a52a2a;stroke-dasharray:9.6,2.4,1.5,2.4;stroke-dashoffset:0;stroke-width:1.5;"/>
   </g>
   <g id="LineCollection_2">
    <path clip-path="url(#p963908a3a6)" d="M 605.813884 441 
L 605.813884 60.48 
" style="fill:none;stroke:#4169e1;stroke-dasharray:9.6,2.4,1.5,2.4;stroke-dashoffset:0;stroke-width:1.5;"/>
   </g>
   <g id="line2d_15">
    <path clip-path="url(#p963908a3a6)" d="M 126 440.979001 
L 165.256281 440.820642 
L 184.884422 440.525714 
L 196.661307 440.176748 
L 208.438191 439.604921 
L 216.289447 439.043329 
L 224.140704 438.284792 
L 231.99196 437.27218 
L 239.843216 435.93624 
L 247.694472 434.194537 
L 251.620101 433.141993 
L 255.545729 431.95083 
L 259.471357 430.606863 
L 263.396985 429.095088 
L 267.322613 427.399737 
L 271.248241 425.504341 
L 275.173869 423.391823 
L 279.099497 421.044604 
L 283.025126 418.444737 
L 286.950754 415.574057 
L 290.876382 412.414366 
L 294.80201 408.947626 
L 298.727638 405.156188 
L 302.653266 401.02304 
L 306.578894 396.532065 
L 310.504523 391.668337 
L 314.430151 386.418412 
L 318.355779 380.77065 
L 322.281407 374.71553 
L 326.207035 368.245978 
L 330.132663 361.357692 
L 334.058291 354.049463 
L 337.98392 346.323475 
L 341.909548 338.185599 
L 345.835176 329.645646 
L 349.760804 320.717608 
L 353.686432 311.419838 
L 357.61206 301.775205 
L 365.463317 281.559906 
L 373.314573 260.347109 
L 385.091457 227.436011 
L 396.868342 194.517786 
L 404.719598 173.392269 
L 408.645226 163.273322 
L 412.570854 153.539518 
L 416.496482 144.257122 
L 420.422111 135.49096 
L 424.347739 127.303674 
L 428.273367 119.754979 
L 432.198995 112.900942 
L 436.124623 106.793288 
L 440.050251 101.478752 
L 443.975879 96.998485 
L 447.901508 93.387522 
L 451.827136 90.674327 
L 455.752764 88.880417 
L 459.678392 88.020082 
L 463.60402 88.100191 
L 467.529648 89.120104 
L 471.455276 91.07168 
L 475.380905 93.939383 
L 479.306533 97.70049 
L 483.232161 102.325391 
L 487.157789 107.777975 
L 491.083417 114.016103 
L 495.009045 120.992146 
L 498.934673 128.653593 
L 502.860302 136.943705 
L 506.78593 145.802219 
L 510.711558 155.166068 
L 514.637186 164.970127 
L 522.488442 185.63257 
L 530.339698 207.255528 
L 549.967839 262.182895 
L 557.819095 283.32335 
L 565.670352 303.44001 
L 569.59598 313.027422 
L 573.521608 322.263756 
L 577.447236 331.126919 
L 581.372864 339.599312 
L 585.298492 347.66767 
L 589.224121 355.322868 
L 593.149749 362.559683 
L 597.075377 369.376529 
L 601.001005 375.775164 
L 604.926633 381.760385 
L 608.852261 387.339703 
L 612.777889 392.523024 
L 616.703518 397.322319 
L 620.629146 401.751304 
L 624.554774 405.825131 
L 628.480402 409.560085 
L 632.40603 412.973308 
L 636.331658 416.082531 
L 640.257286 418.905834 
L 644.182915 421.461424 
L 648.108543 423.76744 
L 652.034171 425.841776 
L 655.959799 427.701936 
L 659.885427 429.364899 
L 663.811055 430.847022 
L 667.736683 432.163945 
L 671.662312 433.330538 
L 675.58794 434.360841 
L 683.439196 436.064466 
L 691.290452 437.369874 
L 699.141709 438.358348 
L 706.992965 439.098064 
L 714.844221 439.645176 
L 726.621106 440.201592 
L 738.39799 440.540652 
L 758.026131 440.826685 
L 785.505528 440.960413 
L 860.092462 440.999628 
L 907.2 440.999988 
L 907.2 440.999988 
" style="fill:none;stroke:#a52a2a;stroke-linecap:square;stroke-width:2;"/>
   </g>
   <g id="line2d_16">
    <path clip-path="url(#p963908a3a6)" d="M 126 441 
L 302.653266 440.90214 
L 326.207035 440.66665 
L 341.909548 440.285734 
L 353.686432 439.771063 
L 361.537688 439.25953 
L 369.388945 438.562061 
L 377.240201 437.622478 
L 385.091457 436.372007 
L 392.942714 434.727996 
L 396.868342 433.728562 
L 400.79397 432.593037 
L 404.719598 431.3069 
L 408.645226 429.854718 
L 412.570854 428.220195 
L 416.496482 426.386233 
L 420.422111 424.335016 
L 424.347739 422.048114 
L 428.273367 419.506619 
L 432.198995 416.691294 
L 436.124623 413.582761 
L 440.050251 410.161703 
L 443.975879 406.409101 
L 447.901508 402.306493 
L 451.827136 397.836255 
L 455.752764 392.981903 
L 459.678392 387.728424 
L 463.60402 382.062604 
L 467.529648 375.973389 
L 471.455276 369.452232 
L 475.380905 362.493458 
L 479.306533 355.094614 
L 483.232161 347.256811 
L 487.157789 338.985045 
L 491.083417 330.288496 
L 495.009045 321.180792 
L 498.934673 311.680229 
L 502.860302 301.809949 
L 510.711558 281.077675 
L 518.562814 259.268947 
L 530.339698 225.352155 
L 542.116583 191.365739 
L 549.967839 169.543129 
L 553.893467 159.092686 
L 557.819095 149.044516 
L 561.744724 139.469174 
L 565.670352 130.435661 
L 569.59598 122.010608 
L 573.521608 114.257458 
L 577.447236 107.235676 
L 581.372864 100.999989 
L 585.298492 95.59968 
L 589.224121 91.077936 
L 593.149749 87.471274 
L 597.075377 84.809055 
L 601.001005 83.113077 
L 604.926633 82.397286 
L 608.852261 82.667581 
L 612.777889 83.921733 
L 616.703518 86.149417 
L 620.629146 89.332354 
L 624.554774 93.444557 
L 628.480402 98.45269 
L 632.40603 104.316514 
L 636.331658 110.989425 
L 640.257286 118.419073 
L 644.182915 126.548043 
L 648.108543 135.314593 
L 652.034171 144.653435 
L 655.959799 154.496537 
L 659.885427 164.773944 
L 667.736683 186.347152 
L 675.58794 208.805685 
L 691.290452 254.226559 
L 699.141709 276.230959 
L 706.992965 297.234308 
L 710.918593 307.262789 
L 714.844221 316.933637 
L 718.769849 326.221478 
L 722.695477 335.105844 
L 726.621106 343.571022 
L 730.546734 351.605852 
L 734.472362 359.203482 
L 738.39799 366.361083 
L 742.323618 373.079538 
L 746.249246 379.363109 
L 750.174874 385.219089 
L 754.100503 390.657444 
L 758.026131 395.690453 
L 761.951759 400.332361 
L 765.877387 404.599028 
L 769.803015 408.507599 
L 773.728643 412.076197 
L 777.654271 415.32362 
L 781.579899 418.269082 
L 785.505528 420.931961 
L 789.431156 423.331581 
L 793.356784 425.48702 
L 797.282412 427.416942 
L 801.20804 429.139455 
L 805.133668 430.671992 
L 809.059296 432.031222 
L 812.984925 433.232975 
L 816.910553 434.292186 
L 820.836181 435.222871 
L 828.687437 436.750004 
L 836.538693 437.907682 
L 844.38995 438.774647 
L 852.241206 439.416082 
L 864.01809 440.068314 
L 875.794975 440.465375 
L 891.497487 440.754704 
L 907.2 440.892302 
L 907.2 440.892302 
" style="fill:none;stroke:#4169e1;stroke-linecap:square;stroke-width:2;"/>
   </g>
   <g id="patch_103">
    <path d="M 126 441 
L 126 60.48 
" style="fill:none;stroke:#000000;stroke-linecap:square;stroke-linejoin:miter;stroke-width:0.8;"/>
   </g>
   <g id="patch_104">
    <path d="M 907.2 441 
L 907.2 60.48 
" style="fill:none;stroke:#000000;stroke-linecap:square;stroke-linejoin:miter;stroke-width:0.8;"/>
   </g>
   <g id="patch_105">
    <path d="M 126 441 
L 907.2 441 
" style="fill:none;stroke:#000000;stroke-linecap:square;stroke-linejoin:miter;stroke-width:0.8;"/>
   </g>
   <g id="patch_106">
    <path d="M 126 60.48 
L 907.2 60.48 
" style="fill:none;stroke:#000000;stroke-linecap:square;stroke-linejoin:miter;stroke-width:0.8;"/>
   </g>
   <g id="legend_1">
    <g id="patch_107">
     <path d="M 762.43125 127.1925 
L 900.2 127.1925 
Q 902.2 127.1925 902.2 125.1925 
L 902.2 67.48 
Q 902.2 65.48 900.2 65.48 
L 762.43125 65.48 
Q 760.43125 65.48 760.43125 67.48 
L 760.43125 125.1925 
Q 760.43125 127.1925 762.43125 127.1925 
z
" style="fill:#ffffff;opacity:0.8;stroke:#cccccc;stroke-linejoin:miter;"/>
    </g>
    <g id="patch_108">
     <path d="M 764.43125 77.078438 
L 784.43125 77.078438 
L 784.43125 70.078438 
L 764.43125 70.078438 
z
" style="fill:#1f77b4;opacity:0.7;"/>
    </g>
    <g id="text_17">
     <!-- Posterior -->
     <defs>
      <path d="M 44.28125 53.078125 
L 44.28125 44.578125 
Q 40.484375 46.53125 36.375 47.5 
Q 32.28125 48.484375 27.875 48.484375 
Q 21.1875 48.484375 17.84375 46.4375 
Q 14.5 44.390625 14.5 40.28125 
Q 14.5 37.15625 16.890625 35.375 
Q 19.28125 33.59375 26.515625 31.984375 
L 29.59375 31.296875 
Q 39.15625 29.25 43.1875 25.515625 
Q 47.21875 21.78125 47.21875 15.09375 
Q 47.21875 7.46875 41.1875 3.015625 
Q 35.15625 -1.421875 24.609375 -1.421875 
Q 20.21875 -1.421875 15.453125 -0.5625 
Q 10.6875 0.296875 5.421875 2 
L 5.421875 11.28125 
Q 10.40625 8.6875 15.234375 7.390625 
Q 20.0625 6.109375 24.8125 6.109375 
Q 31.15625 6.109375 34.5625 8.28125 
Q 37.984375 10.453125 37.984375 14.40625 
Q 37.984375 18.0625 35.515625 20.015625 
Q 33.0625 21.96875 24.703125 23.78125 
L 21.578125 24.515625 
Q 13.234375 26.265625 9.515625 29.90625 
Q 5.8125 33.546875 5.8125 39.890625 
Q 5.8125 47.609375 11.28125 51.796875 
Q 16.75 56 26.8125 56 
Q 31.78125 56 36.171875 55.265625 
Q 40.578125 54.546875 44.28125 53.078125 
z
" id="DejaVuSans-115"/>
      <path d="M 56.203125 29.59375 
L 56.203125 25.203125 
L 14.890625 25.203125 
Q 15.484375 15.921875 20.484375 11.0625 
Q 25.484375 6.203125 34.421875 6.203125 
Q 39.59375 6.203125 44.453125 7.46875 
Q 49.3125 8.734375 54.109375 11.28125 
L 54.109375 2.78125 
Q 49.265625 0.734375 44.1875 -0.34375 
Q 39.109375 -1.421875 33.890625 -1.421875 
Q 20.796875 -1.421875 13.15625 6.1875 
Q 5.515625 13.8125 5.515625 26.8125 
Q 5.515625 40.234375 12.765625 48.109375 
Q 20.015625 56 32.328125 56 
Q 43.359375 56 49.78125 48.890625 
Q 56.203125 41.796875 56.203125 29.59375 
z
M 47.21875 32.234375 
Q 47.125 39.59375 43.09375 43.984375 
Q 39.0625 48.390625 32.421875 48.390625 
Q 24.90625 48.390625 20.390625 44.140625 
Q 15.875 39.890625 15.1875 32.171875 
z
" id="DejaVuSans-101"/>
     </defs>
     <g transform="translate(792.43125 77.078438)scale(0.1 -0.1)">
      <use xlink:href="#DejaVuSans-80"/>
      <use x="56.677734" xlink:href="#DejaVuSans-111"/>
      <use x="117.859375" xlink:href="#DejaVuSans-115"/>
      <use x="169.958984" xlink:href="#DejaVuSans-116"/>
      <use x="209.167969" xlink:href="#DejaVuSans-101"/>
      <use x="270.691406" xlink:href="#DejaVuSans-114"/>
      <use x="311.804688" xlink:href="#DejaVuSans-105"/>
      <use x="339.587891" xlink:href="#DejaVuSans-111"/>
      <use x="400.769531" xlink:href="#DejaVuSans-114"/>
     </g>
    </g>
    <g id="patch_109">
     <path d="M 764.43125 91.756563 
L 784.43125 91.756563 
L 784.43125 84.756563 
L 764.43125 84.756563 
z
" style="fill:#ff7f0e;opacity:0.7;"/>
    </g>
    <g id="text_18">
     <!-- Prior -->
     <g transform="translate(792.43125 91.756563)scale(0.1 -0.1)">
      <use xlink:href="#DejaVuSans-80"/>
      <use x="58.552734" xlink:href="#DejaVuSans-114"/>
      <use x="99.666016" xlink:href="#DejaVuSans-105"/>
      <use x="127.449219" xlink:href="#DejaVuSans-111"/>
      <use x="188.630859" xlink:href="#DejaVuSans-114"/>
     </g>
    </g>
    <g id="line2d_17">
     <path d="M 764.43125 102.934687 
L 784.43125 102.934687 
" style="fill:none;stroke:#a52a2a;stroke-dasharray:9.6,2.4,1.5,2.4;stroke-dashoffset:0;stroke-width:1.5;"/>
    </g>
    <g id="text_19">
     <!-- Prior score mean -->
     <defs>
      <path d="M 48.78125 52.59375 
L 48.78125 44.1875 
Q 44.96875 46.296875 41.140625 47.34375 
Q 37.3125 48.390625 33.40625 48.390625 
Q 24.65625 48.390625 19.8125 42.84375 
Q 14.984375 37.3125 14.984375 27.296875 
Q 14.984375 17.28125 19.8125 11.734375 
Q 24.65625 6.203125 33.40625 6.203125 
Q 37.3125 6.203125 41.140625 7.25 
Q 44.96875 8.296875 48.78125 10.40625 
L 48.78125 2.09375 
Q 45.015625 0.34375 40.984375 -0.53125 
Q 36.96875 -1.421875 32.421875 -1.421875 
Q 20.0625 -1.421875 12.78125 6.34375 
Q 5.515625 14.109375 5.515625 27.296875 
Q 5.515625 40.671875 12.859375 48.328125 
Q 20.21875 56 33.015625 56 
Q 37.15625 56 41.109375 55.140625 
Q 45.0625 54.296875 48.78125 52.59375 
z
" id="DejaVuSans-99"/>
     </defs>
     <g transform="translate(792.43125 106.434687)scale(0.1 -0.1)">
      <use xlink:href="#DejaVuSans-80"/>
      <use x="58.552734" xlink:href="#DejaVuSans-114"/>
      <use x="99.666016" xlink:href="#DejaVuSans-105"/>
      <use x="127.449219" xlink:href="#DejaVuSans-111"/>
      <use x="188.630859" xlink:href="#DejaVuSans-114"/>
      <use x="229.744141" xlink:href="#DejaVuSans-32"/>
      <use x="261.53125" xlink:href="#DejaVuSans-115"/>
      <use x="313.630859" xlink:href="#DejaVuSans-99"/>
      <use x="368.611328" xlink:href="#DejaVuSans-111"/>
      <use x="429.792969" xlink:href="#DejaVuSans-114"/>
      <use x="468.65625" xlink:href="#DejaVuSans-101"/>
      <use x="530.179688" xlink:href="#DejaVuSans-32"/>
      <use x="561.966797" xlink:href="#DejaVuSans-109"/>
      <use x="659.378906" xlink:href="#DejaVuSans-101"/>
      <use x="720.902344" xlink:href="#DejaVuSans-97"/>
      <use x="782.181641" xlink:href="#DejaVuSans-110"/>
     </g>
    </g>
    <g id="line2d_18">
     <path d="M 764.43125 117.612813 
L 784.43125 117.612813 
" style="fill:none;stroke:#4169e1;stroke-dasharray:9.6,2.4,1.5,2.4;stroke-dashoffset:0;stroke-width:1.5;"/>
    </g>
    <g id="text_20">
     <!-- Posterior score mean -->
     <g transform="translate(792.43125 121.112813)scale(0.1 -0.1)">
      <use xlink:href="#DejaVuSans-80"/>
      <use x="56.677734" xlink:href="#DejaVuSans-111"/>
      <use x="117.859375" xlink:href="#DejaVuSans-115"/>
      <use x="169.958984" xlink:href="#DejaVuSans-116"/>
      <use x="209.167969" xlink:href="#DejaVuSans-101"/>
      <use x="270.691406" xlink:href="#DejaVuSans-114"/>
      <use x="311.804688" xlink:href="#DejaVuSans-105"/>
      <use x="339.587891" xlink:href="#DejaVuSans-111"/>
      <use x="400.769531" xlink:href="#DejaVuSans-114"/>
      <use x="441.882812" xlink:href="#DejaVuSans-32"/>
      <use x="473.669922" xlink:href="#DejaVuSans-115"/>
      <use x="525.769531" xlink:href="#DejaVuSans-99"/>
      <use x="580.75" xlink:href="#DejaVuSans-111"/>
      <use x="641.931641" xlink:href="#DejaVuSans-114"/>
      <use x="680.794922" xlink:href="#DejaVuSans-101"/>
      <use x="742.318359" xlink:href="#DejaVuSans-32"/>
      <use x="774.105469" xlink:href="#DejaVuSans-109"/>
      <use x="871.517578" xlink:href="#DejaVuSans-101"/>
      <use x="933.041016" xlink:href="#DejaVuSans-97"/>
      <use x="994.320312" xlink:href="#DejaVuSans-110"/>
     </g>
    </g>
   </g>
  </g>
 </g>
 <defs>
  <clipPath id="p963908a3a6">
   <rect height="380.52" width="781.2" x="126" y="60.48"/>
  </clipPath>
 </defs>
</svg>
