<?xml version="1.0" encoding="utf-8" standalone="no"?>
<!DOCTYPE svg PUBLIC "-//W3C//DTD SVG 1.1//EN"
  "http://www.w3.org/Graphics/SVG/1.1/DTD/svg11.dtd">
<!-- Created with matplotlib (https://matplotlib.org/) -->
<svg height="504pt" version="1.1" viewBox="0 0 1008 504" width="1008pt" xmlns="http://www.w3.org/2000/svg" xmlns:xlink="http://www.w3.org/1999/xlink">
 <defs>
  <style type="text/css">
*{stroke-linecap:butt;stroke-linejoin:round;}
  </style>
 </defs>
 <g id="figure_1">
  <g id="patch_1">
   <path d="M 0 504 
L 1008 504 
L 1008 0 
L 0 0 
z
" style="fill:#ffffff;"/>
  </g>
  <g id="axes_1">
   <g id="patch_2">
    <path d="M 126 441 
L 907.2 441 
L 907.2 60.48 
L 126 60.48 
z
" style="fill:#ffffff;"/>
   </g>
   <g id="patch_3">
    <path clip-path="url(#pfcb8d173aa)" d="M 161.509091 441 
L 175.712727 441 
L 175.712727 440.33155 
L 161.509091 440.33155 
z
" style="fill:#f4a460;opacity:0.7;"/>
   </g>
   <g id="patch_4">
    <path clip-path="url(#pfcb8d173aa)" d="M 175.712727 441 
L 189.916364 441 
L 189.916364 440.554367 
L 175.712727 440.554367 
z
" style="fill:#f4a460;opacity:0.7;"/>
   </g>
   <g id="patch_5">
    <path clip-path="url(#pfcb8d173aa)" d="M 189.916364 441 
L 204.12 441 
L 204.12 440.33155 
L 189.916364 440.33155 
z
" style="fill:#f4a460;opacity:0.7;"/>
   </g>
   <g id="patch_6">
    <path clip-path="url(#pfcb8d173aa)" d="M 204.12 441 
L 218.323636 441 
L 218.323636 438.994651 
L 204.12 438.994651 
z
" style="fill:#f4a460;opacity:0.7;"/>
   </g>
   <g id="patch_7">
    <path clip-path="url(#pfcb8d173aa)" d="M 218.323636 441 
L 232.527273 441 
L 232.527273 438.549018 
L 218.323636 438.549018 
z
" style="fill:#f4a460;opacity:0.7;"/>
   </g>
   <g id="patch_8">
    <path clip-path="url(#pfcb8d173aa)" d="M 232.527273 441 
L 246.730909 441 
L 246.730909 438.326201 
L 232.527273 438.326201 
z
" style="fill:#f4a460;opacity:0.7;"/>
   </g>
   <g id="patch_9">
    <path clip-path="url(#pfcb8d173aa)" d="M 246.730909 441 
L 260.934545 441 
L 260.934545 436.766485 
L 246.730909 436.766485 
z
" style="fill:#f4a460;opacity:0.7;"/>
   </g>
   <g id="patch_10">
    <path clip-path="url(#pfcb8d173aa)" d="M 260.934545 441 
L 275.138182 441 
L 275.138182 433.424237 
L 260.934545 433.424237 
z
" style="fill:#f4a460;opacity:0.7;"/>
   </g>
   <g id="patch_11">
    <path clip-path="url(#pfcb8d173aa)" d="M 275.138182 441 
L 289.341818 441 
L 289.341818 431.196071 
L 275.138182 431.196071 
z
" style="fill:#f4a460;opacity:0.7;"/>
   </g>
   <g id="patch_12">
    <path clip-path="url(#pfcb8d173aa)" d="M 289.341818 441 
L 303.545455 441 
L 303.545455 423.397491 
L 289.341818 423.397491 
z
" style="fill:#f4a460;opacity:0.7;"/>
   </g>
   <g id="patch_13">
    <path clip-path="url(#pfcb8d173aa)" d="M 303.545455 441 
L 317.749091 441 
L 317.749091 411.588214 
L 303.545455 411.588214 
z
" style="fill:#f4a460;opacity:0.7;"/>
   </g>
   <g id="patch_14">
    <path clip-path="url(#pfcb8d173aa)" d="M 317.749091 441 
L 331.952727 441 
L 331.952727 407.354699 
L 317.749091 407.354699 
z
" style="fill:#f4a460;opacity:0.7;"/>
   </g>
   <g id="patch_15">
    <path clip-path="url(#pfcb8d173aa)" d="M 331.952727 441 
L 346.156364 441 
L 346.156364 386.632758 
L 331.952727 386.632758 
z
" style="fill:#f4a460;opacity:0.7;"/>
   </g>
   <g id="patch_16">
    <path clip-path="url(#pfcb8d173aa)" d="M 346.156364 441 
L 360.36 441 
L 360.36 373.932214 
L 346.156364 373.932214 
z
" style="fill:#f4a460;opacity:0.7;"/>
   </g>
   <g id="patch_17">
    <path clip-path="url(#pfcb8d173aa)" d="M 360.36 441 
L 374.563636 441 
L 374.563636 350.536475 
L 360.36 350.536475 
z
" style="fill:#f4a460;opacity:0.7;"/>
   </g>
   <g id="patch_18">
    <path clip-path="url(#pfcb8d173aa)" d="M 374.563636 441 
L 388.767273 441 
L 388.767273 335.162132 
L 374.563636 335.162132 
z
" style="fill:#f4a460;opacity:0.7;"/>
   </g>
   <g id="patch_19">
    <path clip-path="url(#pfcb8d173aa)" d="M 388.767273 441 
L 402.970909 441 
L 402.970909 306.641612 
L 388.767273 306.641612 
z
" style="fill:#f4a460;opacity:0.7;"/>
   </g>
   <g id="patch_20">
    <path clip-path="url(#pfcb8d173aa)" d="M 402.970909 441 
L 417.174545 441 
L 417.174545 281.908974 
L 402.970909 281.908974 
z
" style="fill:#f4a460;opacity:0.7;"/>
   </g>
   <g id="patch_21">
    <path clip-path="url(#pfcb8d173aa)" d="M 417.174545 441 
L 431.378182 441 
L 431.378182 256.953518 
L 417.174545 256.953518 
z
" style="fill:#f4a460;opacity:0.7;"/>
   </g>
   <g id="patch_22">
    <path clip-path="url(#pfcb8d173aa)" d="M 431.378182 441 
L 445.581818 441 
L 445.581818 209.270774 
L 431.378182 209.270774 
z
" style="fill:#f4a460;opacity:0.7;"/>
   </g>
   <g id="patch_23">
    <path clip-path="url(#pfcb8d173aa)" d="M 445.581818 441 
L 459.785455 441 
L 459.785455 197.907129 
L 445.581818 197.907129 
z
" style="fill:#f4a460;opacity:0.7;"/>
   </g>
   <g id="patch_24">
    <path clip-path="url(#pfcb8d173aa)" d="M 459.785455 441 
L 473.989091 441 
L 473.989091 163.370562 
L 459.785455 163.370562 
z
" style="fill:#f4a460;opacity:0.7;"/>
   </g>
   <g id="patch_25">
    <path clip-path="url(#pfcb8d173aa)" d="M 473.989091 441 
L 488.192727 441 
L 488.192727 131.953426 
L 473.989091 131.953426 
z
" style="fill:#f4a460;opacity:0.7;"/>
   </g>
   <g id="patch_26">
    <path clip-path="url(#pfcb8d173aa)" d="M 488.192727 441 
L 502.396364 441 
L 502.396364 120.366965 
L 488.192727 120.366965 
z
" style="fill:#f4a460;opacity:0.7;"/>
   </g>
   <g id="patch_27">
    <path clip-path="url(#pfcb8d173aa)" d="M 502.396364 441 
L 516.6 441 
L 516.6 104.992622 
L 502.396364 104.992622 
z
" style="fill:#f4a460;opacity:0.7;"/>
   </g>
   <g id="patch_28">
    <path clip-path="url(#pfcb8d173aa)" d="M 516.6 441 
L 530.803636 441 
L 530.803636 95.857143 
L 516.6 95.857143 
z
" style="fill:#f4a460;opacity:0.7;"/>
   </g>
   <g id="patch_29">
    <path clip-path="url(#pfcb8d173aa)" d="M 530.803636 441 
L 545.007273 441 
L 545.007273 120.366965 
L 530.803636 120.366965 
z
" style="fill:#f4a460;opacity:0.7;"/>
   </g>
   <g id="patch_30">
    <path clip-path="url(#pfcb8d173aa)" d="M 545.007273 441 
L 559.210909 441 
L 559.210909 114.128101 
L 545.007273 114.128101 
z
" style="fill:#f4a460;opacity:0.7;"/>
   </g>
   <g id="patch_31">
    <path clip-path="url(#pfcb8d173aa)" d="M 559.210909 441 
L 573.414545 441 
L 573.414545 147.773402 
L 559.210909 147.773402 
z
" style="fill:#f4a460;opacity:0.7;"/>
   </g>
   <g id="patch_32">
    <path clip-path="url(#pfcb8d173aa)" d="M 573.414545 441 
L 587.618182 441 
L 587.618182 159.58268 
L 573.414545 159.58268 
z
" style="fill:#f4a460;opacity:0.7;"/>
   </g>
   <g id="patch_33">
    <path clip-path="url(#pfcb8d173aa)" d="M 587.618182 441 
L 601.821818 441 
L 601.821818 193.673614 
L 587.618182 193.673614 
z
" style="fill:#f4a460;opacity:0.7;"/>
   </g>
   <g id="patch_34">
    <path clip-path="url(#pfcb8d173aa)" d="M 601.821818 441 
L 616.025455 441 
L 616.025455 220.188785 
L 601.821818 220.188785 
z
" style="fill:#f4a460;opacity:0.7;"/>
   </g>
   <g id="patch_35">
    <path clip-path="url(#pfcb8d173aa)" d="M 616.025455 441 
L 630.229091 441 
L 630.229091 244.030158 
L 616.025455 244.030158 
z
" style="fill:#f4a460;opacity:0.7;"/>
   </g>
   <g id="patch_36">
    <path clip-path="url(#pfcb8d173aa)" d="M 630.229091 441 
L 644.432727 441 
L 644.432727 276.784193 
L 630.229091 276.784193 
z
" style="fill:#f4a460;opacity:0.7;"/>
   </g>
   <g id="patch_37">
    <path clip-path="url(#pfcb8d173aa)" d="M 644.432727 441 
L 658.636364 441 
L 658.636364 308.201328 
L 644.432727 308.201328 
z
" style="fill:#f4a460;opacity:0.7;"/>
   </g>
   <g id="patch_38">
    <path clip-path="url(#pfcb8d173aa)" d="M 658.636364 441 
L 672.84 441 
L 672.84 333.602416 
L 658.636364 333.602416 
z
" style="fill:#f4a460;opacity:0.7;"/>
   </g>
   <g id="patch_39">
    <path clip-path="url(#pfcb8d173aa)" d="M 672.84 441 
L 687.043636 441 
L 687.043636 354.547173 
L 672.84 354.547173 
z
" style="fill:#f4a460;opacity:0.7;"/>
   </g>
   <g id="patch_40">
    <path clip-path="url(#pfcb8d173aa)" d="M 687.043636 441 
L 701.247273 441 
L 701.247273 373.263765 
L 687.043636 373.263765 
z
" style="fill:#f4a460;opacity:0.7;"/>
   </g>
   <g id="patch_41">
    <path clip-path="url(#pfcb8d173aa)" d="M 701.247273 441 
L 715.450909 441 
L 715.450909 391.311906 
L 701.247273 391.311906 
z
" style="fill:#f4a460;opacity:0.7;"/>
   </g>
   <g id="patch_42">
    <path clip-path="url(#pfcb8d173aa)" d="M 715.450909 441 
L 729.654545 441 
L 729.654545 407.577515 
L 715.450909 407.577515 
z
" style="fill:#f4a460;opacity:0.7;"/>
   </g>
   <g id="patch_43">
    <path clip-path="url(#pfcb8d173aa)" d="M 729.654545 441 
L 743.858182 441 
L 743.858182 414.262012 
L 729.654545 414.262012 
z
" style="fill:#f4a460;opacity:0.7;"/>
   </g>
   <g id="patch_44">
    <path clip-path="url(#pfcb8d173aa)" d="M 743.858182 441 
L 758.061818 441 
L 758.061818 423.397491 
L 743.858182 423.397491 
z
" style="fill:#f4a460;opacity:0.7;"/>
   </g>
   <g id="patch_45">
    <path clip-path="url(#pfcb8d173aa)" d="M 758.061818 441 
L 772.265455 441 
L 772.265455 433.86987 
L 758.061818 433.86987 
z
" style="fill:#f4a460;opacity:0.7;"/>
   </g>
   <g id="patch_46">
    <path clip-path="url(#pfcb8d173aa)" d="M 772.265455 441 
L 786.469091 441 
L 786.469091 431.418888 
L 772.265455 431.418888 
z
" style="fill:#f4a460;opacity:0.7;"/>
   </g>
   <g id="patch_47">
    <path clip-path="url(#pfcb8d173aa)" d="M 786.469091 441 
L 800.672727 441 
L 800.672727 434.315503 
L 786.469091 434.315503 
z
" style="fill:#f4a460;opacity:0.7;"/>
   </g>
   <g id="patch_48">
    <path clip-path="url(#pfcb8d173aa)" d="M 800.672727 441 
L 814.876364 441 
L 814.876364 438.994651 
L 800.672727 438.994651 
z
" style="fill:#f4a460;opacity:0.7;"/>
   </g>
   <g id="patch_49">
    <path clip-path="url(#pfcb8d173aa)" d="M 814.876364 441 
L 829.08 441 
L 829.08 440.554367 
L 814.876364 440.554367 
z
" style="fill:#f4a460;opacity:0.7;"/>
   </g>
   <g id="patch_50">
    <path clip-path="url(#pfcb8d173aa)" d="M 829.08 441 
L 843.283636 441 
L 843.283636 440.33155 
L 829.08 440.33155 
z
" style="fill:#f4a460;opacity:0.7;"/>
   </g>
   <g id="patch_51">
    <path clip-path="url(#pfcb8d173aa)" d="M 843.283636 441 
L 857.487273 441 
L 857.487273 441 
L 843.283636 441 
z
" style="fill:#f4a460;opacity:0.7;"/>
   </g>
   <g id="patch_52">
    <path clip-path="url(#pfcb8d173aa)" d="M 857.487273 441 
L 871.690909 441 
L 871.690909 440.108734 
L 857.487273 440.108734 
z
" style="fill:#f4a460;opacity:0.7;"/>
   </g>
   <g id="matplotlib.axis_1">
    <g id="xtick_1">
     <g id="line2d_1">
      <defs>
       <path d="M 0 0 
L 0 3.5 
" id="m050fa28c29" style="stroke:#000000;stroke-width:0.8;"/>
      </defs>
      <g>
       <use style="stroke:#000000;stroke-width:0.8;" x="136.737031" xlink:href="#m050fa28c29" y="441"/>
      </g>
     </g>
     <g id="text_1">
      <!-- −36 -->
      <defs>
       <path d="M 10.59375 35.5 
L 73.1875 35.5 
L 73.1875 27.203125 
L 10.59375 27.203125 
z
" id="DejaVuSans-8722"/>
       <path d="M 40.578125 39.3125 
Q 47.65625 37.796875 51.625 33 
Q 55.609375 28.21875 55.609375 21.1875 
Q 55.609375 10.40625 48.1875 4.484375 
Q 40.765625 -1.421875 27.09375 -1.421875 
Q 22.515625 -1.421875 17.65625 -0.515625 
Q 12.796875 0.390625 7.625 2.203125 
L 7.625 11.71875 
Q 11.71875 9.328125 16.59375 8.109375 
Q 21.484375 6.890625 26.8125 6.890625 
Q 36.078125 6.890625 40.9375 10.546875 
Q 45.796875 14.203125 45.796875 21.1875 
Q 45.796875 27.640625 41.28125 31.265625 
Q 36.765625 34.90625 28.71875 34.90625 
L 20.21875 34.90625 
L 20.21875 43.015625 
L 29.109375 43.015625 
Q 36.375 43.015625 40.234375 45.921875 
Q 44.09375 48.828125 44.09375 54.296875 
Q 44.09375 59.90625 40.109375 62.90625 
Q 36.140625 65.921875 28.71875 65.921875 
Q 24.65625 65.921875 20.015625 65.03125 
Q 15.375 64.15625 9.8125 62.3125 
L 9.8125 71.09375 
Q 15.4375 72.65625 20.34375 73.4375 
Q 25.25 74.21875 29.59375 74.21875 
Q 40.828125 74.21875 47.359375 69.109375 
Q 53.90625 64.015625 53.90625 55.328125 
Q 53.90625 49.265625 50.4375 45.09375 
Q 46.96875 40.921875 40.578125 39.3125 
z
" id="DejaVuSans-51"/>
       <path d="M 33.015625 40.375 
Q 26.375 40.375 22.484375 35.828125 
Q 18.609375 31.296875 18.609375 23.390625 
Q 18.609375 15.53125 22.484375 10.953125 
Q 26.375 6.390625 33.015625 6.390625 
Q 39.65625 6.390625 43.53125 10.953125 
Q 47.40625 15.53125 47.40625 23.390625 
Q 47.40625 31.296875 43.53125 35.828125 
Q 39.65625 40.375 33.015625 40.375 
z
M 52.59375 71.296875 
L 52.59375 62.3125 
Q 48.875 64.0625 45.09375 64.984375 
Q 41.3125 65.921875 37.59375 65.921875 
Q 27.828125 65.921875 22.671875 59.328125 
Q 17.53125 52.734375 16.796875 39.40625 
Q 19.671875 43.65625 24.015625 45.921875 
Q 28.375 48.1875 33.59375 48.1875 
Q 44.578125 48.1875 50.953125 41.515625 
Q 57.328125 34.859375 57.328125 23.390625 
Q 57.328125 12.15625 50.6875 5.359375 
Q 44.046875 -1.421875 33.015625 -1.421875 
Q 20.359375 -1.421875 13.671875 8.265625 
Q 6.984375 17.96875 6.984375 36.375 
Q 6.984375 53.65625 15.1875 63.9375 
Q 23.390625 74.21875 37.203125 74.21875 
Q 40.921875 74.21875 44.703125 73.484375 
Q 48.484375 72.75 52.59375 71.296875 
z
" id="DejaVuSans-54"/>
      </defs>
      <g transform="translate(126.184687 455.598437)scale(0.1 -0.1)">
       <use xlink:href="#DejaVuSans-8722"/>
       <use x="83.789062" xlink:href="#DejaVuSans-51"/>
       <use x="147.412109" xlink:href="#DejaVuSans-54"/>
      </g>
     </g>
    </g>
    <g id="xtick_2">
     <g id="line2d_2">
      <g>
       <use style="stroke:#000000;stroke-width:0.8;" x="230.409362" xlink:href="#m050fa28c29" y="441"/>
      </g>
     </g>
     <g id="text_2">
      <!-- −35 -->
      <defs>
       <path d="M 10.796875 72.90625 
L 49.515625 72.90625 
L 49.515625 64.59375 
L 19.828125 64.59375 
L 19.828125 46.734375 
Q 21.96875 47.46875 24.109375 47.828125 
Q 26.265625 48.1875 28.421875 48.1875 
Q 40.625 48.1875 47.75 41.5 
Q 54.890625 34.8125 54.890625 23.390625 
Q 54.890625 11.625 47.5625 5.09375 
Q 40.234375 -1.421875 26.90625 -1.421875 
Q 22.3125 -1.421875 17.546875 -0.640625 
Q 12.796875 0.140625 7.71875 1.703125 
L 7.71875 11.625 
Q 12.109375 9.234375 16.796875 8.0625 
Q 21.484375 6.890625 26.703125 6.890625 
Q 35.15625 6.890625 40.078125 11.328125 
Q 45.015625 15.765625 45.015625 23.390625 
Q 45.015625 31 40.078125 35.4375 
Q 35.15625 39.890625 26.703125 39.890625 
Q 22.75 39.890625 18.8125 39.015625 
Q 14.890625 38.140625 10.796875 36.28125 
z
" id="DejaVuSans-53"/>
      </defs>
      <g transform="translate(219.857018 455.598437)scale(0.1 -0.1)">
       <use xlink:href="#DejaVuSans-8722"/>
       <use x="83.789062" xlink:href="#DejaVuSans-51"/>
       <use x="147.412109" xlink:href="#DejaVuSans-53"/>
      </g>
     </g>
    </g>
    <g id="xtick_3">
     <g id="line2d_3">
      <g>
       <use style="stroke:#000000;stroke-width:0.8;" x="324.081692" xlink:href="#m050fa28c29" y="441"/>
      </g>
     </g>
     <g id="text_3">
      <!-- −34 -->
      <defs>
       <path d="M 37.796875 64.3125 
L 12.890625 25.390625 
L 37.796875 25.390625 
z
M 35.203125 72.90625 
L 47.609375 72.90625 
L 47.609375 25.390625 
L 58.015625 25.390625 
L 58.015625 17.1875 
L 47.609375 17.1875 
L 47.609375 0 
L 37.796875 0 
L 37.796875 17.1875 
L 4.890625 17.1875 
L 4.890625 26.703125 
z
" id="DejaVuSans-52"/>
      </defs>
      <g transform="translate(313.529349 455.598437)scale(0.1 -0.1)">
       <use xlink:href="#DejaVuSans-8722"/>
       <use x="83.789062" xlink:href="#DejaVuSans-51"/>
       <use x="147.412109" xlink:href="#DejaVuSans-52"/>
      </g>
     </g>
    </g>
    <g id="xtick_4">
     <g id="line2d_4">
      <g>
       <use style="stroke:#000000;stroke-width:0.8;" x="417.754023" xlink:href="#m050fa28c29" y="441"/>
      </g>
     </g>
     <g id="text_4">
      <!-- −33 -->
      <g transform="translate(407.201679 455.598437)scale(0.1 -0.1)">
       <use xlink:href="#DejaVuSans-8722"/>
       <use x="83.789062" xlink:href="#DejaVuSans-51"/>
       <use x="147.412109" xlink:href="#DejaVuSans-51"/>
      </g>
     </g>
    </g>
    <g id="xtick_5">
     <g id="line2d_5">
      <g>
       <use style="stroke:#000000;stroke-width:0.8;" x="511.426354" xlink:href="#m050fa28c29" y="441"/>
      </g>
     </g>
     <g id="text_5">
      <!-- −32 -->
      <defs>
       <path d="M 19.1875 8.296875 
L 53.609375 8.296875 
L 53.609375 0 
L 7.328125 0 
L 7.328125 8.296875 
Q 12.9375 14.109375 22.625 23.890625 
Q 32.328125 33.6875 34.8125 36.53125 
Q 39.546875 41.84375 41.421875 45.53125 
Q 43.3125 49.21875 43.3125 52.78125 
Q 43.3125 58.59375 39.234375 62.25 
Q 35.15625 65.921875 28.609375 65.921875 
Q 23.96875 65.921875 18.8125 64.3125 
Q 13.671875 62.703125 7.8125 59.421875 
L 7.8125 69.390625 
Q 13.765625 71.78125 18.9375 73 
Q 24.125 74.21875 28.421875 74.21875 
Q 39.75 74.21875 46.484375 68.546875 
Q 53.21875 62.890625 53.21875 53.421875 
Q 53.21875 48.921875 51.53125 44.890625 
Q 49.859375 40.875 45.40625 35.40625 
Q 44.1875 33.984375 37.640625 27.21875 
Q 31.109375 20.453125 19.1875 8.296875 
z
" id="DejaVuSans-50"/>
      </defs>
      <g transform="translate(500.87401 455.598437)scale(0.1 -0.1)">
       <use xlink:href="#DejaVuSans-8722"/>
       <use x="83.789062" xlink:href="#DejaVuSans-51"/>
       <use x="147.412109" xlink:href="#DejaVuSans-50"/>
      </g>
     </g>
    </g>
    <g id="xtick_6">
     <g id="line2d_6">
      <g>
       <use style="stroke:#000000;stroke-width:0.8;" x="605.098685" xlink:href="#m050fa28c29" y="441"/>
      </g>
     </g>
     <g id="text_6">
      <!-- −31 -->
      <defs>
       <path d="M 12.40625 8.296875 
L 28.515625 8.296875 
L 28.515625 63.921875 
L 10.984375 60.40625 
L 10.984375 69.390625 
L 28.421875 72.90625 
L 38.28125 72.90625 
L 38.28125 8.296875 
L 54.390625 8.296875 
L 54.390625 0 
L 12.40625 0 
z
" id="DejaVuSans-49"/>
      </defs>
      <g transform="translate(594.546341 455.598437)scale(0.1 -0.1)">
       <use xlink:href="#DejaVuSans-8722"/>
       <use x="83.789062" xlink:href="#DejaVuSans-51"/>
       <use x="147.412109" xlink:href="#DejaVuSans-49"/>
      </g>
     </g>
    </g>
    <g id="xtick_7">
     <g id="line2d_7">
      <g>
       <use style="stroke:#000000;stroke-width:0.8;" x="698.771015" xlink:href="#m050fa28c29" y="441"/>
      </g>
     </g>
     <g id="text_7">
      <!-- −30 -->
      <defs>
       <path d="M 31.78125 66.40625 
Q 24.171875 66.40625 20.328125 58.90625 
Q 16.5 51.421875 16.5 36.375 
Q 16.5 21.390625 20.328125 13.890625 
Q 24.171875 6.390625 31.78125 6.390625 
Q 39.453125 6.390625 43.28125 13.890625 
Q 47.125 21.390625 47.125 36.375 
Q 47.125 51.421875 43.28125 58.90625 
Q 39.453125 66.40625 31.78125 66.40625 
z
M 31.78125 74.21875 
Q 44.046875 74.21875 50.515625 64.515625 
Q 56.984375 54.828125 56.984375 36.375 
Q 56.984375 17.96875 50.515625 8.265625 
Q 44.046875 -1.421875 31.78125 -1.421875 
Q 19.53125 -1.421875 13.0625 8.265625 
Q 6.59375 17.96875 6.59375 36.375 
Q 6.59375 54.828125 13.0625 64.515625 
Q 19.53125 74.21875 31.78125 74.21875 
z
" id="DejaVuSans-48"/>
      </defs>
      <g transform="translate(688.218672 455.598437)scale(0.1 -0.1)">
       <use xlink:href="#DejaVuSans-8722"/>
       <use x="83.789062" xlink:href="#DejaVuSans-51"/>
       <use x="147.412109" xlink:href="#DejaVuSans-48"/>
      </g>
     </g>
    </g>
    <g id="xtick_8">
     <g id="line2d_8">
      <g>
       <use style="stroke:#000000;stroke-width:0.8;" x="792.443346" xlink:href="#m050fa28c29" y="441"/>
      </g>
     </g>
     <g id="text_8">
      <!-- −29 -->
      <defs>
       <path d="M 10.984375 1.515625 
L 10.984375 10.5 
Q 14.703125 8.734375 18.5 7.8125 
Q 22.3125 6.890625 25.984375 6.890625 
Q 35.75 6.890625 40.890625 13.453125 
Q 46.046875 20.015625 46.78125 33.40625 
Q 43.953125 29.203125 39.59375 26.953125 
Q 35.25 24.703125 29.984375 24.703125 
Q 19.046875 24.703125 12.671875 31.3125 
Q 6.296875 37.9375 6.296875 49.421875 
Q 6.296875 60.640625 12.9375 67.421875 
Q 19.578125 74.21875 30.609375 74.21875 
Q 43.265625 74.21875 49.921875 64.515625 
Q 56.59375 54.828125 56.59375 36.375 
Q 56.59375 19.140625 48.40625 8.859375 
Q 40.234375 -1.421875 26.421875 -1.421875 
Q 22.703125 -1.421875 18.890625 -0.6875 
Q 15.09375 0.046875 10.984375 1.515625 
z
M 30.609375 32.421875 
Q 37.25 32.421875 41.125 36.953125 
Q 45.015625 41.5 45.015625 49.421875 
Q 45.015625 57.28125 41.125 61.84375 
Q 37.25 66.40625 30.609375 66.40625 
Q 23.96875 66.40625 20.09375 61.84375 
Q 16.21875 57.28125 16.21875 49.421875 
Q 16.21875 41.5 20.09375 36.953125 
Q 23.96875 32.421875 30.609375 32.421875 
z
" id="DejaVuSans-57"/>
      </defs>
      <g transform="translate(781.891002 455.598437)scale(0.1 -0.1)">
       <use xlink:href="#DejaVuSans-8722"/>
       <use x="83.789062" xlink:href="#DejaVuSans-50"/>
       <use x="147.412109" xlink:href="#DejaVuSans-57"/>
      </g>
     </g>
    </g>
    <g id="xtick_9">
     <g id="line2d_9">
      <g>
       <use style="stroke:#000000;stroke-width:0.8;" x="886.115677" xlink:href="#m050fa28c29" y="441"/>
      </g>
     </g>
     <g id="text_9">
      <!-- −28 -->
      <defs>
       <path d="M 31.78125 34.625 
Q 24.75 34.625 20.71875 30.859375 
Q 16.703125 27.09375 16.703125 20.515625 
Q 16.703125 13.921875 20.71875 10.15625 
Q 24.75 6.390625 31.78125 6.390625 
Q 38.8125 6.390625 42.859375 10.171875 
Q 46.921875 13.96875 46.921875 20.515625 
Q 46.921875 27.09375 42.890625 30.859375 
Q 38.875 34.625 31.78125 34.625 
z
M 21.921875 38.8125 
Q 15.578125 40.375 12.03125 44.71875 
Q 8.5 49.078125 8.5 55.328125 
Q 8.5 64.0625 14.71875 69.140625 
Q 20.953125 74.21875 31.78125 74.21875 
Q 42.671875 74.21875 48.875 69.140625 
Q 55.078125 64.0625 55.078125 55.328125 
Q 55.078125 49.078125 51.53125 44.71875 
Q 48 40.375 41.703125 38.8125 
Q 48.828125 37.15625 52.796875 32.3125 
Q 56.78125 27.484375 56.78125 20.515625 
Q 56.78125 9.90625 50.3125 4.234375 
Q 43.84375 -1.421875 31.78125 -1.421875 
Q 19.734375 -1.421875 13.25 4.234375 
Q 6.78125 9.90625 6.78125 20.515625 
Q 6.78125 27.484375 10.78125 32.3125 
Q 14.796875 37.15625 21.921875 38.8125 
z
M 18.3125 54.390625 
Q 18.3125 48.734375 21.84375 45.5625 
Q 25.390625 42.390625 31.78125 42.390625 
Q 38.140625 42.390625 41.71875 45.5625 
Q 45.3125 48.734375 45.3125 54.390625 
Q 45.3125 60.0625 41.71875 63.234375 
Q 38.140625 66.40625 31.78125 66.40625 
Q 25.390625 66.40625 21.84375 63.234375 
Q 18.3125 60.0625 18.3125 54.390625 
z
" id="DejaVuSans-56"/>
      </defs>
      <g transform="translate(875.563333 455.598437)scale(0.1 -0.1)">
       <use xlink:href="#DejaVuSans-8722"/>
       <use x="83.789062" xlink:href="#DejaVuSans-50"/>
       <use x="147.412109" xlink:href="#DejaVuSans-56"/>
      </g>
     </g>
    </g>
    <g id="text_10">
     <!-- Control Point [m] -->
     <defs>
      <path d="M 64.40625 67.28125 
L 64.40625 56.890625 
Q 59.421875 61.53125 53.78125 63.8125 
Q 48.140625 66.109375 41.796875 66.109375 
Q 29.296875 66.109375 22.65625 58.46875 
Q 16.015625 50.828125 16.015625 36.375 
Q 16.015625 21.96875 22.65625 14.328125 
Q 29.296875 6.6875 41.796875 6.6875 
Q 48.140625 6.6875 53.78125 8.984375 
Q 59.421875 11.28125 64.40625 15.921875 
L 64.40625 5.609375 
Q 59.234375 2.09375 53.4375 0.328125 
Q 47.65625 -1.421875 41.21875 -1.421875 
Q 24.65625 -1.421875 15.125 8.703125 
Q 5.609375 18.84375 5.609375 36.375 
Q 5.609375 53.953125 15.125 64.078125 
Q 24.65625 74.21875 41.21875 74.21875 
Q 47.75 74.21875 53.53125 72.484375 
Q 59.328125 70.75 64.40625 67.28125 
z
" id="DejaVuSans-67"/>
      <path d="M 30.609375 48.390625 
Q 23.390625 48.390625 19.1875 42.75 
Q 14.984375 37.109375 14.984375 27.296875 
Q 14.984375 17.484375 19.15625 11.84375 
Q 23.34375 6.203125 30.609375 6.203125 
Q 37.796875 6.203125 41.984375 11.859375 
Q 46.1875 17.53125 46.1875 27.296875 
Q 46.1875 37.015625 41.984375 42.703125 
Q 37.796875 48.390625 30.609375 48.390625 
z
M 30.609375 56 
Q 42.328125 56 49.015625 48.375 
Q 55.71875 40.765625 55.71875 27.296875 
Q 55.71875 13.875 49.015625 6.21875 
Q 42.328125 -1.421875 30.609375 -1.421875 
Q 18.84375 -1.421875 12.171875 6.21875 
Q 5.515625 13.875 5.515625 27.296875 
Q 5.515625 40.765625 12.171875 48.375 
Q 18.84375 56 30.609375 56 
z
" id="DejaVuSans-111"/>
      <path d="M 54.890625 33.015625 
L 54.890625 0 
L 45.90625 0 
L 45.90625 32.71875 
Q 45.90625 40.484375 42.875 44.328125 
Q 39.84375 48.1875 33.796875 48.1875 
Q 26.515625 48.1875 22.3125 43.546875 
Q 18.109375 38.921875 18.109375 30.90625 
L 18.109375 0 
L 9.078125 0 
L 9.078125 54.6875 
L 18.109375 54.6875 
L 18.109375 46.1875 
Q 21.34375 51.125 25.703125 53.5625 
Q 30.078125 56 35.796875 56 
Q 45.21875 56 50.046875 50.171875 
Q 54.890625 44.34375 54.890625 33.015625 
z
" id="DejaVuSans-110"/>
      <path d="M 18.3125 70.21875 
L 18.3125 54.6875 
L 36.8125 54.6875 
L 36.8125 47.703125 
L 18.3125 47.703125 
L 18.3125 18.015625 
Q 18.3125 11.328125 20.140625 9.421875 
Q 21.96875 7.515625 27.59375 7.515625 
L 36.8125 7.515625 
L 36.8125 0 
L 27.59375 0 
Q 17.1875 0 13.234375 3.875 
Q 9.28125 7.765625 9.28125 18.015625 
L 9.28125 47.703125 
L 2.6875 47.703125 
L 2.6875 54.6875 
L 9.28125 54.6875 
L 9.28125 70.21875 
z
" id="DejaVuSans-116"/>
      <path d="M 41.109375 46.296875 
Q 39.59375 47.171875 37.8125 47.578125 
Q 36.03125 48 33.890625 48 
Q 26.265625 48 22.1875 43.046875 
Q 18.109375 38.09375 18.109375 28.8125 
L 18.109375 0 
L 9.078125 0 
L 9.078125 54.6875 
L 18.109375 54.6875 
L 18.109375 46.1875 
Q 20.953125 51.171875 25.484375 53.578125 
Q 30.03125 56 36.53125 56 
Q 37.453125 56 38.578125 55.875 
Q 39.703125 55.765625 41.0625 55.515625 
z
" id="DejaVuSans-114"/>
      <path d="M 9.421875 75.984375 
L 18.40625 75.984375 
L 18.40625 0 
L 9.421875 0 
z
" id="DejaVuSans-108"/>
      <path id="DejaVuSans-32"/>
      <path d="M 19.671875 64.796875 
L 19.671875 37.40625 
L 32.078125 37.40625 
Q 38.96875 37.40625 42.71875 40.96875 
Q 46.484375 44.53125 46.484375 51.125 
Q 46.484375 57.671875 42.71875 61.234375 
Q 38.96875 64.796875 32.078125 64.796875 
z
M 9.8125 72.90625 
L 32.078125 72.90625 
Q 44.34375 72.90625 50.609375 67.359375 
Q 56.890625 61.8125 56.890625 51.125 
Q 56.890625 40.328125 50.609375 34.8125 
Q 44.34375 29.296875 32.078125 29.296875 
L 19.671875 29.296875 
L 19.671875 0 
L 9.8125 0 
z
" id="DejaVuSans-80"/>
      <path d="M 9.421875 54.6875 
L 18.40625 54.6875 
L 18.40625 0 
L 9.421875 0 
z
M 9.421875 75.984375 
L 18.40625 75.984375 
L 18.40625 64.59375 
L 9.421875 64.59375 
z
" id="DejaVuSans-105"/>
      <path d="M 8.59375 75.984375 
L 29.296875 75.984375 
L 29.296875 69 
L 17.578125 69 
L 17.578125 -6.203125 
L 29.296875 -6.203125 
L 29.296875 -13.1875 
L 8.59375 -13.1875 
z
" id="DejaVuSans-91"/>
      <path d="M 52 44.1875 
Q 55.375 50.25 60.0625 53.125 
Q 64.75 56 71.09375 56 
Q 79.640625 56 84.28125 50.015625 
Q 88.921875 44.046875 88.921875 33.015625 
L 88.921875 0 
L 79.890625 0 
L 79.890625 32.71875 
Q 79.890625 40.578125 77.09375 44.375 
Q 74.3125 48.1875 68.609375 48.1875 
Q 61.625 48.1875 57.5625 43.546875 
Q 53.515625 38.921875 53.515625 30.90625 
L 53.515625 0 
L 44.484375 0 
L 44.484375 32.71875 
Q 44.484375 40.625 41.703125 44.40625 
Q 38.921875 48.1875 33.109375 48.1875 
Q 26.21875 48.1875 22.15625 43.53125 
Q 18.109375 38.875 18.109375 30.90625 
L 18.109375 0 
L 9.078125 0 
L 9.078125 54.6875 
L 18.109375 54.6875 
L 18.109375 46.1875 
Q 21.1875 51.21875 25.484375 53.609375 
Q 29.78125 56 35.6875 56 
Q 41.65625 56 45.828125 52.96875 
Q 50 49.953125 52 44.1875 
z
" id="DejaVuSans-109"/>
      <path d="M 30.421875 75.984375 
L 30.421875 -13.1875 
L 9.71875 -13.1875 
L 9.71875 -6.203125 
L 21.390625 -6.203125 
L 21.390625 69 
L 9.71875 69 
L 9.71875 75.984375 
z
" id="DejaVuSans-93"/>
     </defs>
     <g transform="translate(474.167969 469.276563)scale(0.1 -0.1)">
      <use xlink:href="#DejaVuSans-67"/>
      <use x="69.824219" xlink:href="#DejaVuSans-111"/>
      <use x="131.005859" xlink:href="#DejaVuSans-110"/>
      <use x="194.384766" xlink:href="#DejaVuSans-116"/>
      <use x="233.59375" xlink:href="#DejaVuSans-114"/>
      <use x="272.457031" xlink:href="#DejaVuSans-111"/>
      <use x="333.638672" xlink:href="#DejaVuSans-108"/>
      <use x="361.421875" xlink:href="#DejaVuSans-32"/>
      <use x="393.208984" xlink:href="#DejaVuSans-80"/>
      <use x="449.886719" xlink:href="#DejaVuSans-111"/>
      <use x="511.068359" xlink:href="#DejaVuSans-105"/>
      <use x="538.851562" xlink:href="#DejaVuSans-110"/>
      <use x="602.230469" xlink:href="#DejaVuSans-116"/>
      <use x="641.439453" xlink:href="#DejaVuSans-32"/>
      <use x="673.226562" xlink:href="#DejaVuSans-91"/>
      <use x="712.240234" xlink:href="#DejaVuSans-109"/>
      <use x="809.652344" xlink:href="#DejaVuSans-93"/>
     </g>
    </g>
   </g>
   <g id="matplotlib.axis_2">
    <g id="ytick_1">
     <g id="line2d_10">
      <defs>
       <path d="M 0 0 
L -3.5 0 
" id="mf311afb54e" style="stroke:#000000;stroke-width:0.8;"/>
      </defs>
      <g>
       <use style="stroke:#000000;stroke-width:0.8;" x="126" xlink:href="#mf311afb54e" y="441"/>
      </g>
     </g>
     <g id="text_11">
      <!-- 0.0 -->
      <defs>
       <path d="M 10.6875 12.40625 
L 21 12.40625 
L 21 0 
L 10.6875 0 
z
" id="DejaVuSans-46"/>
      </defs>
      <g transform="translate(103.096875 444.799219)scale(0.1 -0.1)">
       <use xlink:href="#DejaVuSans-48"/>
       <use x="63.623047" xlink:href="#DejaVuSans-46"/>
       <use x="95.410156" xlink:href="#DejaVuSans-48"/>
      </g>
     </g>
    </g>
    <g id="ytick_2">
     <g id="line2d_11">
      <g>
       <use style="stroke:#000000;stroke-width:0.8;" x="126" xlink:href="#mf311afb54e" y="356.535211"/>
      </g>
     </g>
     <g id="text_12">
      <!-- 0.1 -->
      <g transform="translate(103.096875 360.33443)scale(0.1 -0.1)">
       <use xlink:href="#DejaVuSans-48"/>
       <use x="63.623047" xlink:href="#DejaVuSans-46"/>
       <use x="95.410156" xlink:href="#DejaVuSans-49"/>
      </g>
     </g>
    </g>
    <g id="ytick_3">
     <g id="line2d_12">
      <g>
       <use style="stroke:#000000;stroke-width:0.8;" x="126" xlink:href="#mf311afb54e" y="272.070423"/>
      </g>
     </g>
     <g id="text_13">
      <!-- 0.2 -->
      <g transform="translate(103.096875 275.869642)scale(0.1 -0.1)">
       <use xlink:href="#DejaVuSans-48"/>
       <use x="63.623047" xlink:href="#DejaVuSans-46"/>
       <use x="95.410156" xlink:href="#DejaVuSans-50"/>
      </g>
     </g>
    </g>
    <g id="ytick_4">
     <g id="line2d_13">
      <g>
       <use style="stroke:#000000;stroke-width:0.8;" x="126" xlink:href="#mf311afb54e" y="187.605634"/>
      </g>
     </g>
     <g id="text_14">
      <!-- 0.3 -->
      <g transform="translate(103.096875 191.404853)scale(0.1 -0.1)">
       <use xlink:href="#DejaVuSans-48"/>
       <use x="63.623047" xlink:href="#DejaVuSans-46"/>
       <use x="95.410156" xlink:href="#DejaVuSans-51"/>
      </g>
     </g>
    </g>
    <g id="ytick_5">
     <g id="line2d_14">
      <g>
       <use style="stroke:#000000;stroke-width:0.8;" x="126" xlink:href="#mf311afb54e" y="103.140846"/>
      </g>
     </g>
     <g id="text_15">
      <!-- 0.4 -->
      <g transform="translate(103.096875 106.940064)scale(0.1 -0.1)">
       <use xlink:href="#DejaVuSans-48"/>
       <use x="63.623047" xlink:href="#DejaVuSans-46"/>
       <use x="95.410156" xlink:href="#DejaVuSans-52"/>
      </g>
     </g>
    </g>
    <g id="text_16">
     <!-- Probability -->
     <defs>
      <path d="M 48.6875 27.296875 
Q 48.6875 37.203125 44.609375 42.84375 
Q 40.53125 48.484375 33.40625 48.484375 
Q 26.265625 48.484375 22.1875 42.84375 
Q 18.109375 37.203125 18.109375 27.296875 
Q 18.109375 17.390625 22.1875 11.75 
Q 26.265625 6.109375 33.40625 6.109375 
Q 40.53125 6.109375 44.609375 11.75 
Q 48.6875 17.390625 48.6875 27.296875 
z
M 18.109375 46.390625 
Q 20.953125 51.265625 25.265625 53.625 
Q 29.59375 56 35.59375 56 
Q 45.5625 56 51.78125 48.09375 
Q 58.015625 40.1875 58.015625 27.296875 
Q 58.015625 14.40625 51.78125 6.484375 
Q 45.5625 -1.421875 35.59375 -1.421875 
Q 29.59375 -1.421875 25.265625 0.953125 
Q 20.953125 3.328125 18.109375 8.203125 
L 18.109375 0 
L 9.078125 0 
L 9.078125 75.984375 
L 18.109375 75.984375 
z
" id="DejaVuSans-98"/>
      <path d="M 34.28125 27.484375 
Q 23.390625 27.484375 19.1875 25 
Q 14.984375 22.515625 14.984375 16.5 
Q 14.984375 11.71875 18.140625 8.90625 
Q 21.296875 6.109375 26.703125 6.109375 
Q 34.1875 6.109375 38.703125 11.40625 
Q 43.21875 16.703125 43.21875 25.484375 
L 43.21875 27.484375 
z
M 52.203125 31.203125 
L 52.203125 0 
L 43.21875 0 
L 43.21875 8.296875 
Q 40.140625 3.328125 35.546875 0.953125 
Q 30.953125 -1.421875 24.3125 -1.421875 
Q 15.921875 -1.421875 10.953125 3.296875 
Q 6 8.015625 6 15.921875 
Q 6 25.140625 12.171875 29.828125 
Q 18.359375 34.515625 30.609375 34.515625 
L 43.21875 34.515625 
L 43.21875 35.40625 
Q 43.21875 41.609375 39.140625 45 
Q 35.0625 48.390625 27.6875 48.390625 
Q 23 48.390625 18.546875 47.265625 
Q 14.109375 46.140625 10.015625 43.890625 
L 10.015625 52.203125 
Q 14.9375 54.109375 19.578125 55.046875 
Q 24.21875 56 28.609375 56 
Q 40.484375 56 46.34375 49.84375 
Q 52.203125 43.703125 52.203125 31.203125 
z
" id="DejaVuSans-97"/>
      <path d="M 32.171875 -5.078125 
Q 28.375 -14.84375 24.75 -17.8125 
Q 21.140625 -20.796875 15.09375 -20.796875 
L 7.90625 -20.796875 
L 7.90625 -13.28125 
L 13.1875 -13.28125 
Q 16.890625 -13.28125 18.9375 -11.515625 
Q 21 -9.765625 23.484375 -3.21875 
L 25.09375 0.875 
L 2.984375 54.6875 
L 12.5 54.6875 
L 29.59375 11.921875 
L 46.6875 54.6875 
L 56.203125 54.6875 
z
" id="DejaVuSans-121"/>
     </defs>
     <g transform="translate(97.017187 277.168906)rotate(-90)scale(0.1 -0.1)">
      <use xlink:href="#DejaVuSans-80"/>
      <use x="58.552734" xlink:href="#DejaVuSans-114"/>
      <use x="97.416016" xlink:href="#DejaVuSans-111"/>
      <use x="158.597656" xlink:href="#DejaVuSans-98"/>
      <use x="222.074219" xlink:href="#DejaVuSans-97"/>
      <use x="283.353516" xlink:href="#DejaVuSans-98"/>
      <use x="346.830078" xlink:href="#DejaVuSans-105"/>
      <use x="374.613281" xlink:href="#DejaVuSans-108"/>
      <use x="402.396484" xlink:href="#DejaVuSans-105"/>
      <use x="430.179688" xlink:href="#DejaVuSans-116"/>
      <use x="469.388672" xlink:href="#DejaVuSans-121"/>
     </g>
    </g>
   </g>
   <g id="LineCollection_1">
    <path clip-path="url(#pfcb8d173aa)" d="M 523.314992 441 
L 523.314992 78.6 
" style="fill:none;stroke:#8b0000;stroke-dasharray:9.6,2.4,1.5,2.4;stroke-dashoffset:0;stroke-width:1.5;"/>
   </g>
   <g id="line2d_15">
    <path clip-path="url(#pfcb8d173aa)" d="M 126 440.959515 
L 165.256281 440.779272 
L 188.81005 440.438893 
L 204.512563 439.991072 
L 216.289447 439.462084 
L 228.066332 438.692644 
L 235.917588 438.002623 
L 243.768844 437.133608 
L 251.620101 436.047686 
L 259.471357 434.70134 
L 267.322613 433.045261 
L 275.173869 431.024347 
L 283.025126 428.577915 
L 286.950754 427.174759 
L 290.876382 425.640207 
L 294.80201 423.965381 
L 298.727638 422.141205 
L 302.653266 420.158457 
L 306.578894 418.007816 
L 310.504523 415.679923 
L 314.430151 413.165447 
L 318.355779 410.455157 
L 322.281407 407.539997 
L 326.207035 404.411172 
L 330.132663 401.060242 
L 334.058291 397.479207 
L 337.98392 393.660616 
L 341.909548 389.597667 
L 345.835176 385.284313 
L 349.760804 380.715373 
L 353.686432 375.886642 
L 357.61206 370.795001 
L 361.537688 365.438528 
L 365.463317 359.816604 
L 369.388945 353.930019 
L 373.314573 347.78107 
L 377.240201 341.373653 
L 381.165829 334.713348 
L 385.091457 327.807493 
L 392.942714 313.297656 
L 400.79397 297.940147 
L 408.645226 281.861815 
L 416.496482 265.22029 
L 428.273367 239.619008 
L 443.975879 205.476924 
L 451.827136 188.97273 
L 459.678392 173.206937 
L 463.60402 165.68691 
L 467.529648 158.454218 
L 471.455276 151.542222 
L 475.380905 144.983411 
L 479.306533 138.809153 
L 483.232161 133.049446 
L 487.157789 127.732671 
L 491.083417 122.885367 
L 495.009045 118.532003 
L 498.934673 114.69478 
L 502.860302 111.393435 
L 506.78593 108.645079 
L 510.711558 106.464044 
L 514.637186 104.86176 
L 518.562814 103.846656 
L 522.488442 103.424089 
L 526.41407 103.596288 
L 530.339698 104.362345 
L 534.265327 105.718216 
L 538.190955 107.656759 
L 542.116583 110.167796 
L 546.042211 113.238203 
L 549.967839 116.852023 
L 553.893467 120.990605 
L 557.819095 125.632765 
L 561.744724 130.754964 
L 565.670352 136.331508 
L 569.59598 142.334765 
L 573.521608 148.735389 
L 577.447236 155.502559 
L 581.372864 162.604226 
L 585.298492 170.007366 
L 593.149749 185.582606 
L 601.001005 201.954172 
L 612.777889 227.407775 
L 628.480402 261.661661 
L 636.331658 278.398865 
L 644.182915 294.609897 
L 652.034171 310.13076 
L 659.885427 324.828082 
L 663.811055 331.834705 
L 667.736683 338.59941 
L 671.662312 345.1141 
L 675.58794 351.372461 
L 679.513568 357.369898 
L 683.439196 363.103453 
L 687.364824 368.571713 
L 691.290452 373.774715 
L 695.21608 378.713845 
L 699.141709 383.391732 
L 703.067337 387.812136 
L 706.992965 391.979842 
L 710.918593 395.900545 
L 714.844221 399.580743 
L 718.769849 403.027626 
L 722.695477 406.248974 
L 726.621106 409.253056 
L 730.546734 412.048527 
L 734.472362 414.644344 
L 738.39799 417.049675 
L 742.323618 419.273817 
L 746.249246 421.326126 
L 750.174874 423.215946 
L 754.100503 424.952548 
L 758.026131 426.545076 
L 761.951759 428.002495 
L 765.877387 429.333554 
L 773.728643 431.65027 
L 781.579899 433.559583 
L 789.431156 435.120598 
L 797.282412 436.386752 
L 805.133668 437.405668 
L 812.984925 438.219216 
L 824.761809 439.13255 
L 836.538693 439.765643 
L 852.241206 440.306609 
L 871.869347 440.675903 
L 899.348744 440.896224 
L 907.2 440.926227 
L 907.2 440.926227 
" style="fill:none;stroke:#8b0000;stroke-linecap:square;stroke-width:2;"/>
   </g>
   <g id="patch_53">
    <path d="M 126 441 
L 126 60.48 
" style="fill:none;stroke:#000000;stroke-linecap:square;stroke-linejoin:miter;stroke-width:0.8;"/>
   </g>
   <g id="patch_54">
    <path d="M 907.2 441 
L 907.2 60.48 
" style="fill:none;stroke:#000000;stroke-linecap:square;stroke-linejoin:miter;stroke-width:0.8;"/>
   </g>
   <g id="patch_55">
    <path d="M 126 441 
L 907.2 441 
" style="fill:none;stroke:#000000;stroke-linecap:square;stroke-linejoin:miter;stroke-width:0.8;"/>
   </g>
   <g id="patch_56">
    <path d="M 126 60.48 
L 907.2 60.48 
" style="fill:none;stroke:#000000;stroke-linecap:square;stroke-linejoin:miter;stroke-width:0.8;"/>
   </g>
   <g id="legend_1">
    <g id="patch_57">
     <path d="M 783.645313 97.83625 
L 900.2 97.83625 
Q 902.2 97.83625 902.2 95.83625 
L 902.2 67.48 
Q 902.2 65.48 900.2 65.48 
L 783.645313 65.48 
Q 781.645313 65.48 781.645313 67.48 
L 781.645313 95.83625 
Q 781.645313 97.83625 783.645313 97.83625 
z
" style="fill:#ffffff;opacity:0.8;stroke:#cccccc;stroke-linejoin:miter;"/>
    </g>
    <g id="patch_58">
     <path d="M 785.645313 77.078438 
L 805.645313 77.078438 
L 805.645313 70.078438 
L 785.645313 70.078438 
z
" style="fill:#f4a460;opacity:0.7;"/>
    </g>
    <g id="text_17">
     <!-- Prior -->
     <g transform="translate(813.645313 77.078438)scale(0.1 -0.1)">
      <use xlink:href="#DejaVuSans-80"/>
      <use x="58.552734" xlink:href="#DejaVuSans-114"/>
      <use x="99.666016" xlink:href="#DejaVuSans-105"/>
      <use x="127.449219" xlink:href="#DejaVuSans-111"/>
      <use x="188.630859" xlink:href="#DejaVuSans-114"/>
     </g>
    </g>
    <g id="line2d_16">
     <path d="M 785.645313 88.256563 
L 805.645313 88.256563 
" style="fill:none;stroke:#8b0000;stroke-dasharray:9.6,2.4,1.5,2.4;stroke-dashoffset:0;stroke-width:1.5;"/>
    </g>
    <g id="text_18">
     <!-- Prior score mean -->
     <defs>
      <path d="M 44.28125 53.078125 
L 44.28125 44.578125 
Q 40.484375 46.53125 36.375 47.5 
Q 32.28125 48.484375 27.875 48.484375 
Q 21.1875 48.484375 17.84375 46.4375 
Q 14.5 44.390625 14.5 40.28125 
Q 14.5 37.15625 16.890625 35.375 
Q 19.28125 33.59375 26.515625 31.984375 
L 29.59375 31.296875 
Q 39.15625 29.25 43.1875 25.515625 
Q 47.21875 21.78125 47.21875 15.09375 
Q 47.21875 7.46875 41.1875 3.015625 
Q 35.15625 -1.421875 24.609375 -1.421875 
Q 20.21875 -1.421875 15.453125 -0.5625 
Q 10.6875 0.296875 5.421875 2 
L 5.421875 11.28125 
Q 10.40625 8.6875 15.234375 7.390625 
Q 20.0625 6.109375 24.8125 6.109375 
Q 31.15625 6.109375 34.5625 8.28125 
Q 37.984375 10.453125 37.984375 14.40625 
Q 37.984375 18.0625 35.515625 20.015625 
Q 33.0625 21.96875 24.703125 23.78125 
L 21.578125 24.515625 
Q 13.234375 26.265625 9.515625 29.90625 
Q 5.8125 33.546875 5.8125 39.890625 
Q 5.8125 47.609375 11.28125 51.796875 
Q 16.75 56 26.8125 56 
Q 31.78125 56 36.171875 55.265625 
Q 40.578125 54.546875 44.28125 53.078125 
z
" id="DejaVuSans-115"/>
      <path d="M 48.78125 52.59375 
L 48.78125 44.1875 
Q 44.96875 46.296875 41.140625 47.34375 
Q 37.3125 48.390625 33.40625 48.390625 
Q 24.65625 48.390625 19.8125 42.84375 
Q 14.984375 37.3125 14.984375 27.296875 
Q 14.984375 17.28125 19.8125 11.734375 
Q 24.65625 6.203125 33.40625 6.203125 
Q 37.3125 6.203125 41.140625 7.25 
Q 44.96875 8.296875 48.78125 10.40625 
L 48.78125 2.09375 
Q 45.015625 0.34375 40.984375 -0.53125 
Q 36.96875 -1.421875 32.421875 -1.421875 
Q 20.0625 -1.421875 12.78125 6.34375 
Q 5.515625 14.109375 5.515625 27.296875 
Q 5.515625 40.671875 12.859375 48.328125 
Q 20.21875 56 33.015625 56 
Q 37.15625 56 41.109375 55.140625 
Q 45.0625 54.296875 48.78125 52.59375 
z
" id="DejaVuSans-99"/>
      <path d="M 56.203125 29.59375 
L 56.203125 25.203125 
L 14.890625 25.203125 
Q 15.484375 15.921875 20.484375 11.0625 
Q 25.484375 6.203125 34.421875 6.203125 
Q 39.59375 6.203125 44.453125 7.46875 
Q 49.3125 8.734375 54.109375 11.28125 
L 54.109375 2.78125 
Q 49.265625 0.734375 44.1875 -0.34375 
Q 39.109375 -1.421875 33.890625 -1.421875 
Q 20.796875 -1.421875 13.15625 6.1875 
Q 5.515625 13.8125 5.515625 26.8125 
Q 5.515625 40.234375 12.765625 48.109375 
Q 20.015625 56 32.328125 56 
Q 43.359375 56 49.78125 48.890625 
Q 56.203125 41.796875 56.203125 29.59375 
z
M 47.21875 32.234375 
Q 47.125 39.59375 43.09375 43.984375 
Q 39.0625 48.390625 32.421875 48.390625 
Q 24.90625 48.390625 20.390625 44.140625 
Q 15.875 39.890625 15.1875 32.171875 
z
" id="DejaVuSans-101"/>
     </defs>
     <g transform="translate(813.645313 91.756563)scale(0.1 -0.1)">
      <use xlink:href="#DejaVuSans-80"/>
      <use x="58.552734" xlink:href="#DejaVuSans-114"/>
      <use x="99.666016" xlink:href="#DejaVuSans-105"/>
      <use x="127.449219" xlink:href="#DejaVuSans-111"/>
      <use x="188.630859" xlink:href="#DejaVuSans-114"/>
      <use x="229.744141" xlink:href="#DejaVuSans-32"/>
      <use x="261.53125" xlink:href="#DejaVuSans-115"/>
      <use x="313.630859" xlink:href="#DejaVuSans-99"/>
      <use x="368.611328" xlink:href="#DejaVuSans-111"/>
      <use x="429.792969" xlink:href="#DejaVuSans-114"/>
      <use x="468.65625" xlink:href="#DejaVuSans-101"/>
      <use x="530.179688" xlink:href="#DejaVuSans-32"/>
      <use x="561.966797" xlink:href="#DejaVuSans-109"/>
      <use x="659.378906" xlink:href="#DejaVuSans-101"/>
      <use x="720.902344" xlink:href="#DejaVuSans-97"/>
      <use x="782.181641" xlink:href="#DejaVuSans-110"/>
     </g>
    </g>
   </g>
  </g>
 </g>
 <defs>
  <clipPath id="pfcb8d173aa">
   <rect height="380.52" width="781.2" x="126" y="60.48"/>
  </clipPath>
 </defs>
</svg>
